<?xml version="1.0" encoding="UTF-8" standalone="no"?><svg xmlns="http://www.w3.org/2000/svg" xmlns:xlink="http://www.w3.org/1999/xlink" contentScriptType="application/ecmascript" contentStyleType="text/css" height="457px" preserveAspectRatio="none" style="width:233px;height:457px;" version="1.1" viewBox="0 0 233 457" width="233px" zoomAndPan="magnify"><defs><filter height="300%" id="foigj0p3zp4dh" width="300%" x="-1" y="-1"><feGaussianBlur result="blurOut" stdDeviation="2.0"/><feColorMatrix in="blurOut" result="blurOut2" type="matrix" values="0 0 0 0 0 0 0 0 0 0 0 0 0 0 0 0 0 0 .4 0"/><feOffset dx="4.0" dy="4.0" in="blurOut2" result="blurOut3"/><feBlend in="SourceGraphic" in2="blurOut3" mode="normal"/></filter></defs><g><!--MD5=[0f39ee9704c8533bf251f39eadc2a52b]
cluster factorymethod--><polygon fill="#FFFFFF" filter="url(#foigj0p3zp4dh)" points="14,16,125,16,132,38.4883,211,38.4883,211,445,14,445,14,16" style="stroke: #000000; stroke-width: 1.5;"/><line style="stroke: #000000; stroke-width: 1.5;" x1="14" x2="132" y1="38.4883" y2="38.4883"/><text fill="#000000" font-family="sans-serif" font-size="14" font-weight="bold" lengthAdjust="spacingAndGlyphs" textLength="105" x="18" y="31.5352">factorymethod</text><!--MD5=[cc848765fa1514d67c1d76f98eea61b2]
class factorymethod.ak47--><rect fill="#FEFECE" filter="url(#foigj0p3zp4dh)" height="48" id="factorymethod.ak47" style="stroke: #A80036; stroke-width: 1.5;" width="62" x="22" y="389"/><ellipse cx="37" cy="405" fill="#7FFFD4" rx="11" ry="11" style="stroke: #A80036; stroke-width: 1.0;"/><path d="M36.2334,406.063 Q34.3823,405.3574 33.7266,404.5813 Q33.0708,403.8052 33.0708,402.4937 Q33.0708,400.8086 34.1499,399.8457 Q35.229,398.8828 37.1133,398.8828 Q37.9683,398.8828 38.8232,399.0779 Q39.6782,399.2729 40.5166,399.6548 L40.5166,402.0454 Q39.728,401.4893 38.9146,401.1987 Q38.1011,400.9082 37.3042,400.9082 Q36.416,400.9082 35.9429,401.2651 Q35.4697,401.6221 35.4697,402.2861 Q35.4697,402.8008 35.8142,403.137 Q36.1587,403.4731 37.2544,403.8799 L38.3086,404.2783 Q39.8027,404.8262 40.5083,405.731 Q41.2139,406.6357 41.2139,408.0137 Q41.2139,409.8896 40.1057,410.8152 Q38.9976,411.7407 36.7563,411.7407 Q35.835,411.7407 34.9094,411.5208 Q33.9839,411.3008 33.1206,410.8691 L33.1206,408.3374 Q34.1001,409.0347 35.0173,409.375 Q35.9346,409.7153 36.8311,409.7153 Q37.7358,409.7153 38.2339,409.3044 Q38.7319,408.8936 38.7319,408.1548 Q38.7319,407.5986 38.3999,407.1794 Q38.0679,406.7603 37.437,406.5195 Z "/><text fill="#000000" font-family="sans-serif" font-size="12" lengthAdjust="spacingAndGlyphs" textLength="30" x="51" y="409.5352">ak47</text><line style="stroke: #A80036; stroke-width: 1.5;" x1="23" x2="83" y1="421" y2="421"/><line style="stroke: #A80036; stroke-width: 1.5;" x1="23" x2="83" y1="429" y2="429"/><!--MD5=[1db69c920af56549c8df17199b110c2b]
class factorymethod.gun--><rect fill="#FEFECE" filter="url(#foigj0p3zp4dh)" height="125.7305" id="factorymethod.gun" style="stroke: #A80036; stroke-width: 1.5;" width="144" x="40" y="203"/><ellipse cx="97.25" cy="219" fill="#7FFFD4" rx="11" ry="11" style="stroke: #A80036; stroke-width: 1.0;"/><path d="M96.4834,220.063 Q94.6323,219.3574 93.9766,218.5813 Q93.3208,217.8052 93.3208,216.4937 Q93.3208,214.8086 94.3999,213.8457 Q95.479,212.8828 97.3633,212.8828 Q98.2183,212.8828 99.0732,213.0779 Q99.9282,213.2729 100.7666,213.6548 L100.7666,216.0454 Q99.978,215.4893 99.1646,215.1987 Q98.3511,214.9082 97.5542,214.9082 Q96.666,214.9082 96.1929,215.2651 Q95.7197,215.6221 95.7197,216.2861 Q95.7197,216.8008 96.0642,217.137 Q96.4087,217.4731 97.5044,217.8799 L98.5586,218.2783 Q100.0527,218.8262 100.7583,219.731 Q101.4639,220.6357 101.4639,222.0137 Q101.4639,223.8896 100.3557,224.8152 Q99.2476,225.7407 97.0063,225.7407 Q96.085,225.7407 95.1594,225.5208 Q94.2339,225.3008 93.3706,224.8691 L93.3706,222.3374 Q94.3501,223.0347 95.2673,223.375 Q96.1846,223.7153 97.0811,223.7153 Q97.9858,223.7153 98.4839,223.3044 Q98.9819,222.8936 98.9819,222.1548 Q98.9819,221.5986 98.6499,221.1794 Q98.3179,220.7603 97.687,220.5195 Z "/><text fill="#000000" font-family="sans-serif" font-size="12" lengthAdjust="spacingAndGlyphs" textLength="21" x="117.75" y="223.5352">gun</text><line style="stroke: #A80036; stroke-width: 1.5;" x1="41" x2="183" y1="235" y2="235"/><rect fill="none" height="6" style="stroke: #C82930; stroke-width: 1.0;" width="6" x="48" y="243"/><text fill="#000000" font-family="sans-serif" font-size="11" lengthAdjust="spacingAndGlyphs" textLength="64" x="60" y="249.6348">name string</text><rect fill="none" height="6" style="stroke: #C82930; stroke-width: 1.0;" width="6" x="48" y="255.9551"/><text fill="#000000" font-family="sans-serif" font-size="11" lengthAdjust="spacingAndGlyphs" textLength="50" x="60" y="262.5898">power int</text><line style="stroke: #A80036; stroke-width: 1.5;" x1="41" x2="183" y1="268.9102" y2="268.9102"/><rect fill="#F24D5C" height="6" style="stroke: #C82930; stroke-width: 1.0;" width="6" x="48" y="276.9102"/><text fill="#000000" font-family="sans-serif" font-size="11" lengthAdjust="spacingAndGlyphs" textLength="118" x="60" y="283.5449">setName(name string)</text><rect fill="#F24D5C" height="6" style="stroke: #C82930; stroke-width: 1.0;" width="6" x="48" y="289.8652"/><text fill="#000000" font-family="sans-serif" font-size="11" lengthAdjust="spacingAndGlyphs" textLength="90" x="60" y="296.5">getName() string</text><rect fill="#F24D5C" height="6" style="stroke: #C82930; stroke-width: 1.0;" width="6" x="48" y="302.8203"/><text fill="#000000" font-family="sans-serif" font-size="11" lengthAdjust="spacingAndGlyphs" textLength="106" x="60" y="309.4551">setPower(power int)</text><rect fill="#F24D5C" height="6" style="stroke: #C82930; stroke-width: 1.0;" width="6" x="48" y="315.7754"/><text fill="#000000" font-family="sans-serif" font-size="11" lengthAdjust="spacingAndGlyphs" textLength="74" x="60" y="322.4102">getPower() int</text><!--MD5=[99f255528737408171cb6e748468df3e]
class factorymethod.iGun--><rect fill="#FEFECE" filter="url(#foigj0p3zp4dh)" height="99.8203" id="factorymethod.iGun" style="stroke: #A80036; stroke-width: 1.5;" width="144" x="40" y="43"/><ellipse cx="94.75" cy="59" fill="#B4A7E5" rx="11" ry="11" style="stroke: #A80036; stroke-width: 1.0;"/><path d="M91.1777,55.2651 L91.1777,53.1069 L98.5571,53.1069 L98.5571,55.2651 L96.0918,55.2651 L96.0918,63.3418 L98.5571,63.3418 L98.5571,65.5 L91.1777,65.5 L91.1777,63.3418 L93.6431,63.3418 L93.6431,55.2651 Z "/><text fill="#000000" font-family="sans-serif" font-size="12" font-style="italic" lengthAdjust="spacingAndGlyphs" textLength="26" x="115.25" y="63.5352">iGun</text><line style="stroke: #A80036; stroke-width: 1.5;" x1="41" x2="183" y1="75" y2="75"/><line style="stroke: #A80036; stroke-width: 1.5;" x1="41" x2="183" y1="83" y2="83"/><rect fill="#F24D5C" height="6" style="stroke: #C82930; stroke-width: 1.0;" width="6" x="48" y="91"/><text fill="#000000" font-family="sans-serif" font-size="11" lengthAdjust="spacingAndGlyphs" textLength="118" x="60" y="97.6348">setName(name string)</text><rect fill="#F24D5C" height="6" style="stroke: #C82930; stroke-width: 1.0;" width="6" x="48" y="103.9551"/><text fill="#000000" font-family="sans-serif" font-size="11" lengthAdjust="spacingAndGlyphs" textLength="106" x="60" y="110.5898">setPower(power int)</text><rect fill="#F24D5C" height="6" style="stroke: #C82930; stroke-width: 1.0;" width="6" x="48" y="116.9102"/><text fill="#000000" font-family="sans-serif" font-size="11" lengthAdjust="spacingAndGlyphs" textLength="90" x="60" y="123.5449">getName() string</text><rect fill="#F24D5C" height="6" style="stroke: #C82930; stroke-width: 1.0;" width="6" x="48" y="129.8652"/><text fill="#000000" font-family="sans-serif" font-size="11" lengthAdjust="spacingAndGlyphs" textLength="74" x="60" y="136.5">getPower() int</text><!--MD5=[8a1492c9850cfd57da9928af2ee60a7e]
class factorymethod.maverick--><rect fill="#FEFECE" filter="url(#foigj0p3zp4dh)" height="48" id="factorymethod.maverick" style="stroke: #A80036; stroke-width: 1.5;" width="84" x="119" y="389"/><ellipse cx="134" cy="405" fill="#7FFFD4" rx="11" ry="11" style="stroke: #A80036; stroke-width: 1.0;"/><path d="M133.2334,406.063 Q131.3823,405.3574 130.7266,404.5813 Q130.0708,403.8052 130.0708,402.4937 Q130.0708,400.8086 131.1499,399.8457 Q132.229,398.8828 134.1133,398.8828 Q134.9683,398.8828 135.8232,399.0779 Q136.6782,399.2729 137.5166,399.6548 L137.5166,402.0454 Q136.728,401.4893 135.9146,401.1987 Q135.1011,400.9082 134.3042,400.9082 Q133.416,400.9082 132.9429,401.2651 Q132.4697,401.6221 132.4697,402.2861 Q132.4697,402.8008 132.8142,403.137 Q133.1587,403.4731 134.2544,403.8799 L135.3086,404.2783 Q136.8027,404.8262 137.5083,405.731 Q138.2139,406.6357 138.2139,408.0137 Q138.2139,409.8896 137.1057,410.8152 Q135.9976,411.7407 133.7563,411.7407 Q132.835,411.7407 131.9094,411.5208 Q130.9839,411.3008 130.1206,410.8691 L130.1206,408.3374 Q131.1001,409.0347 132.0173,409.375 Q132.9346,409.7153 133.8311,409.7153 Q134.7358,409.7153 135.2339,409.3044 Q135.7319,408.8936 135.7319,408.1548 Q135.7319,407.5986 135.3999,407.1794 Q135.0679,406.7603 134.437,406.5195 Z "/><text fill="#000000" font-family="sans-serif" font-size="12" lengthAdjust="spacingAndGlyphs" textLength="52" x="148" y="409.5352">maverick</text><line style="stroke: #A80036; stroke-width: 1.5;" x1="120" x2="202" y1="421" y2="421"/><line style="stroke: #A80036; stroke-width: 1.5;" x1="120" x2="202" y1="429" y2="429"/><!--MD5=[11a41d48182696d4b8fc5122eb5164c6]
reverse link factorymethod.gun to factorymethod.ak47--><path d="M81.7271,341.4256 C74.7992,358.6868 67.928,375.8064 62.6436,388.9727 " fill="none" id="factorymethod.gun&lt;-factorymethod.ak47" style="stroke: #A80036; stroke-width: 1.0;"/><polygon fill="#A80036" points="86.6363,329.1943,80.6893,333.2726,82.1665,340.3308,88.1136,336.2525,86.6363,329.1943" style="stroke: #A80036; stroke-width: 1.0;"/><!--MD5=[c9a1662db7296efa4e5c0f1dc45195ac]
reverse link factorymethod.gun to factorymethod.maverick--><path d="M137.2252,341.6757 C142.9507,358.8522 148.6233,375.87 152.9909,388.9727 " fill="none" id="factorymethod.gun&lt;-factorymethod.maverick" style="stroke: #A80036; stroke-width: 1.0;"/><polygon fill="#A80036" points="133.0648,329.1943,131.1675,336.1513,136.8596,340.5785,138.7569,333.6215,133.0648,329.1943" style="stroke: #A80036; stroke-width: 1.0;"/><!--MD5=[bf6e3978b9c57913cdb60ab1ba6ac8f5]
reverse link factorymethod.iGun to factorymethod.gun--><path d="M112,163.0821 C112,176.2287 112,189.9006 112,202.8221 " fill="none" id="factorymethod.iGun&lt;-factorymethod.gun" style="stroke: #A80036; stroke-width: 1.0;"/><polygon fill="none" points="105.0001,163.0388,112,143.0388,119.0001,163.0387,105.0001,163.0388" style="stroke: #A80036; stroke-width: 1.0;"/><!--MD5=[24dba35017e3a71201b81e90fe543ceb]
@startuml
namespace factorymethod {
    class ak47 << (S,Aquamarine) >> {
    }
    class gun << (S,Aquamarine) >> {
        - name string
        - power int

        - setName(name string) 
        - getName() string
        - setPower(power int) 
        - getPower() int

    }
    interface iGun  {
        - setName(name string) 
        - setPower(power int) 
        - getName() string
        - getPower() int

    }
    class maverick << (S,Aquamarine) >> {
    }
}
"factorymethod.gun" *- - "factorymethod.ak47"
"factorymethod.gun" *- - "factorymethod.maverick"

"factorymethod.iGun" <|- - "factorymethod.gun"

@enduml

PlantUML version 1.2020.10(Sun May 17 17:35:57 CST 2020)
(GPL source distribution)
Java Runtime: OpenJDK Runtime Environment
JVM: OpenJDK 64-Bit Server VM
Java Version: 1.8.0_222-b10
Operating System: Mac OS X
Default Encoding: US-ASCII
Language: en
Country: CN
--></g></svg>