<?xml version="1.0" encoding="UTF-8" standalone="no"?><svg xmlns="http://www.w3.org/2000/svg" xmlns:xlink="http://www.w3.org/1999/xlink" contentScriptType="application/ecmascript" contentStyleType="text/css" height="323px" preserveAspectRatio="none" style="width:813px;height:323px;" version="1.1" viewBox="0 0 813 323" width="813px" zoomAndPan="magnify"><defs><filter height="300%" id="f155xz2qtmu0l5" width="300%" x="-1" y="-1"><feGaussianBlur result="blurOut" stdDeviation="2.0"/><feColorMatrix in="blurOut" result="blurOut2" type="matrix" values="0 0 0 0 0 0 0 0 0 0 0 0 0 0 0 0 0 0 .4 0"/><feOffset dx="4.0" dy="4.0" in="blurOut2" result="blurOut3"/><feBlend in="SourceGraphic" in2="blurOut3" mode="normal"/></filter></defs><g><!--MD5=[af24b70f18aa2405b0eadedd2ebe1d77]
cluster responsibility--><polygon fill="#FFFFFF" filter="url(#f155xz2qtmu0l5)" points="14,16,120,16,127,38.4883,791,38.4883,791,311,14,311,14,16" style="stroke: #000000; stroke-width: 1.5;"/><line style="stroke: #000000; stroke-width: 1.5;" x1="14" x2="127" y1="38.4883" y2="38.4883"/><text fill="#000000" font-family="sans-serif" font-size="14" font-weight="bold" lengthAdjust="spacingAndGlyphs" textLength="100" x="18" y="31.5352">responsibility</text><!--MD5=[e4f377ab4bb19a4830e0ea1a1be14a73]
class responsibility.cashier--><rect fill="#FEFECE" filter="url(#f155xz2qtmu0l5)" height="86.8652" id="responsibility.cashier" style="stroke: #A80036; stroke-width: 1.5;" width="164" x="22" y="216"/><ellipse cx="79.25" cy="232" fill="#7FFFD4" rx="11" ry="11" style="stroke: #A80036; stroke-width: 1.0;"/><path d="M78.4834,233.063 Q76.6323,232.3574 75.9766,231.5813 Q75.3208,230.8052 75.3208,229.4937 Q75.3208,227.8086 76.3999,226.8457 Q77.479,225.8828 79.3633,225.8828 Q80.2183,225.8828 81.0732,226.0779 Q81.9282,226.2729 82.7666,226.6548 L82.7666,229.0454 Q81.978,228.4893 81.1646,228.1987 Q80.3511,227.9082 79.5542,227.9082 Q78.666,227.9082 78.1929,228.2651 Q77.7197,228.6221 77.7197,229.2861 Q77.7197,229.8008 78.0642,230.137 Q78.4087,230.4731 79.5044,230.8799 L80.5586,231.2783 Q82.0527,231.8262 82.7583,232.731 Q83.4639,233.6357 83.4639,235.0137 Q83.4639,236.8896 82.3557,237.8152 Q81.2476,238.7407 79.0063,238.7407 Q78.085,238.7407 77.1594,238.5208 Q76.2339,238.3008 75.3706,237.8691 L75.3706,235.3374 Q76.3501,236.0347 77.2673,236.375 Q78.1846,236.7153 79.0811,236.7153 Q79.9858,236.7153 80.4839,236.3044 Q80.9819,235.8936 80.9819,235.1548 Q80.9819,234.5986 80.6499,234.1794 Q80.3179,233.7603 79.687,233.5195 Z "/><text fill="#000000" font-family="sans-serif" font-size="12" lengthAdjust="spacingAndGlyphs" textLength="41" x="99.75" y="236.5352">cashier</text><line style="stroke: #A80036; stroke-width: 1.5;" x1="23" x2="185" y1="248" y2="248"/><rect fill="none" height="6" style="stroke: #C82930; stroke-width: 1.0;" width="6" x="30" y="256"/><text fill="#000000" font-family="sans-serif" font-size="11" lengthAdjust="spacingAndGlyphs" textLength="89" x="42" y="262.6348">next department</text><line style="stroke: #A80036; stroke-width: 1.5;" x1="23" x2="185" y1="268.9551" y2="268.9551"/><rect fill="#F24D5C" height="6" style="stroke: #C82930; stroke-width: 1.0;" width="6" x="30" y="276.9551"/><text fill="#000000" font-family="sans-serif" font-size="11" lengthAdjust="spacingAndGlyphs" textLength="102" x="42" y="283.5898">execute(p *patient)</text><rect fill="#F24D5C" height="6" style="stroke: #C82930; stroke-width: 1.0;" width="6" x="30" y="289.9102"/><text fill="#000000" font-family="sans-serif" font-size="11" lengthAdjust="spacingAndGlyphs" textLength="138" x="42" y="296.5449">setNext(next department)</text><!--MD5=[4e96a67b44fe6ec7f6423d46d9642b7c]
class responsibility.department--><rect fill="#FEFECE" filter="url(#f155xz2qtmu0l5)" height="73.9102" id="responsibility.department" style="stroke: #A80036; stroke-width: 1.5;" width="140" x="332" y="62.5"/><ellipse cx="365" cy="78.5" fill="#B4A7E5" rx="11" ry="11" style="stroke: #A80036; stroke-width: 1.0;"/><path d="M361.4277,74.7651 L361.4277,72.6069 L368.8071,72.6069 L368.8071,74.7651 L366.3418,74.7651 L366.3418,82.8418 L368.8071,82.8418 L368.8071,85 L361.4277,85 L361.4277,82.8418 L363.8931,82.8418 L363.8931,74.7651 Z "/><text fill="#000000" font-family="sans-serif" font-size="12" font-style="italic" lengthAdjust="spacingAndGlyphs" textLength="68" x="383" y="83.0352">department</text><line style="stroke: #A80036; stroke-width: 1.5;" x1="333" x2="471" y1="94.5" y2="94.5"/><line style="stroke: #A80036; stroke-width: 1.5;" x1="333" x2="471" y1="102.5" y2="102.5"/><rect fill="#F24D5C" height="6" style="stroke: #C82930; stroke-width: 1.0;" width="6" x="340" y="110.5"/><text fill="#000000" font-family="sans-serif" font-size="11" lengthAdjust="spacingAndGlyphs" textLength="95" x="352" y="117.1348">execute( *patient)</text><rect fill="#F24D5C" height="6" style="stroke: #C82930; stroke-width: 1.0;" width="6" x="340" y="123.4551"/><text fill="#000000" font-family="sans-serif" font-size="11" lengthAdjust="spacingAndGlyphs" textLength="114" x="352" y="130.0898">setNext( department)</text><!--MD5=[d521a7ad0518ce7502b9bae0daa2cec4]
class responsibility.doctor--><rect fill="#FEFECE" filter="url(#f155xz2qtmu0l5)" height="86.8652" id="responsibility.doctor" style="stroke: #A80036; stroke-width: 1.5;" width="164" x="221" y="216"/><ellipse cx="280.25" cy="232" fill="#7FFFD4" rx="11" ry="11" style="stroke: #A80036; stroke-width: 1.0;"/><path d="M279.4834,233.063 Q277.6323,232.3574 276.9766,231.5813 Q276.3208,230.8052 276.3208,229.4937 Q276.3208,227.8086 277.3999,226.8457 Q278.479,225.8828 280.3633,225.8828 Q281.2183,225.8828 282.0732,226.0779 Q282.9282,226.2729 283.7666,226.6548 L283.7666,229.0454 Q282.978,228.4893 282.1646,228.1987 Q281.3511,227.9082 280.5542,227.9082 Q279.666,227.9082 279.1929,228.2651 Q278.7197,228.6221 278.7197,229.2861 Q278.7197,229.8008 279.0642,230.137 Q279.4087,230.4731 280.5044,230.8799 L281.5586,231.2783 Q283.0527,231.8262 283.7583,232.731 Q284.4639,233.6357 284.4639,235.0137 Q284.4639,236.8896 283.3557,237.8152 Q282.2476,238.7407 280.0063,238.7407 Q279.085,238.7407 278.1594,238.5208 Q277.2339,238.3008 276.3706,237.8691 L276.3706,235.3374 Q277.3501,236.0347 278.2673,236.375 Q279.1846,236.7153 280.0811,236.7153 Q280.9858,236.7153 281.4839,236.3044 Q281.9819,235.8936 281.9819,235.1548 Q281.9819,234.5986 281.6499,234.1794 Q281.3179,233.7603 280.687,233.5195 Z "/><text fill="#000000" font-family="sans-serif" font-size="12" lengthAdjust="spacingAndGlyphs" textLength="37" x="300.75" y="236.5352">doctor</text><line style="stroke: #A80036; stroke-width: 1.5;" x1="222" x2="384" y1="248" y2="248"/><rect fill="none" height="6" style="stroke: #C82930; stroke-width: 1.0;" width="6" x="229" y="256"/><text fill="#000000" font-family="sans-serif" font-size="11" lengthAdjust="spacingAndGlyphs" textLength="89" x="241" y="262.6348">next department</text><line style="stroke: #A80036; stroke-width: 1.5;" x1="222" x2="384" y1="268.9551" y2="268.9551"/><rect fill="#F24D5C" height="6" style="stroke: #C82930; stroke-width: 1.0;" width="6" x="229" y="276.9551"/><text fill="#000000" font-family="sans-serif" font-size="11" lengthAdjust="spacingAndGlyphs" textLength="102" x="241" y="283.5898">execute(p *patient)</text><rect fill="#F24D5C" height="6" style="stroke: #C82930; stroke-width: 1.0;" width="6" x="229" y="289.9102"/><text fill="#000000" font-family="sans-serif" font-size="11" lengthAdjust="spacingAndGlyphs" textLength="138" x="241" y="296.5449">setNext(next department)</text><!--MD5=[9339a5d4430306e3d17489a415bf37bf]
class responsibility.medical--><rect fill="#FEFECE" filter="url(#f155xz2qtmu0l5)" height="86.8652" id="responsibility.medical" style="stroke: #A80036; stroke-width: 1.5;" width="164" x="420" y="216"/><ellipse cx="475.25" cy="232" fill="#7FFFD4" rx="11" ry="11" style="stroke: #A80036; stroke-width: 1.0;"/><path d="M474.4834,233.063 Q472.6323,232.3574 471.9766,231.5813 Q471.3208,230.8052 471.3208,229.4937 Q471.3208,227.8086 472.3999,226.8457 Q473.479,225.8828 475.3633,225.8828 Q476.2183,225.8828 477.0732,226.0779 Q477.9282,226.2729 478.7666,226.6548 L478.7666,229.0454 Q477.978,228.4893 477.1646,228.1987 Q476.3511,227.9082 475.5542,227.9082 Q474.666,227.9082 474.1929,228.2651 Q473.7197,228.6221 473.7197,229.2861 Q473.7197,229.8008 474.0642,230.137 Q474.4087,230.4731 475.5044,230.8799 L476.5586,231.2783 Q478.0527,231.8262 478.7583,232.731 Q479.4639,233.6357 479.4639,235.0137 Q479.4639,236.8896 478.3557,237.8152 Q477.2476,238.7407 475.0063,238.7407 Q474.085,238.7407 473.1594,238.5208 Q472.2339,238.3008 471.3706,237.8691 L471.3706,235.3374 Q472.3501,236.0347 473.2673,236.375 Q474.1846,236.7153 475.0811,236.7153 Q475.9858,236.7153 476.4839,236.3044 Q476.9819,235.8936 476.9819,235.1548 Q476.9819,234.5986 476.6499,234.1794 Q476.3179,233.7603 475.687,233.5195 Z "/><text fill="#000000" font-family="sans-serif" font-size="12" lengthAdjust="spacingAndGlyphs" textLength="45" x="495.75" y="236.5352">medical</text><line style="stroke: #A80036; stroke-width: 1.5;" x1="421" x2="583" y1="248" y2="248"/><rect fill="none" height="6" style="stroke: #C82930; stroke-width: 1.0;" width="6" x="428" y="256"/><text fill="#000000" font-family="sans-serif" font-size="11" lengthAdjust="spacingAndGlyphs" textLength="89" x="440" y="262.6348">next department</text><line style="stroke: #A80036; stroke-width: 1.5;" x1="421" x2="583" y1="268.9551" y2="268.9551"/><rect fill="#F24D5C" height="6" style="stroke: #C82930; stroke-width: 1.0;" width="6" x="428" y="276.9551"/><text fill="#000000" font-family="sans-serif" font-size="11" lengthAdjust="spacingAndGlyphs" textLength="102" x="440" y="283.5898">execute(p *patient)</text><rect fill="#F24D5C" height="6" style="stroke: #C82930; stroke-width: 1.0;" width="6" x="428" y="289.9102"/><text fill="#000000" font-family="sans-serif" font-size="11" lengthAdjust="spacingAndGlyphs" textLength="138" x="440" y="296.5449">setNext(next department)</text><!--MD5=[b063bf3786638b0fe37bd83530b9b19e]
class responsibility.patient--><rect fill="#FEFECE" filter="url(#f155xz2qtmu0l5)" height="112.7754" id="responsibility.patient" style="stroke: #A80036; stroke-width: 1.5;" width="165" x="126.5" y="43"/><ellipse cx="184.75" cy="59" fill="#7FFFD4" rx="11" ry="11" style="stroke: #A80036; stroke-width: 1.0;"/><path d="M183.9834,60.063 Q182.1323,59.3574 181.4766,58.5813 Q180.8208,57.8052 180.8208,56.4937 Q180.8208,54.8086 181.8999,53.8457 Q182.979,52.8828 184.8633,52.8828 Q185.7183,52.8828 186.5732,53.0779 Q187.4282,53.2729 188.2666,53.6548 L188.2666,56.0454 Q187.478,55.4893 186.6646,55.1987 Q185.8511,54.9082 185.0542,54.9082 Q184.166,54.9082 183.6929,55.2651 Q183.2197,55.6221 183.2197,56.2861 Q183.2197,56.8008 183.5642,57.137 Q183.9087,57.4731 185.0044,57.8799 L186.0586,58.2783 Q187.5527,58.8262 188.2583,59.731 Q188.9639,60.6357 188.9639,62.0137 Q188.9639,63.8896 187.8557,64.8152 Q186.7476,65.7407 184.5063,65.7407 Q183.585,65.7407 182.6594,65.5208 Q181.7339,65.3008 180.8706,64.8691 L180.8706,62.3374 Q181.8501,63.0347 182.7673,63.375 Q183.6846,63.7153 184.5811,63.7153 Q185.4858,63.7153 185.9839,63.3044 Q186.4819,62.8936 186.4819,62.1548 Q186.4819,61.5986 186.1499,61.1794 Q185.8179,60.7603 185.187,60.5195 Z "/><text fill="#000000" font-family="sans-serif" font-size="12" lengthAdjust="spacingAndGlyphs" textLength="40" x="205.25" y="63.5352">patient</text><line style="stroke: #A80036; stroke-width: 1.5;" x1="127.5" x2="290.5" y1="75" y2="75"/><rect fill="none" height="6" style="stroke: #C82930; stroke-width: 1.0;" width="6" x="134.5" y="83"/><text fill="#000000" font-family="sans-serif" font-size="11" lengthAdjust="spacingAndGlyphs" textLength="64" x="146.5" y="89.6348">name string</text><rect fill="none" height="6" style="stroke: #C82930; stroke-width: 1.0;" width="6" x="134.5" y="95.9551"/><text fill="#000000" font-family="sans-serif" font-size="11" lengthAdjust="spacingAndGlyphs" textLength="118" x="146.5" y="102.5898">registrationDone bool</text><rect fill="none" height="6" style="stroke: #C82930; stroke-width: 1.0;" width="6" x="134.5" y="108.9102"/><text fill="#000000" font-family="sans-serif" font-size="11" lengthAdjust="spacingAndGlyphs" textLength="139" x="146.5" y="115.5449">doctorCheckUpDone bool</text><rect fill="none" height="6" style="stroke: #C82930; stroke-width: 1.0;" width="6" x="134.5" y="121.8652"/><text fill="#000000" font-family="sans-serif" font-size="11" lengthAdjust="spacingAndGlyphs" textLength="103" x="146.5" y="128.5">medicineDone bool</text><rect fill="none" height="6" style="stroke: #C82930; stroke-width: 1.0;" width="6" x="134.5" y="134.8203"/><text fill="#000000" font-family="sans-serif" font-size="11" lengthAdjust="spacingAndGlyphs" textLength="101" x="146.5" y="141.4551">paymentDone bool</text><line style="stroke: #A80036; stroke-width: 1.5;" x1="127.5" x2="290.5" y1="147.7754" y2="147.7754"/><!--MD5=[606122d217b5cccf1217381d72ecbc68]
class responsibility.reception--><rect fill="#FEFECE" filter="url(#f155xz2qtmu0l5)" height="86.8652" id="responsibility.reception" style="stroke: #A80036; stroke-width: 1.5;" width="164" x="619" y="216"/><ellipse cx="669.75" cy="232" fill="#7FFFD4" rx="11" ry="11" style="stroke: #A80036; stroke-width: 1.0;"/><path d="M668.9834,233.063 Q667.1323,232.3574 666.4766,231.5813 Q665.8208,230.8052 665.8208,229.4937 Q665.8208,227.8086 666.8999,226.8457 Q667.979,225.8828 669.8633,225.8828 Q670.7183,225.8828 671.5732,226.0779 Q672.4282,226.2729 673.2666,226.6548 L673.2666,229.0454 Q672.478,228.4893 671.6646,228.1987 Q670.8511,227.9082 670.0542,227.9082 Q669.166,227.9082 668.6929,228.2651 Q668.2197,228.6221 668.2197,229.2861 Q668.2197,229.8008 668.5642,230.137 Q668.9087,230.4731 670.0044,230.8799 L671.0586,231.2783 Q672.5527,231.8262 673.2583,232.731 Q673.9639,233.6357 673.9639,235.0137 Q673.9639,236.8896 672.8557,237.8152 Q671.7476,238.7407 669.5063,238.7407 Q668.585,238.7407 667.6594,238.5208 Q666.7339,238.3008 665.8706,237.8691 L665.8706,235.3374 Q666.8501,236.0347 667.7673,236.375 Q668.6846,236.7153 669.5811,236.7153 Q670.4858,236.7153 670.9839,236.3044 Q671.4819,235.8936 671.4819,235.1548 Q671.4819,234.5986 671.1499,234.1794 Q670.8179,233.7603 670.187,233.5195 Z "/><text fill="#000000" font-family="sans-serif" font-size="12" lengthAdjust="spacingAndGlyphs" textLength="54" x="690.25" y="236.5352">reception</text><line style="stroke: #A80036; stroke-width: 1.5;" x1="620" x2="782" y1="248" y2="248"/><rect fill="none" height="6" style="stroke: #C82930; stroke-width: 1.0;" width="6" x="627" y="256"/><text fill="#000000" font-family="sans-serif" font-size="11" lengthAdjust="spacingAndGlyphs" textLength="89" x="639" y="262.6348">next department</text><line style="stroke: #A80036; stroke-width: 1.5;" x1="620" x2="782" y1="268.9551" y2="268.9551"/><rect fill="#F24D5C" height="6" style="stroke: #C82930; stroke-width: 1.0;" width="6" x="627" y="276.9551"/><text fill="#000000" font-family="sans-serif" font-size="11" lengthAdjust="spacingAndGlyphs" textLength="102" x="639" y="283.5898">execute(p *patient)</text><rect fill="#F24D5C" height="6" style="stroke: #C82930; stroke-width: 1.0;" width="6" x="627" y="289.9102"/><text fill="#000000" font-family="sans-serif" font-size="11" lengthAdjust="spacingAndGlyphs" textLength="138" x="639" y="296.5449">setNext(next department)</text><!--MD5=[8e8336802e54ec6fb92fd3f1a639fa98]
reverse link responsibility.department to responsibility.cashier--><path d="M325.2441,146.7709 C319.7745,149.942 314.3205,153.0466 309,156 C269.0867,178.1553 223.8675,201.1968 186.0733,219.8997 " fill="none" id="responsibility.department&lt;-responsibility.cashier" style="stroke: #A80036; stroke-width: 1.0;"/><polygon fill="none" points="321.8397,140.652,342.6226,136.5203,328.9524,152.7106,321.8397,140.652" style="stroke: #A80036; stroke-width: 1.0;"/><!--MD5=[1897845a656f268b91d46fe165275d21]
reverse link responsibility.department to responsibility.doctor--><path d="M368.3277,153.9199 C355.8477,174.0896 341.8675,196.6838 330.0522,215.7793 " fill="none" id="responsibility.department&lt;-responsibility.doctor" style="stroke: #A80036; stroke-width: 1.0;"/><polygon fill="none" points="362.5624,149.9337,379.0386,136.6094,374.4677,157.3002,362.5624,149.9337" style="stroke: #A80036; stroke-width: 1.0;"/><!--MD5=[0659c8b67d341b6a9aee60206813cf9b]
reverse link responsibility.department to responsibility.medical--><path d="M435.8206,153.6129 C448.4751,173.8601 462.6793,196.5869 474.6746,215.7793 " fill="none" id="responsibility.department&lt;-responsibility.medical" style="stroke: #A80036; stroke-width: 1.0;"/><polygon fill="none" points="429.8574,157.2794,425.1934,136.6094,441.7294,149.8593,429.8574,157.2794" style="stroke: #A80036; stroke-width: 1.0;"/><!--MD5=[f7202d40474699d964fec230630626af]
reverse link responsibility.department to responsibility.reception--><path d="M489.0712,146.0933 C530.2506,168.1291 579.133,194.2869 619.5685,215.9246 " fill="none" id="responsibility.department&lt;-responsibility.reception" style="stroke: #A80036; stroke-width: 1.0;"/><polygon fill="none" points="485.6794,152.2176,471.3481,136.6094,492.2848,139.8738,485.6794,152.2176" style="stroke: #A80036; stroke-width: 1.0;"/><!--MD5=[e746b8f6f83d869c4587547c918fe03e]
@startuml
namespace responsibility {
    class cashier << (S,Aquamarine) >> {
        - next department

        - execute(p *patient) 
        - setNext(next department) 

    }
    interface department  {
        - execute( *patient) 
        - setNext( department) 

    }
    class doctor << (S,Aquamarine) >> {
        - next department

        - execute(p *patient) 
        - setNext(next department) 

    }
    class medical << (S,Aquamarine) >> {
        - next department

        - execute(p *patient) 
        - setNext(next department) 

    }
    class patient << (S,Aquamarine) >> {
        - name string
        - registrationDone bool
        - doctorCheckUpDone bool
        - medicineDone bool
        - paymentDone bool

    }
    class reception << (S,Aquamarine) >> {
        - next department

        - execute(p *patient) 
        - setNext(next department) 

    }
}

"responsibility.department" <|- - "responsibility.cashier"
"responsibility.department" <|- - "responsibility.doctor"
"responsibility.department" <|- - "responsibility.medical"
"responsibility.department" <|- - "responsibility.reception"

@enduml

PlantUML version 1.2020.10(Sun May 17 17:35:57 CST 2020)
(GPL source distribution)
Java Runtime: OpenJDK Runtime Environment
JVM: OpenJDK 64-Bit Server VM
Java Version: 1.8.0_222-b10
Operating System: Mac OS X
Default Encoding: US-ASCII
Language: en
Country: CN
--></g></svg>