<?xml version="1.0" encoding="UTF-8" standalone="no"?><svg xmlns="http://www.w3.org/2000/svg" xmlns:xlink="http://www.w3.org/1999/xlink" contentScriptType="application/ecmascript" contentStyleType="text/css" height="336px" preserveAspectRatio="none" style="width:434px;height:336px;" version="1.1" viewBox="0 0 434 336" width="434px" zoomAndPan="magnify"><defs><filter height="300%" id="fu4j8fz490zul" width="300%" x="-1" y="-1"><feGaussianBlur result="blurOut" stdDeviation="2.0"/><feColorMatrix in="blurOut" result="blurOut2" type="matrix" values="0 0 0 0 0 0 0 0 0 0 0 0 0 0 0 0 0 0 .4 0"/><feOffset dx="4.0" dy="4.0" in="blurOut2" result="blurOut3"/><feBlend in="SourceGraphic" in2="blurOut3" mode="normal"/></filter></defs><g><!--MD5=[06dfe497cb5a6c1e1445fd838a399f1a]
cluster strategy--><polygon fill="#FFFFFF" filter="url(#fu4j8fz490zul)" points="14,16,79,16,86,38.4883,412,38.4883,412,324,14,324,14,16" style="stroke: #000000; stroke-width: 1.5;"/><line style="stroke: #000000; stroke-width: 1.5;" x1="14" x2="86" y1="38.4883" y2="38.4883"/><text fill="#000000" font-family="sans-serif" font-size="14" font-weight="bold" lengthAdjust="spacingAndGlyphs" textLength="59" x="18" y="31.5352">strategy</text><!--MD5=[2ce75d9fa6289a39c961dffdd4c18f0e]
class strategy.cache--><rect fill="#FEFECE" filter="url(#fu4j8fz490zul)" height="151.6406" id="strategy.cache" style="stroke: #A80036; stroke-width: 1.5;" width="193" x="210.5" y="43"/><ellipse cx="286.25" cy="59" fill="#7FFFD4" rx="11" ry="11" style="stroke: #A80036; stroke-width: 1.0;"/><path d="M285.4834,60.063 Q283.6323,59.3574 282.9766,58.5813 Q282.3208,57.8052 282.3208,56.4937 Q282.3208,54.8086 283.3999,53.8457 Q284.479,52.8828 286.3633,52.8828 Q287.2183,52.8828 288.0732,53.0779 Q288.9282,53.2729 289.7666,53.6548 L289.7666,56.0454 Q288.978,55.4893 288.1646,55.1987 Q287.3511,54.9082 286.5542,54.9082 Q285.666,54.9082 285.1929,55.2651 Q284.7197,55.6221 284.7197,56.2861 Q284.7197,56.8008 285.0642,57.137 Q285.4087,57.4731 286.5044,57.8799 L287.5586,58.2783 Q289.0527,58.8262 289.7583,59.731 Q290.4639,60.6357 290.4639,62.0137 Q290.4639,63.8896 289.3557,64.8152 Q288.2476,65.7407 286.0063,65.7407 Q285.085,65.7407 284.1594,65.5208 Q283.2339,65.3008 282.3706,64.8691 L282.3706,62.3374 Q283.3501,63.0347 284.2673,63.375 Q285.1846,63.7153 286.0811,63.7153 Q286.9858,63.7153 287.4839,63.3044 Q287.9819,62.8936 287.9819,62.1548 Q287.9819,61.5986 287.6499,61.1794 Q287.3179,60.7603 286.687,60.5195 Z "/><text fill="#000000" font-family="sans-serif" font-size="12" lengthAdjust="spacingAndGlyphs" textLength="33" x="306.75" y="63.5352">cache</text><line style="stroke: #A80036; stroke-width: 1.5;" x1="211.5" x2="402.5" y1="75" y2="75"/><rect fill="none" height="6" style="stroke: #C82930; stroke-width: 1.0;" width="6" x="218.5" y="83"/><text fill="#000000" font-family="sans-serif" font-size="11" lengthAdjust="spacingAndGlyphs" textLength="41" x="230.5" y="89.6348">storage</text><text fill="#0000FF" font-family="sans-serif" font-size="11" lengthAdjust="spacingAndGlyphs" textLength="23" x="274.5" y="89.6348">map</text><text fill="#000000" font-family="sans-serif" font-size="11" lengthAdjust="spacingAndGlyphs" textLength="72" x="297.5" y="89.6348">[string]string</text><rect fill="none" height="6" style="stroke: #C82930; stroke-width: 1.0;" width="6" x="218.5" y="95.9551"/><text fill="#000000" font-family="sans-serif" font-size="11" lengthAdjust="spacingAndGlyphs" textLength="137" x="230.5" y="102.5898">evictionAlgo evictionAlgo</text><rect fill="none" height="6" style="stroke: #C82930; stroke-width: 1.0;" width="6" x="218.5" y="108.9102"/><text fill="#000000" font-family="sans-serif" font-size="11" lengthAdjust="spacingAndGlyphs" textLength="61" x="230.5" y="115.5449">capacity int</text><rect fill="none" height="6" style="stroke: #C82930; stroke-width: 1.0;" width="6" x="218.5" y="121.8652"/><text fill="#000000" font-family="sans-serif" font-size="11" lengthAdjust="spacingAndGlyphs" textLength="86" x="230.5" y="128.5">maxCapacity int</text><line style="stroke: #A80036; stroke-width: 1.5;" x1="211.5" x2="402.5" y1="134.8203" y2="134.8203"/><rect fill="#F24D5C" height="6" style="stroke: #C82930; stroke-width: 1.0;" width="6" x="218.5" y="142.8203"/><text fill="#000000" font-family="sans-serif" font-size="11" lengthAdjust="spacingAndGlyphs" textLength="167" x="230.5" y="149.4551">setEvictionAlgo(e evictionAlgo)</text><rect fill="#F24D5C" height="6" style="stroke: #C82930; stroke-width: 1.0;" width="6" x="218.5" y="155.7754"/><text fill="#000000" font-family="sans-serif" font-size="11" lengthAdjust="spacingAndGlyphs" textLength="150" x="230.5" y="162.4102">add(key string, value string)</text><rect fill="#F24D5C" height="6" style="stroke: #C82930; stroke-width: 1.0;" width="6" x="218.5" y="168.7305"/><text fill="#000000" font-family="sans-serif" font-size="11" lengthAdjust="spacingAndGlyphs" textLength="78" x="230.5" y="175.3652">get(key string)</text><rect fill="#F24D5C" height="6" style="stroke: #C82930; stroke-width: 1.0;" width="6" x="218.5" y="181.6855"/><text fill="#000000" font-family="sans-serif" font-size="11" lengthAdjust="spacingAndGlyphs" textLength="33" x="230.5" y="188.3203">evict()</text><!--MD5=[25db51b52d4067d8b20841ccec0f9989]
class strategy.evictionAlgo--><rect fill="#FEFECE" filter="url(#fu4j8fz490zul)" height="60.9551" id="strategy.evictionAlgo" style="stroke: #A80036; stroke-width: 1.5;" width="104" x="71" y="88.5"/><ellipse cx="87.8" cy="104.5" fill="#B4A7E5" rx="11" ry="11" style="stroke: #A80036; stroke-width: 1.0;"/><path d="M84.2277,100.7651 L84.2277,98.6069 L91.6071,98.6069 L91.6071,100.7651 L89.1418,100.7651 L89.1418,108.8418 L91.6071,108.8418 L91.6071,111 L84.2277,111 L84.2277,108.8418 L86.6931,108.8418 L86.6931,100.7651 Z "/><text fill="#000000" font-family="sans-serif" font-size="12" font-style="italic" lengthAdjust="spacingAndGlyphs" textLength="68" x="102.2" y="109.0352">evictionAlgo</text><line style="stroke: #A80036; stroke-width: 1.5;" x1="72" x2="174" y1="120.5" y2="120.5"/><line style="stroke: #A80036; stroke-width: 1.5;" x1="72" x2="174" y1="128.5" y2="128.5"/><rect fill="#F24D5C" height="6" style="stroke: #C82930; stroke-width: 1.0;" width="6" x="79" y="136.5"/><text fill="#000000" font-family="sans-serif" font-size="11" lengthAdjust="spacingAndGlyphs" textLength="78" x="91" y="143.1348">evict(c *cache)</text><!--MD5=[0b2bccd63ae0c420835202a822409236]
class strategy.fifo--><rect fill="#FEFECE" filter="url(#fu4j8fz490zul)" height="60.9551" id="strategy.fifo" style="stroke: #A80036; stroke-width: 1.5;" width="104" x="22" y="255"/><ellipse cx="61.3" cy="271" fill="#7FFFD4" rx="11" ry="11" style="stroke: #A80036; stroke-width: 1.0;"/><path d="M60.5334,272.063 Q58.6823,271.3574 58.0266,270.5813 Q57.3708,269.8052 57.3708,268.4937 Q57.3708,266.8086 58.4499,265.8457 Q59.529,264.8828 61.4133,264.8828 Q62.2683,264.8828 63.1232,265.0779 Q63.9782,265.2729 64.8166,265.6548 L64.8166,268.0454 Q64.028,267.4893 63.2146,267.1987 Q62.4011,266.9082 61.6042,266.9082 Q60.716,266.9082 60.2429,267.2651 Q59.7697,267.6221 59.7697,268.2861 Q59.7697,268.8008 60.1142,269.137 Q60.4587,269.4731 61.5544,269.8799 L62.6086,270.2783 Q64.1027,270.8262 64.8083,271.731 Q65.5139,272.6357 65.5139,274.0137 Q65.5139,275.8896 64.4057,276.8152 Q63.2976,277.7407 61.0563,277.7407 Q60.135,277.7407 59.2094,277.5208 Q58.2839,277.3008 57.4206,276.8691 L57.4206,274.3374 Q58.4001,275.0347 59.3173,275.375 Q60.2346,275.7153 61.1311,275.7153 Q62.0358,275.7153 62.5339,275.3044 Q63.0319,274.8936 63.0319,274.1548 Q63.0319,273.5986 62.6999,273.1794 Q62.3679,272.7603 61.737,272.5195 Z "/><text fill="#000000" font-family="sans-serif" font-size="12" lengthAdjust="spacingAndGlyphs" textLength="18" x="80.7" y="275.5352">fifo</text><line style="stroke: #A80036; stroke-width: 1.5;" x1="23" x2="125" y1="287" y2="287"/><line style="stroke: #A80036; stroke-width: 1.5;" x1="23" x2="125" y1="295" y2="295"/><rect fill="#F24D5C" height="6" style="stroke: #C82930; stroke-width: 1.0;" width="6" x="30" y="303"/><text fill="#000000" font-family="sans-serif" font-size="11" lengthAdjust="spacingAndGlyphs" textLength="78" x="42" y="309.6348">evict(c *cache)</text><!--MD5=[628b850c3ba55ede3012204baa4d1cad]
class strategy.lfu--><rect fill="#FEFECE" filter="url(#fu4j8fz490zul)" height="60.9551" id="strategy.lfu" style="stroke: #A80036; stroke-width: 1.5;" width="104" x="161" y="255"/><ellipse cx="202.1" cy="271" fill="#7FFFD4" rx="11" ry="11" style="stroke: #A80036; stroke-width: 1.0;"/><path d="M201.3334,272.063 Q199.4823,271.3574 198.8266,270.5813 Q198.1708,269.8052 198.1708,268.4937 Q198.1708,266.8086 199.2499,265.8457 Q200.329,264.8828 202.2133,264.8828 Q203.0683,264.8828 203.9232,265.0779 Q204.7782,265.2729 205.6166,265.6548 L205.6166,268.0454 Q204.828,267.4893 204.0146,267.1987 Q203.2011,266.9082 202.4042,266.9082 Q201.516,266.9082 201.0429,267.2651 Q200.5697,267.6221 200.5697,268.2861 Q200.5697,268.8008 200.9142,269.137 Q201.2587,269.4731 202.3544,269.8799 L203.4086,270.2783 Q204.9027,270.8262 205.6083,271.731 Q206.3139,272.6357 206.3139,274.0137 Q206.3139,275.8896 205.2057,276.8152 Q204.0976,277.7407 201.8563,277.7407 Q200.935,277.7407 200.0094,277.5208 Q199.0839,277.3008 198.2206,276.8691 L198.2206,274.3374 Q199.2001,275.0347 200.1173,275.375 Q201.0346,275.7153 201.9311,275.7153 Q202.8358,275.7153 203.3339,275.3044 Q203.8319,274.8936 203.8319,274.1548 Q203.8319,273.5986 203.4999,273.1794 Q203.1679,272.7603 202.537,272.5195 Z "/><text fill="#000000" font-family="sans-serif" font-size="12" lengthAdjust="spacingAndGlyphs" textLength="14" x="221.9" y="275.5352">lfu</text><line style="stroke: #A80036; stroke-width: 1.5;" x1="162" x2="264" y1="287" y2="287"/><line style="stroke: #A80036; stroke-width: 1.5;" x1="162" x2="264" y1="295" y2="295"/><rect fill="#F24D5C" height="6" style="stroke: #C82930; stroke-width: 1.0;" width="6" x="169" y="303"/><text fill="#000000" font-family="sans-serif" font-size="11" lengthAdjust="spacingAndGlyphs" textLength="78" x="181" y="309.6348">evict(c *cache)</text><!--MD5=[b249376c82da95b688ff2cf59fa4b432]
class strategy.lru--><rect fill="#FEFECE" filter="url(#fu4j8fz490zul)" height="60.9551" id="strategy.lru" style="stroke: #A80036; stroke-width: 1.5;" width="104" x="300" y="255"/><ellipse cx="340.65" cy="271" fill="#7FFFD4" rx="11" ry="11" style="stroke: #A80036; stroke-width: 1.0;"/><path d="M339.8834,272.063 Q338.0323,271.3574 337.3766,270.5813 Q336.7208,269.8052 336.7208,268.4937 Q336.7208,266.8086 337.7999,265.8457 Q338.879,264.8828 340.7633,264.8828 Q341.6183,264.8828 342.4732,265.0779 Q343.3282,265.2729 344.1666,265.6548 L344.1666,268.0454 Q343.378,267.4893 342.5646,267.1987 Q341.7511,266.9082 340.9542,266.9082 Q340.066,266.9082 339.5929,267.2651 Q339.1197,267.6221 339.1197,268.2861 Q339.1197,268.8008 339.4642,269.137 Q339.8087,269.4731 340.9044,269.8799 L341.9586,270.2783 Q343.4527,270.8262 344.1583,271.731 Q344.8639,272.6357 344.8639,274.0137 Q344.8639,275.8896 343.7557,276.8152 Q342.6476,277.7407 340.4063,277.7407 Q339.485,277.7407 338.5594,277.5208 Q337.6339,277.3008 336.7706,276.8691 L336.7706,274.3374 Q337.7501,275.0347 338.6673,275.375 Q339.5846,275.7153 340.4811,275.7153 Q341.3858,275.7153 341.8839,275.3044 Q342.3819,274.8936 342.3819,274.1548 Q342.3819,273.5986 342.0499,273.1794 Q341.7179,272.7603 341.087,272.5195 Z "/><text fill="#000000" font-family="sans-serif" font-size="12" lengthAdjust="spacingAndGlyphs" textLength="15" x="360.35" y="275.5352">lru</text><line style="stroke: #A80036; stroke-width: 1.5;" x1="301" x2="403" y1="287" y2="287"/><line style="stroke: #A80036; stroke-width: 1.5;" x1="301" x2="403" y1="295" y2="295"/><rect fill="#F24D5C" height="6" style="stroke: #C82930; stroke-width: 1.0;" width="6" x="308" y="303"/><text fill="#000000" font-family="sans-serif" font-size="11" lengthAdjust="spacingAndGlyphs" textLength="78" x="320" y="309.6348">evict(c *cache)</text><!--MD5=[0b0b22ac1539fe64030c3482f25c02c5]
reverse link strategy.evictionAlgo to strategy.fifo--><path d="M108.2753,169.0339 C100.0548,196.9668 90.0781,230.8674 83.0132,254.8735 " fill="none" id="strategy.evictionAlgo&lt;-strategy.fifo" style="stroke: #A80036; stroke-width: 1.0;"/><polygon fill="none" points="101.6509,166.7488,114.0126,149.5387,115.0814,170.7013,101.6509,166.7488" style="stroke: #A80036; stroke-width: 1.0;"/><!--MD5=[ed5c260ca06c5e654d13b1a2226a5d04]
reverse link strategy.evictionAlgo to strategy.lfu--><path d="M149.1652,167.4057 C164.4271,195.6401 183.2157,230.399 196.4451,254.8735 " fill="none" id="strategy.evictionAlgo&lt;-strategy.lfu" style="stroke: #A80036; stroke-width: 1.0;"/><polygon fill="none" points="142.8598,170.4614,139.5074,149.5387,155.1757,163.8042,142.8598,170.4614" style="stroke: #A80036; stroke-width: 1.0;"/><!--MD5=[e444178de47cef956825f1198d4c9a57]
reverse link strategy.evictionAlgo to strategy.lru--><path d="M160.857,164.7241 C170.7346,175.307 181.7757,186.0716 193,195 C225.936,221.199 267.3721,244.5217 299.6863,260.9272 " fill="none" id="strategy.evictionAlgo&lt;-strategy.lru" style="stroke: #A80036; stroke-width: 1.0;"/><polygon fill="none" points="155.4358,169.1627,147.332,149.5838,165.8765,159.8358,155.4358,169.1627" style="stroke: #A80036; stroke-width: 1.0;"/><!--MD5=[d8b4bd4c5dc2678e14ca16cd104e2335]
@startuml
namespace strategy {
    class cache << (S,Aquamarine) >> {
        - storage <font color=blue>map</font>[string]string
        - evictionAlgo evictionAlgo
        - capacity int
        - maxCapacity int

        - setEvictionAlgo(e evictionAlgo) 
        - add(key string, value string) 
        - get(key string) 
        - evict() 

    }
    interface evictionAlgo  {
        - evict(c *cache) 

    }
    class fifo << (S,Aquamarine) >> {
        - evict(c *cache) 

    }
    class lfu << (S,Aquamarine) >> {
        - evict(c *cache) 

    }
    class lru << (S,Aquamarine) >> {
        - evict(c *cache) 

    }
}

"strategy.evictionAlgo" <|- - "strategy.fifo"
"strategy.evictionAlgo" <|- - "strategy.lfu"
"strategy.evictionAlgo" <|- - "strategy.lru"

@enduml

PlantUML version 1.2020.10(Sun May 17 17:35:57 CST 2020)
(GPL source distribution)
Java Runtime: OpenJDK Runtime Environment
JVM: OpenJDK 64-Bit Server VM
Java Version: 1.8.0_222-b10
Operating System: Mac OS X
Default Encoding: US-ASCII
Language: en
Country: CN
--></g></svg>