<?xml version="1.0" encoding="UTF-8" standalone="no"?><svg xmlns="http://www.w3.org/2000/svg" xmlns:xlink="http://www.w3.org/1999/xlink" contentScriptType="application/ecmascript" contentStyleType="text/css" height="323px" preserveAspectRatio="none" style="width:511px;height:323px;" version="1.1" viewBox="0 0 511 323" width="511px" zoomAndPan="magnify"><defs><filter height="300%" id="fmlwbmmtnel2x" width="300%" x="-1" y="-1"><feGaussianBlur result="blurOut" stdDeviation="2.0"/><feColorMatrix in="blurOut" result="blurOut2" type="matrix" values="0 0 0 0 0 0 0 0 0 0 0 0 0 0 0 0 0 0 .4 0"/><feOffset dx="4.0" dy="4.0" in="blurOut2" result="blurOut3"/><feBlend in="SourceGraphic" in2="blurOut3" mode="normal"/></filter></defs><g><!--MD5=[1b4f2f8a35d98a5c29b215168645cba7]
cluster mediator--><polygon fill="#FFFFFF" filter="url(#fmlwbmmtnel2x)" points="14,16,85,16,92,38.4883,489,38.4883,489,311,14,311,14,16" style="stroke: #000000; stroke-width: 1.5;"/><line style="stroke: #000000; stroke-width: 1.5;" x1="14" x2="92" y1="38.4883" y2="38.4883"/><text fill="#000000" font-family="sans-serif" font-size="14" font-weight="bold" lengthAdjust="spacingAndGlyphs" textLength="65" x="18" y="31.5352">mediator</text><!--MD5=[e1db2d099b6a408393d3db87b467c1ed]
class mediator.goodsTrain--><rect fill="#FEFECE" filter="url(#fmlwbmmtnel2x)" height="99.8203" id="mediator.goodsTrain" style="stroke: #A80036; stroke-width: 1.5;" width="125" x="22.5" y="196.5"/><ellipse cx="50.1" cy="212.5" fill="#7FFFD4" rx="11" ry="11" style="stroke: #A80036; stroke-width: 1.0;"/><path d="M49.3334,213.563 Q47.4823,212.8574 46.8266,212.0813 Q46.1708,211.3052 46.1708,209.9937 Q46.1708,208.3086 47.2499,207.3457 Q48.329,206.3828 50.2133,206.3828 Q51.0683,206.3828 51.9232,206.5779 Q52.7782,206.7729 53.6166,207.1548 L53.6166,209.5454 Q52.828,208.9893 52.0146,208.6987 Q51.2011,208.4082 50.4042,208.4082 Q49.516,208.4082 49.0429,208.7651 Q48.5697,209.1221 48.5697,209.7861 Q48.5697,210.3008 48.9142,210.637 Q49.2587,210.9731 50.3544,211.3799 L51.4086,211.7783 Q52.9027,212.3262 53.6083,213.231 Q54.3139,214.1357 54.3139,215.5137 Q54.3139,217.3896 53.2057,218.3152 Q52.0976,219.2407 49.8563,219.2407 Q48.935,219.2407 48.0094,219.0208 Q47.0839,218.8008 46.2206,218.3691 L46.2206,215.8374 Q47.2001,216.5347 48.1173,216.875 Q49.0346,217.2153 49.9311,217.2153 Q50.8358,217.2153 51.3339,216.8044 Q51.8319,216.3936 51.8319,215.6548 Q51.8319,215.0986 51.4999,214.6794 Q51.1679,214.2603 50.537,214.0195 Z "/><text fill="#000000" font-family="sans-serif" font-size="12" lengthAdjust="spacingAndGlyphs" textLength="65" x="66.9" y="217.0352">goodsTrain</text><line style="stroke: #A80036; stroke-width: 1.5;" x1="23.5" x2="146.5" y1="228.5" y2="228.5"/><rect fill="none" height="6" style="stroke: #C82930; stroke-width: 1.0;" width="6" x="30.5" y="236.5"/><text fill="#000000" font-family="sans-serif" font-size="11" lengthAdjust="spacingAndGlyphs" textLength="99" x="42.5" y="243.1348">mediator mediator</text><line style="stroke: #A80036; stroke-width: 1.5;" x1="23.5" x2="146.5" y1="249.4551" y2="249.4551"/><rect fill="#F24D5C" height="6" style="stroke: #C82930; stroke-width: 1.0;" width="6" x="30.5" y="257.4551"/><text fill="#000000" font-family="sans-serif" font-size="11" lengthAdjust="spacingAndGlyphs" textLength="85" x="42.5" y="264.0898">requestArrival()</text><rect fill="#F24D5C" height="6" style="stroke: #C82930; stroke-width: 1.0;" width="6" x="30.5" y="270.4102"/><text fill="#000000" font-family="sans-serif" font-size="11" lengthAdjust="spacingAndGlyphs" textLength="61" x="42.5" y="277.0449">departure()</text><rect fill="#F24D5C" height="6" style="stroke: #C82930; stroke-width: 1.0;" width="6" x="30.5" y="283.3652"/><text fill="#000000" font-family="sans-serif" font-size="11" lengthAdjust="spacingAndGlyphs" textLength="79" x="42.5" y="290">permitArrival()</text><!--MD5=[b8e11aca2778dcaa4281e6c50f3cd357]
class mediator.mediator--><rect fill="#FEFECE" filter="url(#fmlwbmmtnel2x)" height="73.9102" id="mediator.mediator" style="stroke: #A80036; stroke-width: 1.5;" width="134" x="345" y="49.5"/><ellipse cx="382.5" cy="65.5" fill="#B4A7E5" rx="11" ry="11" style="stroke: #A80036; stroke-width: 1.0;"/><path d="M378.9277,61.7651 L378.9277,59.6069 L386.3071,59.6069 L386.3071,61.7651 L383.8418,61.7651 L383.8418,69.8418 L386.3071,69.8418 L386.3071,72 L378.9277,72 L378.9277,69.8418 L381.3931,69.8418 L381.3931,61.7651 Z "/><text fill="#000000" font-family="sans-serif" font-size="12" font-style="italic" lengthAdjust="spacingAndGlyphs" textLength="52" x="401.5" y="70.0352">mediator</text><line style="stroke: #A80036; stroke-width: 1.5;" x1="346" x2="478" y1="81.5" y2="81.5"/><line style="stroke: #A80036; stroke-width: 1.5;" x1="346" x2="478" y1="89.5" y2="89.5"/><rect fill="#F24D5C" height="6" style="stroke: #C82930; stroke-width: 1.0;" width="6" x="353" y="97.5"/><text fill="#000000" font-family="sans-serif" font-size="11" lengthAdjust="spacingAndGlyphs" textLength="108" x="365" y="104.1348">canLand( train) bool</text><rect fill="#F24D5C" height="6" style="stroke: #C82930; stroke-width: 1.0;" width="6" x="353" y="110.4551"/><text fill="#000000" font-family="sans-serif" font-size="11" lengthAdjust="spacingAndGlyphs" textLength="62" x="365" y="117.0898">notifyFree()</text><!--MD5=[97e2ac8b4588b7b1034e985242fcdd2c]
class mediator.passengerTrain--><rect fill="#FEFECE" filter="url(#fmlwbmmtnel2x)" height="99.8203" id="mediator.passengerTrain" style="stroke: #A80036; stroke-width: 1.5;" width="125" x="182.5" y="196.5"/><ellipse cx="198.85" cy="212.5" fill="#7FFFD4" rx="11" ry="11" style="stroke: #A80036; stroke-width: 1.0;"/><path d="M198.0834,213.563 Q196.2323,212.8574 195.5766,212.0813 Q194.9208,211.3052 194.9208,209.9937 Q194.9208,208.3086 195.9999,207.3457 Q197.079,206.3828 198.9633,206.3828 Q199.8183,206.3828 200.6732,206.5779 Q201.5282,206.7729 202.3666,207.1548 L202.3666,209.5454 Q201.578,208.9893 200.7646,208.6987 Q199.9511,208.4082 199.1542,208.4082 Q198.266,208.4082 197.7929,208.7651 Q197.3197,209.1221 197.3197,209.7861 Q197.3197,210.3008 197.6642,210.637 Q198.0087,210.9731 199.1044,211.3799 L200.1586,211.7783 Q201.6527,212.3262 202.3583,213.231 Q203.0639,214.1357 203.0639,215.5137 Q203.0639,217.3896 201.9557,218.3152 Q200.8476,219.2407 198.6063,219.2407 Q197.685,219.2407 196.7594,219.0208 Q195.8339,218.8008 194.9706,218.3691 L194.9706,215.8374 Q195.9501,216.5347 196.8673,216.875 Q197.7846,217.2153 198.6811,217.2153 Q199.5858,217.2153 200.0839,216.8044 Q200.5819,216.3936 200.5819,215.6548 Q200.5819,215.0986 200.2499,214.6794 Q199.9179,214.2603 199.287,214.0195 Z "/><text fill="#000000" font-family="sans-serif" font-size="12" lengthAdjust="spacingAndGlyphs" textLength="90" x="213.15" y="217.0352">passengerTrain</text><line style="stroke: #A80036; stroke-width: 1.5;" x1="183.5" x2="306.5" y1="228.5" y2="228.5"/><rect fill="none" height="6" style="stroke: #C82930; stroke-width: 1.0;" width="6" x="190.5" y="236.5"/><text fill="#000000" font-family="sans-serif" font-size="11" lengthAdjust="spacingAndGlyphs" textLength="99" x="202.5" y="243.1348">mediator mediator</text><line style="stroke: #A80036; stroke-width: 1.5;" x1="183.5" x2="306.5" y1="249.4551" y2="249.4551"/><rect fill="#F24D5C" height="6" style="stroke: #C82930; stroke-width: 1.0;" width="6" x="190.5" y="257.4551"/><text fill="#000000" font-family="sans-serif" font-size="11" lengthAdjust="spacingAndGlyphs" textLength="85" x="202.5" y="264.0898">requestArrival()</text><rect fill="#F24D5C" height="6" style="stroke: #C82930; stroke-width: 1.0;" width="6" x="190.5" y="270.4102"/><text fill="#000000" font-family="sans-serif" font-size="11" lengthAdjust="spacingAndGlyphs" textLength="61" x="202.5" y="277.0449">departure()</text><rect fill="#F24D5C" height="6" style="stroke: #C82930; stroke-width: 1.0;" width="6" x="190.5" y="283.3652"/><text fill="#000000" font-family="sans-serif" font-size="11" lengthAdjust="spacingAndGlyphs" textLength="79" x="202.5" y="290">permitArrival()</text><!--MD5=[9f11ef7fb30aeab3b4634be86776ebfd]
class mediator.stationManager--><rect fill="#FEFECE" filter="url(#fmlwbmmtnel2x)" height="112.7754" id="mediator.stationManager" style="stroke: #A80036; stroke-width: 1.5;" width="138" x="343" y="190"/><ellipse cx="366.1" cy="206" fill="#7FFFD4" rx="11" ry="11" style="stroke: #A80036; stroke-width: 1.0;"/><path d="M365.3334,207.063 Q363.4823,206.3574 362.8266,205.5813 Q362.1708,204.8052 362.1708,203.4937 Q362.1708,201.8086 363.2499,200.8457 Q364.329,199.8828 366.2133,199.8828 Q367.0683,199.8828 367.9232,200.0779 Q368.7782,200.2729 369.6166,200.6548 L369.6166,203.0454 Q368.828,202.4893 368.0146,202.1987 Q367.2011,201.9082 366.4042,201.9082 Q365.516,201.9082 365.0429,202.2651 Q364.5697,202.6221 364.5697,203.2861 Q364.5697,203.8008 364.9142,204.137 Q365.2587,204.4731 366.3544,204.8799 L367.4086,205.2783 Q368.9027,205.8262 369.6083,206.731 Q370.3139,207.6357 370.3139,209.0137 Q370.3139,210.8896 369.2057,211.8152 Q368.0976,212.7407 365.8563,212.7407 Q364.935,212.7407 364.0094,212.5208 Q363.0839,212.3008 362.2206,211.8691 L362.2206,209.3374 Q363.2001,210.0347 364.1173,210.375 Q365.0346,210.7153 365.9311,210.7153 Q366.8358,210.7153 367.3339,210.3044 Q367.8319,209.8936 367.8319,209.1548 Q367.8319,208.5986 367.4999,208.1794 Q367.1679,207.7603 366.537,207.5195 Z "/><text fill="#000000" font-family="sans-serif" font-size="12" lengthAdjust="spacingAndGlyphs" textLength="88" x="381.9" y="210.5352">stationManager</text><line style="stroke: #A80036; stroke-width: 1.5;" x1="344" x2="480" y1="222" y2="222"/><rect fill="none" height="6" style="stroke: #C82930; stroke-width: 1.0;" width="6" x="351" y="230"/><text fill="#000000" font-family="sans-serif" font-size="11" lengthAdjust="spacingAndGlyphs" textLength="104" x="363" y="236.6348">isPlatformFree bool</text><rect fill="none" height="6" style="stroke: #C82930; stroke-width: 1.0;" width="6" x="351" y="242.9551"/><text fill="#000000" font-family="sans-serif" font-size="11" lengthAdjust="spacingAndGlyphs" textLength="91" x="363" y="249.5898">lock *sync.Mutex</text><rect fill="none" height="6" style="stroke: #C82930; stroke-width: 1.0;" width="6" x="351" y="255.9102"/><text fill="#000000" font-family="sans-serif" font-size="11" lengthAdjust="spacingAndGlyphs" textLength="96" x="363" y="262.5449">trainQueue []train</text><line style="stroke: #A80036; stroke-width: 1.5;" x1="344" x2="480" y1="268.8652" y2="268.8652"/><rect fill="#F24D5C" height="6" style="stroke: #C82930; stroke-width: 1.0;" width="6" x="351" y="276.8652"/><text fill="#000000" font-family="sans-serif" font-size="11" lengthAdjust="spacingAndGlyphs" textLength="112" x="363" y="283.5">canLand(t train) bool</text><rect fill="#F24D5C" height="6" style="stroke: #C82930; stroke-width: 1.0;" width="6" x="351" y="289.8203"/><text fill="#000000" font-family="sans-serif" font-size="11" lengthAdjust="spacingAndGlyphs" textLength="62" x="363" y="296.4551">notifyFree()</text><!--MD5=[3ad64ce40f54586481c9fd254c4ce247]
class mediator.train--><rect fill="#FEFECE" filter="url(#fmlwbmmtnel2x)" height="86.8652" id="mediator.train" style="stroke: #A80036; stroke-width: 1.5;" width="111" x="109.5" y="43"/><ellipse cx="148.35" cy="59" fill="#B4A7E5" rx="11" ry="11" style="stroke: #A80036; stroke-width: 1.0;"/><path d="M144.7777,55.2651 L144.7777,53.1069 L152.1571,53.1069 L152.1571,55.2651 L149.6918,55.2651 L149.6918,63.3418 L152.1571,63.3418 L152.1571,65.5 L144.7777,65.5 L144.7777,63.3418 L147.2431,63.3418 L147.2431,55.2651 Z "/><text fill="#000000" font-family="sans-serif" font-size="12" font-style="italic" lengthAdjust="spacingAndGlyphs" textLength="26" x="167.65" y="63.5352">train</text><line style="stroke: #A80036; stroke-width: 1.5;" x1="110.5" x2="219.5" y1="75" y2="75"/><line style="stroke: #A80036; stroke-width: 1.5;" x1="110.5" x2="219.5" y1="83" y2="83"/><rect fill="#F24D5C" height="6" style="stroke: #C82930; stroke-width: 1.0;" width="6" x="117.5" y="91"/><text fill="#000000" font-family="sans-serif" font-size="11" lengthAdjust="spacingAndGlyphs" textLength="85" x="129.5" y="97.6348">requestArrival()</text><rect fill="#F24D5C" height="6" style="stroke: #C82930; stroke-width: 1.0;" width="6" x="117.5" y="103.9551"/><text fill="#000000" font-family="sans-serif" font-size="11" lengthAdjust="spacingAndGlyphs" textLength="61" x="129.5" y="110.5898">departure()</text><rect fill="#F24D5C" height="6" style="stroke: #C82930; stroke-width: 1.0;" width="6" x="117.5" y="116.9102"/><text fill="#000000" font-family="sans-serif" font-size="11" lengthAdjust="spacingAndGlyphs" textLength="79" x="129.5" y="123.5449">permitArrival()</text><!--MD5=[bd09e918852022a27ccbea8d730d65b1]
reverse link mediator.train to mediator.goodsTrain--><path d="M134.118,148.2641 C126.1652,164.1696 117.7045,181.0911 110.0862,196.3277 " fill="none" id="mediator.train&lt;-mediator.goodsTrain" style="stroke: #A80036; stroke-width: 1.0;"/><polygon fill="none" points="127.9343,144.9787,143.1396,130.2207,140.4563,151.2398,127.9343,144.9787" style="stroke: #A80036; stroke-width: 1.0;"/><!--MD5=[606694c2a80874cb80ebf7c924d976f6]
reverse link mediator.train to mediator.passengerTrain--><path d="M195.882,148.2641 C203.8348,164.1696 212.2955,181.0911 219.9138,196.3277 " fill="none" id="mediator.train&lt;-mediator.passengerTrain" style="stroke: #A80036; stroke-width: 1.0;"/><polygon fill="none" points="189.5437,151.2398,186.8604,130.2207,202.0657,144.9787,189.5437,151.2398" style="stroke: #A80036; stroke-width: 1.0;"/><!--MD5=[9d07ef1a78b3283fe7d1bf894e038b56]
reverse link mediator.mediator to mediator.stationManager--><path d="M412,143.7692 C412,158.7491 412,174.8885 412,189.8367 " fill="none" id="mediator.mediator&lt;-mediator.stationManager" style="stroke: #A80036; stroke-width: 1.0;"/><polygon fill="none" points="405.0001,143.6094,412,123.6094,419.0001,143.6093,405.0001,143.6094" style="stroke: #A80036; stroke-width: 1.0;"/><!--MD5=[2ef7772a794090a05e4fc36158eb7dae]
@startuml
namespace mediator {
    class goodsTrain << (S,Aquamarine) >> {
        - mediator mediator

        - requestArrival() 
        - departure() 
        - permitArrival() 

    }
    interface mediator  {
        - canLand( train) bool
        - notifyFree() 

    }
    class passengerTrain << (S,Aquamarine) >> {
        - mediator mediator

        - requestArrival() 
        - departure() 
        - permitArrival() 

    }
    class stationManager << (S,Aquamarine) >> {
        - isPlatformFree bool
        - lock *sync.Mutex
        - trainQueue []train

        - canLand(t train) bool
        - notifyFree() 

    }
    interface train  {
        - requestArrival() 
        - departure() 
        - permitArrival() 

    }
}

"mediator.train" <|- - "mediator.goodsTrain"
"mediator.train" <|- - "mediator.passengerTrain"
"mediator.mediator" <|- - "mediator.stationManager"

@enduml

PlantUML version 1.2020.10(Sun May 17 17:35:57 CST 2020)
(GPL source distribution)
Java Runtime: OpenJDK Runtime Environment
JVM: OpenJDK 64-Bit Server VM
Java Version: 1.8.0_222-b10
Operating System: Mac OS X
Default Encoding: US-ASCII
Language: en
Country: CN
--></g></svg>