<?xml version="1.0" encoding="UTF-8" standalone="no"?><svg xmlns="http://www.w3.org/2000/svg" xmlns:xlink="http://www.w3.org/1999/xlink" contentScriptType="application/ecmascript" contentStyleType="text/css" height="323px" preserveAspectRatio="none" style="width:433px;height:323px;" version="1.1" viewBox="0 0 433 323" width="433px" zoomAndPan="magnify"><defs><filter height="300%" id="f14n587vnjz700" width="300%" x="-1" y="-1"><feGaussianBlur result="blurOut" stdDeviation="2.0"/><feColorMatrix in="blurOut" result="blurOut2" type="matrix" values="0 0 0 0 0 0 0 0 0 0 0 0 0 0 0 0 0 0 .4 0"/><feOffset dx="4.0" dy="4.0" in="blurOut2" result="blurOut3"/><feBlend in="SourceGraphic" in2="blurOut3" mode="normal"/></filter></defs><g><!--MD5=[89f03097464c00b00d08f8bb1144c54e]
cluster memento--><polygon fill="#FFFFFF" filter="url(#f14n587vnjz700)" points="14,16,88,16,95,38.4883,411,38.4883,411,311,14,311,14,16" style="stroke: #000000; stroke-width: 1.5;"/><line style="stroke: #000000; stroke-width: 1.5;" x1="14" x2="95" y1="38.4883" y2="38.4883"/><text fill="#000000" font-family="sans-serif" font-size="14" font-weight="bold" lengthAdjust="spacingAndGlyphs" textLength="68" x="18" y="31.5352">memento</text><!--MD5=[5ce075ce329a01abd73a0096311a62cf]
class memento.caretaker--><rect fill="#FEFECE" filter="url(#f14n587vnjz700)" height="86.8652" id="memento.caretaker" style="stroke: #A80036; stroke-width: 1.5;" width="202" x="22" y="43"/><ellipse cx="91.25" cy="59" fill="#7FFFD4" rx="11" ry="11" style="stroke: #A80036; stroke-width: 1.0;"/><path d="M90.4834,60.063 Q88.6323,59.3574 87.9766,58.5813 Q87.3208,57.8052 87.3208,56.4937 Q87.3208,54.8086 88.3999,53.8457 Q89.479,52.8828 91.3633,52.8828 Q92.2183,52.8828 93.0732,53.0779 Q93.9282,53.2729 94.7666,53.6548 L94.7666,56.0454 Q93.978,55.4893 93.1646,55.1987 Q92.3511,54.9082 91.5542,54.9082 Q90.666,54.9082 90.1929,55.2651 Q89.7197,55.6221 89.7197,56.2861 Q89.7197,56.8008 90.0642,57.137 Q90.4087,57.4731 91.5044,57.8799 L92.5586,58.2783 Q94.0527,58.8262 94.7583,59.731 Q95.4639,60.6357 95.4639,62.0137 Q95.4639,63.8896 94.3557,64.8152 Q93.2476,65.7407 91.0063,65.7407 Q90.085,65.7407 89.1594,65.5208 Q88.2339,65.3008 87.3706,64.8691 L87.3706,62.3374 Q88.3501,63.0347 89.2673,63.375 Q90.1846,63.7153 91.0811,63.7153 Q91.9858,63.7153 92.4839,63.3044 Q92.9819,62.8936 92.9819,62.1548 Q92.9819,61.5986 92.6499,61.1794 Q92.3179,60.7603 91.687,60.5195 Z "/><text fill="#000000" font-family="sans-serif" font-size="12" lengthAdjust="spacingAndGlyphs" textLength="55" x="111.75" y="63.5352">caretaker</text><line style="stroke: #A80036; stroke-width: 1.5;" x1="23" x2="223" y1="75" y2="75"/><rect fill="none" height="6" style="stroke: #C82930; stroke-width: 1.0;" width="6" x="30" y="83"/><text fill="#000000" font-family="sans-serif" font-size="11" lengthAdjust="spacingAndGlyphs" textLength="146" x="42" y="89.6348">mementoArray []*memento</text><line style="stroke: #A80036; stroke-width: 1.5;" x1="23" x2="223" y1="95.9551" y2="95.9551"/><rect fill="#F24D5C" height="6" style="stroke: #C82930; stroke-width: 1.0;" width="6" x="30" y="103.9551"/><text fill="#000000" font-family="sans-serif" font-size="11" lengthAdjust="spacingAndGlyphs" textLength="145" x="42" y="110.5898">addMemento(m *memento)</text><rect fill="#F24D5C" height="6" style="stroke: #C82930; stroke-width: 1.0;" width="6" x="30" y="116.9102"/><text fill="#000000" font-family="sans-serif" font-size="11" lengthAdjust="spacingAndGlyphs" textLength="176" x="42" y="123.5449">getMenento(index int) *memento</text><!--MD5=[b9f9c5be23e15f9c1df894f803354ff7]
class memento.memento--><rect fill="#FEFECE" filter="url(#f14n587vnjz700)" height="73.9102" id="memento.memento" style="stroke: #A80036; stroke-width: 1.5;" width="143" x="259.5" y="49.5"/><ellipse cx="300.15" cy="65.5" fill="#7FFFD4" rx="11" ry="11" style="stroke: #A80036; stroke-width: 1.0;"/><path d="M299.3834,66.563 Q297.5323,65.8574 296.8766,65.0813 Q296.2208,64.3052 296.2208,62.9937 Q296.2208,61.3086 297.2999,60.3457 Q298.379,59.3828 300.2633,59.3828 Q301.1183,59.3828 301.9732,59.5779 Q302.8282,59.7729 303.6666,60.1548 L303.6666,62.5454 Q302.878,61.9893 302.0646,61.6987 Q301.2511,61.4082 300.4542,61.4082 Q299.566,61.4082 299.0929,61.7651 Q298.6197,62.1221 298.6197,62.7861 Q298.6197,63.3008 298.9642,63.637 Q299.3087,63.9731 300.4044,64.3799 L301.4586,64.7783 Q302.9527,65.3262 303.6583,66.231 Q304.3639,67.1357 304.3639,68.5137 Q304.3639,70.3896 303.2557,71.3152 Q302.1476,72.2407 299.9063,72.2407 Q298.985,72.2407 298.0594,72.0208 Q297.1339,71.8008 296.2706,71.3691 L296.2706,68.8374 Q297.2501,69.5347 298.1673,69.875 Q299.0846,70.2153 299.9811,70.2153 Q300.8858,70.2153 301.3839,69.8044 Q301.8819,69.3936 301.8819,68.6548 Q301.8819,68.0986 301.5499,67.6794 Q301.2179,67.2603 300.587,67.0195 Z "/><text fill="#000000" font-family="sans-serif" font-size="12" lengthAdjust="spacingAndGlyphs" textLength="54" x="319.85" y="70.0352">memento</text><line style="stroke: #A80036; stroke-width: 1.5;" x1="260.5" x2="401.5" y1="81.5" y2="81.5"/><rect fill="none" height="6" style="stroke: #C82930; stroke-width: 1.0;" width="6" x="267.5" y="89.5"/><text fill="#000000" font-family="sans-serif" font-size="11" lengthAdjust="spacingAndGlyphs" textLength="61" x="279.5" y="96.1348">state string</text><line style="stroke: #A80036; stroke-width: 1.5;" x1="260.5" x2="401.5" y1="102.4551" y2="102.4551"/><rect fill="#F24D5C" height="6" style="stroke: #C82930; stroke-width: 1.0;" width="6" x="267.5" y="110.4551"/><text fill="#000000" font-family="sans-serif" font-size="11" lengthAdjust="spacingAndGlyphs" textLength="117" x="279.5" y="117.0898">getSavedState() string</text><!--MD5=[b21de789bc707fe18057eb4101765895]
class memento.originator--><rect fill="#FEFECE" filter="url(#f14n587vnjz700)" height="112.7754" id="memento.originator" style="stroke: #A80036; stroke-width: 1.5;" width="191" x="27.5" y="190"/><ellipse cx="91.25" cy="206" fill="#7FFFD4" rx="11" ry="11" style="stroke: #A80036; stroke-width: 1.0;"/><path d="M90.4834,207.063 Q88.6323,206.3574 87.9766,205.5813 Q87.3208,204.8052 87.3208,203.4937 Q87.3208,201.8086 88.3999,200.8457 Q89.479,199.8828 91.3633,199.8828 Q92.2183,199.8828 93.0732,200.0779 Q93.9282,200.2729 94.7666,200.6548 L94.7666,203.0454 Q93.978,202.4893 93.1646,202.1987 Q92.3511,201.9082 91.5542,201.9082 Q90.666,201.9082 90.1929,202.2651 Q89.7197,202.6221 89.7197,203.2861 Q89.7197,203.8008 90.0642,204.137 Q90.4087,204.4731 91.5044,204.8799 L92.5586,205.2783 Q94.0527,205.8262 94.7583,206.731 Q95.4639,207.6357 95.4639,209.0137 Q95.4639,210.8896 94.3557,211.8152 Q93.2476,212.7407 91.0063,212.7407 Q90.085,212.7407 89.1594,212.5208 Q88.2339,212.3008 87.3706,211.8691 L87.3706,209.3374 Q88.3501,210.0347 89.2673,210.375 Q90.1846,210.7153 91.0811,210.7153 Q91.9858,210.7153 92.4839,210.3044 Q92.9819,209.8936 92.9819,209.1548 Q92.9819,208.5986 92.6499,208.1794 Q92.3179,207.7603 91.687,207.5195 Z "/><text fill="#000000" font-family="sans-serif" font-size="12" lengthAdjust="spacingAndGlyphs" textLength="55" x="111.75" y="210.5352">originator</text><line style="stroke: #A80036; stroke-width: 1.5;" x1="28.5" x2="217.5" y1="222" y2="222"/><rect fill="none" height="6" style="stroke: #C82930; stroke-width: 1.0;" width="6" x="35.5" y="230"/><text fill="#000000" font-family="sans-serif" font-size="11" lengthAdjust="spacingAndGlyphs" textLength="61" x="47.5" y="236.6348">state string</text><line style="stroke: #A80036; stroke-width: 1.5;" x1="28.5" x2="217.5" y1="242.9551" y2="242.9551"/><rect fill="#F24D5C" height="6" style="stroke: #C82930; stroke-width: 1.0;" width="6" x="35.5" y="250.9551"/><text fill="#000000" font-family="sans-serif" font-size="11" lengthAdjust="spacingAndGlyphs" textLength="148" x="47.5" y="257.5898">createMemento() *memento</text><rect fill="#F24D5C" height="6" style="stroke: #C82930; stroke-width: 1.0;" width="6" x="35.5" y="263.9102"/><text fill="#000000" font-family="sans-serif" font-size="11" lengthAdjust="spacingAndGlyphs" textLength="165" x="47.5" y="270.5449">restorememento(m *memento)</text><rect fill="#F24D5C" height="6" style="stroke: #C82930; stroke-width: 1.0;" width="6" x="35.5" y="276.8652"/><text fill="#000000" font-family="sans-serif" font-size="11" lengthAdjust="spacingAndGlyphs" textLength="111" x="47.5" y="283.5">setState(state string)</text><rect fill="#F24D5C" height="6" style="stroke: #C82930; stroke-width: 1.0;" width="6" x="35.5" y="289.8203"/><text fill="#000000" font-family="sans-serif" font-size="11" lengthAdjust="spacingAndGlyphs" textLength="86" x="47.5" y="296.4551">getState() string</text><!--MD5=[88827fe9ab3e632885f5b0b6eaff6702]
link memento.caretaker to memento.memento--><!--MD5=[44885a72c2a9e389c2bbc66ca8b324e5]
link memento.caretaker to memento.originator--><!--MD5=[cfcd2048a14640cc2b5f4c17cb69bb60]
@startuml
namespace memento {
    class caretaker << (S,Aquamarine) >> {
        - mementoArray []*memento

        - addMemento(m *memento) 
        - getMenento(index int) *memento

    }
    class memento << (S,Aquamarine) >> {
        - state string

        - getSavedState() string

    }
    class originator << (S,Aquamarine) >> {
        - state string

        - createMemento() *memento
        - restorememento(m *memento) 
        - setState(state string) 
        - getState() string

    }
}


@enduml

PlantUML version 1.2020.10(Sun May 17 17:35:57 CST 2020)
(GPL source distribution)
Java Runtime: OpenJDK Runtime Environment
JVM: OpenJDK 64-Bit Server VM
Java Version: 1.8.0_222-b10
Operating System: Mac OS X
Default Encoding: US-ASCII
Language: en
Country: CN
--></g></svg>