<?xml version="1.0" encoding="UTF-8" standalone="no"?><svg xmlns="http://www.w3.org/2000/svg" xmlns:xlink="http://www.w3.org/1999/xlink" contentScriptType="application/ecmascript" contentStyleType="text/css" height="297px" preserveAspectRatio="none" style="width:470px;height:297px;" version="1.1" viewBox="0 0 470 297" width="470px" zoomAndPan="magnify"><defs><filter height="300%" id="f6d70ungpzwzm" width="300%" x="-1" y="-1"><feGaussianBlur result="blurOut" stdDeviation="2.0"/><feColorMatrix in="blurOut" result="blurOut2" type="matrix" values="0 0 0 0 0 0 0 0 0 0 0 0 0 0 0 0 0 0 .4 0"/><feOffset dx="4.0" dy="4.0" in="blurOut2" result="blurOut3"/><feBlend in="SourceGraphic" in2="blurOut3" mode="normal"/></filter></defs><g><!--MD5=[0ed13126c106e7c587d6bd4e148c8c92]
cluster iterator--><polygon fill="#FFFFFF" filter="url(#f6d70ungpzwzm)" points="14,16,74,16,81,38.4883,448,38.4883,448,285,14,285,14,16" style="stroke: #000000; stroke-width: 1.5;"/><line style="stroke: #000000; stroke-width: 1.5;" x1="14" x2="81" y1="38.4883" y2="38.4883"/><text fill="#000000" font-family="sans-serif" font-size="14" font-weight="bold" lengthAdjust="spacingAndGlyphs" textLength="54" x="18" y="31.5352">iterator</text><!--MD5=[4ceead4bf923ad932dc3b98a79ea96bf]
class iterator.collection--><rect fill="#FEFECE" filter="url(#f6d70ungpzwzm)" height="60.9551" id="iterator.collection" style="stroke: #A80036; stroke-width: 1.5;" width="150" x="290" y="49.5"/><ellipse cx="334.25" cy="65.5" fill="#B4A7E5" rx="11" ry="11" style="stroke: #A80036; stroke-width: 1.0;"/><path d="M330.6777,61.7651 L330.6777,59.6069 L338.0571,59.6069 L338.0571,61.7651 L335.5918,61.7651 L335.5918,69.8418 L338.0571,69.8418 L338.0571,72 L330.6777,72 L330.6777,69.8418 L333.1431,69.8418 L333.1431,61.7651 Z "/><text fill="#000000" font-family="sans-serif" font-size="12" font-style="italic" lengthAdjust="spacingAndGlyphs" textLength="53" x="354.75" y="70.0352">collection</text><line style="stroke: #A80036; stroke-width: 1.5;" x1="291" x2="439" y1="81.5" y2="81.5"/><line style="stroke: #A80036; stroke-width: 1.5;" x1="291" x2="439" y1="89.5" y2="89.5"/><rect fill="#F24D5C" height="6" style="stroke: #C82930; stroke-width: 1.0;" width="6" x="298" y="97.5"/><text fill="#000000" font-family="sans-serif" font-size="11" lengthAdjust="spacingAndGlyphs" textLength="124" x="310" y="104.1348">createIterator() iterator</text><!--MD5=[ed26f71334be7d04eac7f8ae4631d524]
class iterator.iterator--><rect fill="#FEFECE" filter="url(#f6d70ungpzwzm)" height="73.9102" id="iterator.iterator" style="stroke: #A80036; stroke-width: 1.5;" width="108" x="147" y="43"/><ellipse cx="177.3" cy="59" fill="#B4A7E5" rx="11" ry="11" style="stroke: #A80036; stroke-width: 1.0;"/><path d="M173.7277,55.2651 L173.7277,53.1069 L181.1071,53.1069 L181.1071,55.2651 L178.6418,55.2651 L178.6418,63.3418 L181.1071,63.3418 L181.1071,65.5 L173.7277,65.5 L173.7277,63.3418 L176.1931,63.3418 L176.1931,55.2651 Z "/><text fill="#000000" font-family="sans-serif" font-size="12" font-style="italic" lengthAdjust="spacingAndGlyphs" textLength="42" x="194.7" y="63.5352">iterator</text><line style="stroke: #A80036; stroke-width: 1.5;" x1="148" x2="254" y1="75" y2="75"/><line style="stroke: #A80036; stroke-width: 1.5;" x1="148" x2="254" y1="83" y2="83"/><rect fill="#F24D5C" height="6" style="stroke: #C82930; stroke-width: 1.0;" width="6" x="155" y="91"/><text fill="#000000" font-family="sans-serif" font-size="11" lengthAdjust="spacingAndGlyphs" textLength="79" x="167" y="97.6348">hasNext() bool</text><rect fill="#F24D5C" height="6" style="stroke: #C82930; stroke-width: 1.0;" width="6" x="155" y="103.9551"/><text fill="#000000" font-family="sans-serif" font-size="11" lengthAdjust="spacingAndGlyphs" textLength="82" x="167" y="110.5898">getNext() *user</text><!--MD5=[f36af86b1bf66349c89e7c4fc0ebc619]
class iterator.user--><rect fill="#FEFECE" filter="url(#f6d70ungpzwzm)" height="73.9102" id="iterator.user" style="stroke: #A80036; stroke-width: 1.5;" width="90" x="22" y="43"/><ellipse cx="51.85" cy="59" fill="#7FFFD4" rx="11" ry="11" style="stroke: #A80036; stroke-width: 1.0;"/><path d="M51.0834,60.063 Q49.2323,59.3574 48.5766,58.5813 Q47.9208,57.8052 47.9208,56.4937 Q47.9208,54.8086 48.9999,53.8457 Q50.079,52.8828 51.9633,52.8828 Q52.8183,52.8828 53.6732,53.0779 Q54.5282,53.2729 55.3666,53.6548 L55.3666,56.0454 Q54.578,55.4893 53.7646,55.1987 Q52.9511,54.9082 52.1542,54.9082 Q51.266,54.9082 50.7929,55.2651 Q50.3197,55.6221 50.3197,56.2861 Q50.3197,56.8008 50.6642,57.137 Q51.0087,57.4731 52.1044,57.8799 L53.1586,58.2783 Q54.6527,58.8262 55.3583,59.731 Q56.0639,60.6357 56.0639,62.0137 Q56.0639,63.8896 54.9557,64.8152 Q53.8476,65.7407 51.6063,65.7407 Q50.685,65.7407 49.7594,65.5208 Q48.8339,65.3008 47.9706,64.8691 L47.9706,62.3374 Q48.9501,63.0347 49.8673,63.375 Q50.7846,63.7153 51.6811,63.7153 Q52.5858,63.7153 53.0839,63.3044 Q53.5819,62.8936 53.5819,62.1548 Q53.5819,61.5986 53.2499,61.1794 Q52.9179,60.7603 52.287,60.5195 Z "/><text fill="#000000" font-family="sans-serif" font-size="12" lengthAdjust="spacingAndGlyphs" textLength="25" x="69.15" y="63.5352">user</text><line style="stroke: #A80036; stroke-width: 1.5;" x1="23" x2="111" y1="75" y2="75"/><rect fill="none" height="6" style="stroke: #C82930; stroke-width: 1.0;" width="6" x="30" y="83"/><text fill="#000000" font-family="sans-serif" font-size="11" lengthAdjust="spacingAndGlyphs" textLength="64" x="42" y="89.6348">name string</text><rect fill="none" height="6" style="stroke: #C82930; stroke-width: 1.0;" width="6" x="30" y="95.9551"/><text fill="#000000" font-family="sans-serif" font-size="11" lengthAdjust="spacingAndGlyphs" textLength="36" x="42" y="102.5898">age int</text><line style="stroke: #A80036; stroke-width: 1.5;" x1="23" x2="111" y1="108.9102" y2="108.9102"/><!--MD5=[7c36e1463fccb28de37a7892187f6fc4]
class iterator.userCollection--><rect fill="#FEFECE" filter="url(#f6d70ungpzwzm)" height="73.9102" id="iterator.userCollection" style="stroke: #A80036; stroke-width: 1.5;" width="150" x="290" y="190"/><ellipse cx="322.1" cy="206" fill="#7FFFD4" rx="11" ry="11" style="stroke: #A80036; stroke-width: 1.0;"/><path d="M321.3334,207.063 Q319.4823,206.3574 318.8266,205.5813 Q318.1708,204.8052 318.1708,203.4937 Q318.1708,201.8086 319.2499,200.8457 Q320.329,199.8828 322.2133,199.8828 Q323.0683,199.8828 323.9232,200.0779 Q324.7782,200.2729 325.6166,200.6548 L325.6166,203.0454 Q324.828,202.4893 324.0146,202.1987 Q323.2011,201.9082 322.4042,201.9082 Q321.516,201.9082 321.0429,202.2651 Q320.5697,202.6221 320.5697,203.2861 Q320.5697,203.8008 320.9142,204.137 Q321.2587,204.4731 322.3544,204.8799 L323.4086,205.2783 Q324.9027,205.8262 325.6083,206.731 Q326.3139,207.6357 326.3139,209.0137 Q326.3139,210.8896 325.2057,211.8152 Q324.0976,212.7407 321.8563,212.7407 Q320.935,212.7407 320.0094,212.5208 Q319.0839,212.3008 318.2206,211.8691 L318.2206,209.3374 Q319.2001,210.0347 320.1173,210.375 Q321.0346,210.7153 321.9311,210.7153 Q322.8358,210.7153 323.3339,210.3044 Q323.8319,209.8936 323.8319,209.1548 Q323.8319,208.5986 323.4999,208.1794 Q323.1679,207.7603 322.537,207.5195 Z "/><text fill="#000000" font-family="sans-serif" font-size="12" lengthAdjust="spacingAndGlyphs" textLength="80" x="339.9" y="210.5352">userCollection</text><line style="stroke: #A80036; stroke-width: 1.5;" x1="291" x2="439" y1="222" y2="222"/><rect fill="none" height="6" style="stroke: #C82930; stroke-width: 1.0;" width="6" x="298" y="230"/><text fill="#000000" font-family="sans-serif" font-size="11" lengthAdjust="spacingAndGlyphs" textLength="70" x="310" y="236.6348">users []*user</text><line style="stroke: #A80036; stroke-width: 1.5;" x1="291" x2="439" y1="242.9551" y2="242.9551"/><rect fill="#F24D5C" height="6" style="stroke: #C82930; stroke-width: 1.0;" width="6" x="298" y="250.9551"/><text fill="#000000" font-family="sans-serif" font-size="11" lengthAdjust="spacingAndGlyphs" textLength="124" x="310" y="257.5898">createIterator() iterator</text><!--MD5=[1c700e866efebbf93002893412161b93]
class iterator.userIterator--><rect fill="#FEFECE" filter="url(#f6d70ungpzwzm)" height="99.8203" id="iterator.userIterator" style="stroke: #A80036; stroke-width: 1.5;" width="108" x="147" y="177"/><ellipse cx="166.05" cy="193" fill="#7FFFD4" rx="11" ry="11" style="stroke: #A80036; stroke-width: 1.0;"/><path d="M165.2834,194.063 Q163.4323,193.3574 162.7766,192.5813 Q162.1208,191.8052 162.1208,190.4937 Q162.1208,188.8086 163.1999,187.8457 Q164.279,186.8828 166.1633,186.8828 Q167.0183,186.8828 167.8732,187.0779 Q168.7282,187.2729 169.5666,187.6548 L169.5666,190.0454 Q168.778,189.4893 167.9646,189.1987 Q167.1511,188.9082 166.3542,188.9082 Q165.466,188.9082 164.9929,189.2651 Q164.5197,189.6221 164.5197,190.2861 Q164.5197,190.8008 164.8642,191.137 Q165.2087,191.4731 166.3044,191.8799 L167.3586,192.2783 Q168.8527,192.8262 169.5583,193.731 Q170.2639,194.6357 170.2639,196.0137 Q170.2639,197.8896 169.1557,198.8152 Q168.0476,199.7407 165.8063,199.7407 Q164.885,199.7407 163.9594,199.5208 Q163.0339,199.3008 162.1706,198.8691 L162.1706,196.3374 Q163.1501,197.0347 164.0673,197.375 Q164.9846,197.7153 165.8811,197.7153 Q166.7858,197.7153 167.2839,197.3044 Q167.7819,196.8936 167.7819,196.1548 Q167.7819,195.5986 167.4499,195.1794 Q167.1179,194.7603 166.487,194.5195 Z "/><text fill="#000000" font-family="sans-serif" font-size="12" lengthAdjust="spacingAndGlyphs" textLength="67" x="180.95" y="197.5352">userIterator</text><line style="stroke: #A80036; stroke-width: 1.5;" x1="148" x2="254" y1="209" y2="209"/><rect fill="none" height="6" style="stroke: #C82930; stroke-width: 1.0;" width="6" x="155" y="217"/><text fill="#000000" font-family="sans-serif" font-size="11" lengthAdjust="spacingAndGlyphs" textLength="47" x="167" y="223.6348">index int</text><rect fill="none" height="6" style="stroke: #C82930; stroke-width: 1.0;" width="6" x="155" y="229.9551"/><text fill="#000000" font-family="sans-serif" font-size="11" lengthAdjust="spacingAndGlyphs" textLength="70" x="167" y="236.5898">users []*user</text><line style="stroke: #A80036; stroke-width: 1.5;" x1="148" x2="254" y1="242.9102" y2="242.9102"/><rect fill="#F24D5C" height="6" style="stroke: #C82930; stroke-width: 1.0;" width="6" x="155" y="250.9102"/><text fill="#000000" font-family="sans-serif" font-size="11" lengthAdjust="spacingAndGlyphs" textLength="79" x="167" y="257.5449">hasNext() bool</text><rect fill="#F24D5C" height="6" style="stroke: #C82930; stroke-width: 1.0;" width="6" x="155" y="263.8652"/><text fill="#000000" font-family="sans-serif" font-size="11" lengthAdjust="spacingAndGlyphs" textLength="82" x="167" y="270.5">getNext() *user</text><!--MD5=[9e3f293698e280104216348f7aae452f]
reverse link iterator.collection to iterator.userCollection--><path d="M365,131.0302 C365,150.4227 365,172.1241 365,189.9784 " fill="none" id="iterator.collection&lt;-iterator.userCollection" style="stroke: #A80036; stroke-width: 1.0;"/><polygon fill="none" points="358.0001,130.8161,365,110.816,372.0001,130.816,358.0001,130.8161" style="stroke: #A80036; stroke-width: 1.0;"/><!--MD5=[64cf12f15e6c411e10a559bdce0cacfe]
reverse link iterator.iterator to iterator.userIterator--><path d="M201,137.3863 C201,150.4191 201,164.1628 201,176.867 " fill="none" id="iterator.iterator&lt;-iterator.userIterator" style="stroke: #A80036; stroke-width: 1.0;"/><polygon fill="none" points="194.0001,137.0943,201,117.0943,208.0001,137.0943,194.0001,137.0943" style="stroke: #A80036; stroke-width: 1.0;"/><!--MD5=[8a8f7d721228fc2febb87c77400c20ee]
@startuml
namespace iterator {
    interface collection  {
        - createIterator() iterator

    }
    interface iterator  {
        - hasNext() bool
        - getNext() *user

    }
    class user << (S,Aquamarine) >> {
        - name string
        - age int

    }
    class userCollection << (S,Aquamarine) >> {
        - users []*user

        - createIterator() iterator

    }
    class userIterator << (S,Aquamarine) >> {
        - index int
        - users []*user

        - hasNext() bool
        - getNext() *user

    }
}

"iterator.collection" <|- - "iterator.userCollection"
"iterator.iterator" <|- - "iterator.userIterator"

@enduml

PlantUML version 1.2020.10(Sun May 17 17:35:57 CST 2020)
(GPL source distribution)
Java Runtime: OpenJDK Runtime Environment
JVM: OpenJDK 64-Bit Server VM
Java Version: 1.8.0_222-b10
Operating System: Mac OS X
Default Encoding: US-ASCII
Language: en
Country: CN
--></g></svg>