<?xml version="1.0" encoding="UTF-8" standalone="no"?><svg xmlns="http://www.w3.org/2000/svg" xmlns:xlink="http://www.w3.org/1999/xlink" contentScriptType="application/ecmascript" contentStyleType="text/css" height="111px" preserveAspectRatio="none" style="width:120px;height:111px;" version="1.1" viewBox="0 0 120 111" width="120px" zoomAndPan="magnify"><defs><filter height="300%" id="f1vqp1gphye05u" width="300%" x="-1" y="-1"><feGaussianBlur result="blurOut" stdDeviation="2.0"/><feColorMatrix in="blurOut" result="blurOut2" type="matrix" values="0 0 0 0 0 0 0 0 0 0 0 0 0 0 0 0 0 0 .4 0"/><feOffset dx="4.0" dy="4.0" in="blurOut2" result="blurOut3"/><feBlend in="SourceGraphic" in2="blurOut3" mode="normal"/></filter></defs><g><!--MD5=[fee2d322c1d61dc7a216edb77255c404]
cluster singleton--><polygon fill="#FFFFFF" filter="url(#f1vqp1gphye05u)" points="14,16,88,16,95,38.4883,98,38.4883,98,99,14,99,14,16" style="stroke: #000000; stroke-width: 1.5;"/><line style="stroke: #000000; stroke-width: 1.5;" x1="14" x2="95" y1="38.4883" y2="38.4883"/><text fill="#000000" font-family="sans-serif" font-size="14" font-weight="bold" lengthAdjust="spacingAndGlyphs" textLength="68" x="18" y="31.5352">singleton</text><!--MD5=[e3026c4041ab1f5cb42141cfc6170ab8]
class singleton.single--><rect fill="#FEFECE" filter="url(#f1vqp1gphye05u)" height="48" id="singleton.single" style="stroke: #A80036; stroke-width: 1.5;" width="65" x="23.5" y="43"/><ellipse cx="38.5" cy="59" fill="#7FFFD4" rx="11" ry="11" style="stroke: #A80036; stroke-width: 1.0;"/><path d="M37.7334,60.063 Q35.8823,59.3574 35.2266,58.5813 Q34.5708,57.8052 34.5708,56.4937 Q34.5708,54.8086 35.6499,53.8457 Q36.729,52.8828 38.6133,52.8828 Q39.4683,52.8828 40.3232,53.0779 Q41.1782,53.2729 42.0166,53.6548 L42.0166,56.0454 Q41.228,55.4893 40.4146,55.1987 Q39.6011,54.9082 38.8042,54.9082 Q37.916,54.9082 37.4429,55.2651 Q36.9697,55.6221 36.9697,56.2861 Q36.9697,56.8008 37.3142,57.137 Q37.6587,57.4731 38.7544,57.8799 L39.8086,58.2783 Q41.3027,58.8262 42.0083,59.731 Q42.7139,60.6357 42.7139,62.0137 Q42.7139,63.8896 41.6057,64.8152 Q40.4976,65.7407 38.2563,65.7407 Q37.335,65.7407 36.4094,65.5208 Q35.4839,65.3008 34.6206,64.8691 L34.6206,62.3374 Q35.6001,63.0347 36.5173,63.375 Q37.4346,63.7153 38.3311,63.7153 Q39.2358,63.7153 39.7339,63.3044 Q40.2319,62.8936 40.2319,62.1548 Q40.2319,61.5986 39.8999,61.1794 Q39.5679,60.7603 38.937,60.5195 Z "/><text fill="#000000" font-family="sans-serif" font-size="12" lengthAdjust="spacingAndGlyphs" textLength="33" x="52.5" y="63.5352">single</text><line style="stroke: #A80036; stroke-width: 1.5;" x1="24.5" x2="87.5" y1="75" y2="75"/><line style="stroke: #A80036; stroke-width: 1.5;" x1="24.5" x2="87.5" y1="83" y2="83"/><!--MD5=[cb4e893916348492dd5d76944cbba06e]
@startuml
namespace singleton {
    class single << (S,Aquamarine) >> {
    }
}


@enduml

PlantUML version 1.2020.10(Sun May 17 17:35:57 CST 2020)
(GPL source distribution)
Java Runtime: OpenJDK Runtime Environment
JVM: OpenJDK 64-Bit Server VM
Java Version: 1.8.0_222-b10
Operating System: Mac OS X
Default Encoding: US-ASCII
Language: en
Country: CN
--></g></svg>