<?xml version="1.0" encoding="UTF-8" standalone="no"?><svg xmlns="http://www.w3.org/2000/svg" xmlns:xlink="http://www.w3.org/1999/xlink" contentScriptType="application/ecmascript" contentStyleType="text/css" height="362px" preserveAspectRatio="none" style="width:508px;height:362px;" version="1.1" viewBox="0 0 508 362" width="508px" zoomAndPan="magnify"><defs><filter height="300%" id="f144knwuv1uwn0" width="300%" x="-1" y="-1"><feGaussianBlur result="blurOut" stdDeviation="2.0"/><feColorMatrix in="blurOut" result="blurOut2" type="matrix" values="0 0 0 0 0 0 0 0 0 0 0 0 0 0 0 0 0 0 .4 0"/><feOffset dx="4.0" dy="4.0" in="blurOut2" result="blurOut3"/><feBlend in="SourceGraphic" in2="blurOut3" mode="normal"/></filter></defs><g><!--MD5=[10791e4a4fa1a552707e3ba10d72d969]
cluster builder--><polygon fill="#FFFFFF" filter="url(#f144knwuv1uwn0)" points="14,16,71,16,78,38.4883,486,38.4883,486,350,14,350,14,16" style="stroke: #000000; stroke-width: 1.5;"/><line style="stroke: #000000; stroke-width: 1.5;" x1="14" x2="78" y1="38.4883" y2="38.4883"/><text fill="#000000" font-family="sans-serif" font-size="14" font-weight="bold" lengthAdjust="spacingAndGlyphs" textLength="51" x="18" y="31.5352">builder</text><!--MD5=[5588c9b32e015146eaaf10c5debbc104]
class builder.director--><rect fill="#FEFECE" filter="url(#f144knwuv1uwn0)" height="86.8652" id="builder.director" style="stroke: #A80036; stroke-width: 1.5;" width="137" x="340.5" y="49.5"/><ellipse cx="382.5" cy="65.5" fill="#7FFFD4" rx="11" ry="11" style="stroke: #A80036; stroke-width: 1.0;"/><path d="M381.7334,66.563 Q379.8823,65.8574 379.2266,65.0813 Q378.5708,64.3052 378.5708,62.9937 Q378.5708,61.3086 379.6499,60.3457 Q380.729,59.3828 382.6133,59.3828 Q383.4683,59.3828 384.3232,59.5779 Q385.1782,59.7729 386.0166,60.1548 L386.0166,62.5454 Q385.228,61.9893 384.4146,61.6987 Q383.6011,61.4082 382.8042,61.4082 Q381.916,61.4082 381.4429,61.7651 Q380.9697,62.1221 380.9697,62.7861 Q380.9697,63.3008 381.3142,63.637 Q381.6587,63.9731 382.7544,64.3799 L383.8086,64.7783 Q385.3027,65.3262 386.0083,66.231 Q386.7139,67.1357 386.7139,68.5137 Q386.7139,70.3896 385.6057,71.3152 Q384.4976,72.2407 382.2563,72.2407 Q381.335,72.2407 380.4094,72.0208 Q379.4839,71.8008 378.6206,71.3691 L378.6206,68.8374 Q379.6001,69.5347 380.5173,69.875 Q381.4346,70.2153 382.3311,70.2153 Q383.2358,70.2153 383.7339,69.8044 Q384.2319,69.3936 384.2319,68.6548 Q384.2319,68.0986 383.8999,67.6794 Q383.5679,67.2603 382.937,67.0195 Z "/><text fill="#000000" font-family="sans-serif" font-size="12" lengthAdjust="spacingAndGlyphs" textLength="45" x="402.5" y="70.0352">director</text><line style="stroke: #A80036; stroke-width: 1.5;" x1="341.5" x2="476.5" y1="81.5" y2="81.5"/><rect fill="none" height="6" style="stroke: #C82930; stroke-width: 1.0;" width="6" x="348.5" y="89.5"/><text fill="#000000" font-family="sans-serif" font-size="11" lengthAdjust="spacingAndGlyphs" textLength="81" x="360.5" y="96.1348">builder iBuilder</text><line style="stroke: #A80036; stroke-width: 1.5;" x1="341.5" x2="476.5" y1="102.4551" y2="102.4551"/><rect fill="#F24D5C" height="6" style="stroke: #C82930; stroke-width: 1.0;" width="6" x="348.5" y="110.4551"/><text fill="#000000" font-family="sans-serif" font-size="11" lengthAdjust="spacingAndGlyphs" textLength="111" x="360.5" y="117.0898">setBuilder(b iBuilder)</text><rect fill="#F24D5C" height="6" style="stroke: #C82930; stroke-width: 1.0;" width="6" x="348.5" y="123.4102"/><text fill="#000000" font-family="sans-serif" font-size="11" lengthAdjust="spacingAndGlyphs" textLength="105" x="360.5" y="130.0449">buildHouse() house</text><!--MD5=[bf108583c935dd81ccf45c8ebd19d256]
class builder.house--><rect fill="#FEFECE" filter="url(#f144knwuv1uwn0)" height="86.8652" id="builder.house" style="stroke: #A80036; stroke-width: 1.5;" width="127" x="178.5" y="49.5"/><ellipse cx="220.95" cy="65.5" fill="#7FFFD4" rx="11" ry="11" style="stroke: #A80036; stroke-width: 1.0;"/><path d="M220.1834,66.563 Q218.3323,65.8574 217.6766,65.0813 Q217.0208,64.3052 217.0208,62.9937 Q217.0208,61.3086 218.0999,60.3457 Q219.179,59.3828 221.0633,59.3828 Q221.9183,59.3828 222.7732,59.5779 Q223.6282,59.7729 224.4666,60.1548 L224.4666,62.5454 Q223.678,61.9893 222.8646,61.6987 Q222.0511,61.4082 221.2542,61.4082 Q220.366,61.4082 219.8929,61.7651 Q219.4197,62.1221 219.4197,62.7861 Q219.4197,63.3008 219.7642,63.637 Q220.1087,63.9731 221.2044,64.3799 L222.2586,64.7783 Q223.7527,65.3262 224.4583,66.231 Q225.1639,67.1357 225.1639,68.5137 Q225.1639,70.3896 224.0557,71.3152 Q222.9476,72.2407 220.7063,72.2407 Q219.785,72.2407 218.8594,72.0208 Q217.9339,71.8008 217.0706,71.3691 L217.0706,68.8374 Q218.0501,69.5347 218.9673,69.875 Q219.8846,70.2153 220.7811,70.2153 Q221.6858,70.2153 222.1839,69.8044 Q222.6819,69.3936 222.6819,68.6548 Q222.6819,68.0986 222.3499,67.6794 Q222.0179,67.2603 221.387,67.0195 Z "/><text fill="#000000" font-family="sans-serif" font-size="12" lengthAdjust="spacingAndGlyphs" textLength="34" x="241.05" y="70.0352">house</text><line style="stroke: #A80036; stroke-width: 1.5;" x1="179.5" x2="304.5" y1="81.5" y2="81.5"/><rect fill="none" height="6" style="stroke: #C82930; stroke-width: 1.0;" width="6" x="186.5" y="89.5"/><text fill="#000000" font-family="sans-serif" font-size="11" lengthAdjust="spacingAndGlyphs" textLength="101" x="198.5" y="96.1348">windowType string</text><rect fill="none" height="6" style="stroke: #C82930; stroke-width: 1.0;" width="6" x="186.5" y="102.4551"/><text fill="#000000" font-family="sans-serif" font-size="11" lengthAdjust="spacingAndGlyphs" textLength="87" x="198.5" y="109.0898">doorType string</text><rect fill="none" height="6" style="stroke: #C82930; stroke-width: 1.0;" width="6" x="186.5" y="115.4102"/><text fill="#000000" font-family="sans-serif" font-size="11" lengthAdjust="spacingAndGlyphs" textLength="43" x="198.5" y="122.0449">floor int</text><line style="stroke: #A80036; stroke-width: 1.5;" x1="179.5" x2="304.5" y1="128.3652" y2="128.3652"/><!--MD5=[7e3d77cdc09a702d90bc1ea56ccc22e9]
class builder.iBuilder--><rect fill="#FEFECE" filter="url(#f144knwuv1uwn0)" height="99.8203" id="builder.iBuilder" style="stroke: #A80036; stroke-width: 1.5;" width="121" x="22.5" y="43"/><ellipse cx="58.2" cy="59" fill="#B4A7E5" rx="11" ry="11" style="stroke: #A80036; stroke-width: 1.0;"/><path d="M54.6277,55.2651 L54.6277,53.1069 L62.0071,53.1069 L62.0071,55.2651 L59.5418,55.2651 L59.5418,63.3418 L62.0071,63.3418 L62.0071,65.5 L54.6277,65.5 L54.6277,63.3418 L57.0931,63.3418 L57.0931,55.2651 Z "/><text fill="#000000" font-family="sans-serif" font-size="12" font-style="italic" lengthAdjust="spacingAndGlyphs" textLength="43" x="76.8" y="63.5352">iBuilder</text><line style="stroke: #A80036; stroke-width: 1.5;" x1="23.5" x2="142.5" y1="75" y2="75"/><line style="stroke: #A80036; stroke-width: 1.5;" x1="23.5" x2="142.5" y1="83" y2="83"/><rect fill="#F24D5C" height="6" style="stroke: #C82930; stroke-width: 1.0;" width="6" x="30.5" y="91"/><text fill="#000000" font-family="sans-serif" font-size="11" lengthAdjust="spacingAndGlyphs" textLength="91" x="42.5" y="97.6348">setWindowType()</text><rect fill="#F24D5C" height="6" style="stroke: #C82930; stroke-width: 1.0;" width="6" x="30.5" y="103.9551"/><text fill="#000000" font-family="sans-serif" font-size="11" lengthAdjust="spacingAndGlyphs" textLength="77" x="42.5" y="110.5898">setDoorType()</text><rect fill="#F24D5C" height="6" style="stroke: #C82930; stroke-width: 1.0;" width="6" x="30.5" y="116.9102"/><text fill="#000000" font-family="sans-serif" font-size="11" lengthAdjust="spacingAndGlyphs" textLength="77" x="42.5" y="123.5449">setNumFloor()</text><rect fill="#F24D5C" height="6" style="stroke: #C82930; stroke-width: 1.0;" width="6" x="30.5" y="129.8652"/><text fill="#000000" font-family="sans-serif" font-size="11" lengthAdjust="spacingAndGlyphs" textLength="95" x="42.5" y="136.5">getHouse() house</text><!--MD5=[7884dcefdcdb7431ba5cbe52fda4cfcb]
class builder.iglooBuilder--><rect fill="#FEFECE" filter="url(#f144knwuv1uwn0)" height="138.6855" id="builder.iglooBuilder" style="stroke: #A80036; stroke-width: 1.5;" width="121" x="22.5" y="203"/><ellipse cx="47.4" cy="219" fill="#7FFFD4" rx="11" ry="11" style="stroke: #A80036; stroke-width: 1.0;"/><path d="M46.6334,220.063 Q44.7823,219.3574 44.1266,218.5813 Q43.4708,217.8052 43.4708,216.4937 Q43.4708,214.8086 44.5499,213.8457 Q45.629,212.8828 47.5133,212.8828 Q48.3683,212.8828 49.2232,213.0779 Q50.0782,213.2729 50.9166,213.6548 L50.9166,216.0454 Q50.128,215.4893 49.3146,215.1987 Q48.5011,214.9082 47.7042,214.9082 Q46.816,214.9082 46.3429,215.2651 Q45.8697,215.6221 45.8697,216.2861 Q45.8697,216.8008 46.2142,217.137 Q46.5587,217.4731 47.6544,217.8799 L48.7086,218.2783 Q50.2027,218.8262 50.9083,219.731 Q51.6139,220.6357 51.6139,222.0137 Q51.6139,223.8896 50.5057,224.8152 Q49.3976,225.7407 47.1563,225.7407 Q46.235,225.7407 45.3094,225.5208 Q44.3839,225.3008 43.5206,224.8691 L43.5206,222.3374 Q44.5001,223.0347 45.4173,223.375 Q46.3346,223.7153 47.2311,223.7153 Q48.1358,223.7153 48.6339,223.3044 Q49.1319,222.8936 49.1319,222.1548 Q49.1319,221.5986 48.7999,221.1794 Q48.4679,220.7603 47.837,220.5195 Z "/><text fill="#000000" font-family="sans-serif" font-size="12" lengthAdjust="spacingAndGlyphs" textLength="67" x="63.6" y="223.5352">iglooBuilder</text><line style="stroke: #A80036; stroke-width: 1.5;" x1="23.5" x2="142.5" y1="235" y2="235"/><rect fill="none" height="6" style="stroke: #C82930; stroke-width: 1.0;" width="6" x="30.5" y="243"/><text fill="#000000" font-family="sans-serif" font-size="11" lengthAdjust="spacingAndGlyphs" textLength="94" x="42.5" y="249.6348">widowType string</text><rect fill="none" height="6" style="stroke: #C82930; stroke-width: 1.0;" width="6" x="30.5" y="255.9551"/><text fill="#000000" font-family="sans-serif" font-size="11" lengthAdjust="spacingAndGlyphs" textLength="87" x="42.5" y="262.5898">doorType string</text><rect fill="none" height="6" style="stroke: #C82930; stroke-width: 1.0;" width="6" x="30.5" y="268.9102"/><text fill="#000000" font-family="sans-serif" font-size="11" lengthAdjust="spacingAndGlyphs" textLength="43" x="42.5" y="275.5449">floor int</text><line style="stroke: #A80036; stroke-width: 1.5;" x1="23.5" x2="142.5" y1="281.8652" y2="281.8652"/><rect fill="#F24D5C" height="6" style="stroke: #C82930; stroke-width: 1.0;" width="6" x="30.5" y="289.8652"/><text fill="#000000" font-family="sans-serif" font-size="11" lengthAdjust="spacingAndGlyphs" textLength="91" x="42.5" y="296.5">setWindowType()</text><rect fill="#F24D5C" height="6" style="stroke: #C82930; stroke-width: 1.0;" width="6" x="30.5" y="302.8203"/><text fill="#000000" font-family="sans-serif" font-size="11" lengthAdjust="spacingAndGlyphs" textLength="77" x="42.5" y="309.4551">setDoorType()</text><rect fill="#F24D5C" height="6" style="stroke: #C82930; stroke-width: 1.0;" width="6" x="30.5" y="315.7754"/><text fill="#000000" font-family="sans-serif" font-size="11" lengthAdjust="spacingAndGlyphs" textLength="77" x="42.5" y="322.4102">setNumFloor()</text><rect fill="#F24D5C" height="6" style="stroke: #C82930; stroke-width: 1.0;" width="6" x="30.5" y="328.7305"/><text fill="#000000" font-family="sans-serif" font-size="11" lengthAdjust="spacingAndGlyphs" textLength="95" x="42.5" y="335.3652">getHouse() house</text><!--MD5=[32f413054c20685238ede28cf1195315]
class builder.normalBuilder--><rect fill="#FEFECE" filter="url(#f144knwuv1uwn0)" height="138.6855" id="builder.normalBuilder" style="stroke: #A80036; stroke-width: 1.5;" width="121" x="178.5" y="203"/><ellipse cx="197.55" cy="219" fill="#7FFFD4" rx="11" ry="11" style="stroke: #A80036; stroke-width: 1.0;"/><path d="M196.7834,220.063 Q194.9323,219.3574 194.2766,218.5813 Q193.6208,217.8052 193.6208,216.4937 Q193.6208,214.8086 194.6999,213.8457 Q195.779,212.8828 197.6633,212.8828 Q198.5183,212.8828 199.3732,213.0779 Q200.2282,213.2729 201.0666,213.6548 L201.0666,216.0454 Q200.278,215.4893 199.4646,215.1987 Q198.6511,214.9082 197.8542,214.9082 Q196.966,214.9082 196.4929,215.2651 Q196.0197,215.6221 196.0197,216.2861 Q196.0197,216.8008 196.3642,217.137 Q196.7087,217.4731 197.8044,217.8799 L198.8586,218.2783 Q200.3527,218.8262 201.0583,219.731 Q201.7639,220.6357 201.7639,222.0137 Q201.7639,223.8896 200.6557,224.8152 Q199.5476,225.7407 197.3063,225.7407 Q196.385,225.7407 195.4594,225.5208 Q194.5339,225.3008 193.6706,224.8691 L193.6706,222.3374 Q194.6501,223.0347 195.5673,223.375 Q196.4846,223.7153 197.3811,223.7153 Q198.2858,223.7153 198.7839,223.3044 Q199.2819,222.8936 199.2819,222.1548 Q199.2819,221.5986 198.9499,221.1794 Q198.6179,220.7603 197.987,220.5195 Z "/><text fill="#000000" font-family="sans-serif" font-size="12" lengthAdjust="spacingAndGlyphs" textLength="80" x="212.45" y="223.5352">normalBuilder</text><line style="stroke: #A80036; stroke-width: 1.5;" x1="179.5" x2="298.5" y1="235" y2="235"/><rect fill="none" height="6" style="stroke: #C82930; stroke-width: 1.0;" width="6" x="186.5" y="243"/><text fill="#000000" font-family="sans-serif" font-size="11" lengthAdjust="spacingAndGlyphs" textLength="94" x="198.5" y="249.6348">widowType string</text><rect fill="none" height="6" style="stroke: #C82930; stroke-width: 1.0;" width="6" x="186.5" y="255.9551"/><text fill="#000000" font-family="sans-serif" font-size="11" lengthAdjust="spacingAndGlyphs" textLength="87" x="198.5" y="262.5898">doorType string</text><rect fill="none" height="6" style="stroke: #C82930; stroke-width: 1.0;" width="6" x="186.5" y="268.9102"/><text fill="#000000" font-family="sans-serif" font-size="11" lengthAdjust="spacingAndGlyphs" textLength="43" x="198.5" y="275.5449">floor int</text><line style="stroke: #A80036; stroke-width: 1.5;" x1="179.5" x2="298.5" y1="281.8652" y2="281.8652"/><rect fill="#F24D5C" height="6" style="stroke: #C82930; stroke-width: 1.0;" width="6" x="186.5" y="289.8652"/><text fill="#000000" font-family="sans-serif" font-size="11" lengthAdjust="spacingAndGlyphs" textLength="91" x="198.5" y="296.5">setWindowType()</text><rect fill="#F24D5C" height="6" style="stroke: #C82930; stroke-width: 1.0;" width="6" x="186.5" y="302.8203"/><text fill="#000000" font-family="sans-serif" font-size="11" lengthAdjust="spacingAndGlyphs" textLength="77" x="198.5" y="309.4551">setDoorType()</text><rect fill="#F24D5C" height="6" style="stroke: #C82930; stroke-width: 1.0;" width="6" x="186.5" y="315.7754"/><text fill="#000000" font-family="sans-serif" font-size="11" lengthAdjust="spacingAndGlyphs" textLength="77" x="198.5" y="322.4102">setNumFloor()</text><rect fill="#F24D5C" height="6" style="stroke: #C82930; stroke-width: 1.0;" width="6" x="186.5" y="328.7305"/><text fill="#000000" font-family="sans-serif" font-size="11" lengthAdjust="spacingAndGlyphs" textLength="95" x="198.5" y="335.3652">getHouse() house</text><!--MD5=[50d2ab9d3e5cdcbc655c139e09ba4fda]
reverse link builder.iBuilder to builder.iglooBuilder--><path d="M83,163.4546 C83,176.4509 83,190.0138 83,202.9822 " fill="none" id="builder.iBuilder&lt;-builder.iglooBuilder" style="stroke: #A80036; stroke-width: 1.0;"/><polygon fill="none" points="76.0001,163.0008,83,143.0008,90.0001,163.0007,76.0001,163.0008" style="stroke: #A80036; stroke-width: 1.0;"/><!--MD5=[48dc8e91c2ae9cea9240331ca710875d]
reverse link builder.iBuilder to builder.normalBuilder--><path d="M139.7683,158.32 C152.3922,172.8455 165.8192,188.2951 178.5834,202.9822 " fill="none" id="builder.iBuilder&lt;-builder.normalBuilder" style="stroke: #A80036; stroke-width: 1.0;"/><polygon fill="none" points="134.2906,162.6883,126.4547,143.0008,144.8577,153.5047,134.2906,162.6883" style="stroke: #A80036; stroke-width: 1.0;"/><!--MD5=[8d0974b80c95718f012820afaa91157c]
@startuml
namespace builder {
    class director << (S,Aquamarine) >> {
        - builder iBuilder

        - setBuilder(b iBuilder) 
        - buildHouse() house

    }
    class house << (S,Aquamarine) >> {
        - windowType string
        - doorType string
        - floor int

    }
    interface iBuilder  {
        - setWindowType() 
        - setDoorType() 
        - setNumFloor() 
        - getHouse() house

    }
    class iglooBuilder << (S,Aquamarine) >> {
        - widowType string
        - doorType string
        - floor int

        - setWindowType() 
        - setDoorType() 
        - setNumFloor() 
        - getHouse() house

    }
    class normalBuilder << (S,Aquamarine) >> {
        - widowType string
        - doorType string
        - floor int

        - setWindowType() 
        - setDoorType() 
        - setNumFloor() 
        - getHouse() house

    }
}

"builder.iBuilder" <|- - "builder.iglooBuilder"
"builder.iBuilder" <|- - "builder.normalBuilder"

@enduml

PlantUML version 1.2020.10(Sun May 17 17:35:57 CST 2020)
(GPL source distribution)
Java Runtime: OpenJDK Runtime Environment
JVM: OpenJDK 64-Bit Server VM
Java Version: 1.8.0_222-b10
Operating System: Mac OS X
Default Encoding: US-ASCII
Language: en
Country: CN
--></g></svg>