<?xml version="1.0" encoding="UTF-8" standalone="no"?><svg xmlns="http://www.w3.org/2000/svg" xmlns:xlink="http://www.w3.org/1999/xlink" contentScriptType="application/ecmascript" contentStyleType="text/css" height="323px" preserveAspectRatio="none" style="width:902px;height:323px;" version="1.1" viewBox="0 0 902 323" width="902px" zoomAndPan="magnify"><defs><filter height="300%" id="fmirih217m6jp" width="300%" x="-1" y="-1"><feGaussianBlur result="blurOut" stdDeviation="2.0"/><feColorMatrix in="blurOut" result="blurOut2" type="matrix" values="0 0 0 0 0 0 0 0 0 0 0 0 0 0 0 0 0 0 .4 0"/><feOffset dx="4.0" dy="4.0" in="blurOut2" result="blurOut3"/><feBlend in="SourceGraphic" in2="blurOut3" mode="normal"/></filter></defs><g><!--MD5=[91b106db54bd4d838616790276e7e893]
cluster vistor--><polygon fill="#FFFFFF" filter="url(#fmirih217m6jp)" points="14,16,62,16,69,38.4883,880,38.4883,880,311,14,311,14,16" style="stroke: #000000; stroke-width: 1.5;"/><line style="stroke: #000000; stroke-width: 1.5;" x1="14" x2="69" y1="38.4883" y2="38.4883"/><text fill="#000000" font-family="sans-serif" font-size="14" font-weight="bold" lengthAdjust="spacingAndGlyphs" textLength="42" x="18" y="31.5352">vistor</text><!--MD5=[5ecb143e81d5141489e207565dbf7233]
class vistor.areaCalculator--><rect fill="#FEFECE" filter="url(#fmirih217m6jp)" height="99.8203" id="vistor.areaCalculator" style="stroke: #A80036; stroke-width: 1.5;" width="188" x="22" y="196.5"/><ellipse cx="70.25" cy="212.5" fill="#7FFFD4" rx="11" ry="11" style="stroke: #A80036; stroke-width: 1.0;"/><path d="M69.4834,213.563 Q67.6323,212.8574 66.9766,212.0813 Q66.3208,211.3052 66.3208,209.9937 Q66.3208,208.3086 67.3999,207.3457 Q68.479,206.3828 70.3633,206.3828 Q71.2183,206.3828 72.0732,206.5779 Q72.9282,206.7729 73.7666,207.1548 L73.7666,209.5454 Q72.978,208.9893 72.1646,208.6987 Q71.3511,208.4082 70.5542,208.4082 Q69.666,208.4082 69.1929,208.7651 Q68.7197,209.1221 68.7197,209.7861 Q68.7197,210.3008 69.0642,210.637 Q69.4087,210.9731 70.5044,211.3799 L71.5586,211.7783 Q73.0527,212.3262 73.7583,213.231 Q74.4639,214.1357 74.4639,215.5137 Q74.4639,217.3896 73.3557,218.3152 Q72.2476,219.2407 70.0063,219.2407 Q69.085,219.2407 68.1594,219.0208 Q67.2339,218.8008 66.3706,218.3691 L66.3706,215.8374 Q67.3501,216.5347 68.2673,216.875 Q69.1846,217.2153 70.0811,217.2153 Q70.9858,217.2153 71.4839,216.8044 Q71.9819,216.3936 71.9819,215.6548 Q71.9819,215.0986 71.6499,214.6794 Q71.3179,214.2603 70.687,214.0195 Z "/><text fill="#000000" font-family="sans-serif" font-size="12" lengthAdjust="spacingAndGlyphs" textLength="83" x="90.75" y="217.0352">areaCalculator</text><line style="stroke: #A80036; stroke-width: 1.5;" x1="23" x2="209" y1="228.5" y2="228.5"/><rect fill="none" height="6" style="stroke: #C82930; stroke-width: 1.0;" width="6" x="30" y="236.5"/><text fill="#000000" font-family="sans-serif" font-size="11" lengthAdjust="spacingAndGlyphs" textLength="40" x="42" y="243.1348">area int</text><line style="stroke: #A80036; stroke-width: 1.5;" x1="23" x2="209" y1="249.4551" y2="249.4551"/><rect fill="#F24D5C" height="6" style="stroke: #C82930; stroke-width: 1.0;" width="6" x="30" y="257.4551"/><text fill="#000000" font-family="sans-serif" font-size="11" lengthAdjust="spacingAndGlyphs" textLength="136" x="42" y="264.0898">visitForSquare(s *square)</text><rect fill="#F24D5C" height="6" style="stroke: #C82930; stroke-width: 1.0;" width="6" x="30" y="270.4102"/><text fill="#000000" font-family="sans-serif" font-size="11" lengthAdjust="spacingAndGlyphs" textLength="122" x="42" y="277.0449">visitForCircle(s *circle)</text><rect fill="#F24D5C" height="6" style="stroke: #C82930; stroke-width: 1.0;" width="6" x="30" y="283.3652"/><text fill="#000000" font-family="sans-serif" font-size="11" lengthAdjust="spacingAndGlyphs" textLength="162" x="42" y="290">visitForrectangle(s *rectangle)</text><!--MD5=[372cb0cc5b8304a1a3c2746c1b2e5430]
class vistor.circle--><rect fill="#FEFECE" filter="url(#fmirih217m6jp)" height="86.8652" id="vistor.circle" style="stroke: #A80036; stroke-width: 1.5;" width="112" x="466" y="203"/><ellipse cx="503.5" cy="219" fill="#7FFFD4" rx="11" ry="11" style="stroke: #A80036; stroke-width: 1.0;"/><path d="M502.7334,220.063 Q500.8823,219.3574 500.2266,218.5813 Q499.5708,217.8052 499.5708,216.4937 Q499.5708,214.8086 500.6499,213.8457 Q501.729,212.8828 503.6133,212.8828 Q504.4683,212.8828 505.3232,213.0779 Q506.1782,213.2729 507.0166,213.6548 L507.0166,216.0454 Q506.228,215.4893 505.4146,215.1987 Q504.6011,214.9082 503.8042,214.9082 Q502.916,214.9082 502.4429,215.2651 Q501.9697,215.6221 501.9697,216.2861 Q501.9697,216.8008 502.3142,217.137 Q502.6587,217.4731 503.7544,217.8799 L504.8086,218.2783 Q506.3027,218.8262 507.0083,219.731 Q507.7139,220.6357 507.7139,222.0137 Q507.7139,223.8896 506.6057,224.8152 Q505.4976,225.7407 503.2563,225.7407 Q502.335,225.7407 501.4094,225.5208 Q500.4839,225.3008 499.6206,224.8691 L499.6206,222.3374 Q500.6001,223.0347 501.5173,223.375 Q502.4346,223.7153 503.3311,223.7153 Q504.2358,223.7153 504.7339,223.3044 Q505.2319,222.8936 505.2319,222.1548 Q505.2319,221.5986 504.8999,221.1794 Q504.5679,220.7603 503.937,220.5195 Z "/><text fill="#000000" font-family="sans-serif" font-size="12" lengthAdjust="spacingAndGlyphs" textLength="30" x="522.5" y="223.5352">circle</text><line style="stroke: #A80036; stroke-width: 1.5;" x1="467" x2="577" y1="235" y2="235"/><rect fill="none" height="6" style="stroke: #C82930; stroke-width: 1.0;" width="6" x="474" y="243"/><text fill="#000000" font-family="sans-serif" font-size="11" lengthAdjust="spacingAndGlyphs" textLength="51" x="486" y="249.6348">radius int</text><line style="stroke: #A80036; stroke-width: 1.5;" x1="467" x2="577" y1="255.9551" y2="255.9551"/><rect fill="#F24D5C" height="6" style="stroke: #C82930; stroke-width: 1.0;" width="6" x="474" y="263.9551"/><text fill="#000000" font-family="sans-serif" font-size="11" lengthAdjust="spacingAndGlyphs" textLength="86" x="486" y="270.5898">accept(v visitor)</text><rect fill="#F24D5C" height="6" style="stroke: #C82930; stroke-width: 1.0;" width="6" x="474" y="276.9102"/><text fill="#000000" font-family="sans-serif" font-size="11" lengthAdjust="spacingAndGlyphs" textLength="86" x="486" y="283.5449">getType() string</text><!--MD5=[91d03412d5cce302d22310d0d2e323c6]
class vistor.middleCoordinates--><rect fill="#FEFECE" filter="url(#fmirih217m6jp)" height="112.7754" id="vistor.middleCoordinates" style="stroke: #A80036; stroke-width: 1.5;" width="186" x="245" y="190"/><ellipse cx="280.25" cy="206" fill="#7FFFD4" rx="11" ry="11" style="stroke: #A80036; stroke-width: 1.0;"/><path d="M279.4834,207.063 Q277.6323,206.3574 276.9766,205.5813 Q276.3208,204.8052 276.3208,203.4937 Q276.3208,201.8086 277.3999,200.8457 Q278.479,199.8828 280.3633,199.8828 Q281.2183,199.8828 282.0732,200.0779 Q282.9282,200.2729 283.7666,200.6548 L283.7666,203.0454 Q282.978,202.4893 282.1646,202.1987 Q281.3511,201.9082 280.5542,201.9082 Q279.666,201.9082 279.1929,202.2651 Q278.7197,202.6221 278.7197,203.2861 Q278.7197,203.8008 279.0642,204.137 Q279.4087,204.4731 280.5044,204.8799 L281.5586,205.2783 Q283.0527,205.8262 283.7583,206.731 Q284.4639,207.6357 284.4639,209.0137 Q284.4639,210.8896 283.3557,211.8152 Q282.2476,212.7407 280.0063,212.7407 Q279.085,212.7407 278.1594,212.5208 Q277.2339,212.3008 276.3706,211.8691 L276.3706,209.3374 Q277.3501,210.0347 278.2673,210.375 Q279.1846,210.7153 280.0811,210.7153 Q280.9858,210.7153 281.4839,210.3044 Q281.9819,209.8936 281.9819,209.1548 Q281.9819,208.5986 281.6499,208.1794 Q281.3179,207.7603 280.687,207.5195 Z "/><text fill="#000000" font-family="sans-serif" font-size="12" lengthAdjust="spacingAndGlyphs" textLength="109" x="298.75" y="210.5352">middleCoordinates</text><line style="stroke: #A80036; stroke-width: 1.5;" x1="246" x2="430" y1="222" y2="222"/><rect fill="none" height="6" style="stroke: #C82930; stroke-width: 1.0;" width="6" x="253" y="230"/><text fill="#000000" font-family="sans-serif" font-size="11" lengthAdjust="spacingAndGlyphs" textLength="24" x="265" y="236.6348">x int</text><rect fill="none" height="6" style="stroke: #C82930; stroke-width: 1.0;" width="6" x="253" y="242.9551"/><text fill="#000000" font-family="sans-serif" font-size="11" lengthAdjust="spacingAndGlyphs" textLength="23" x="265" y="249.5898">y int</text><line style="stroke: #A80036; stroke-width: 1.5;" x1="246" x2="430" y1="255.9102" y2="255.9102"/><rect fill="#F24D5C" height="6" style="stroke: #C82930; stroke-width: 1.0;" width="6" x="253" y="263.9102"/><text fill="#000000" font-family="sans-serif" font-size="11" lengthAdjust="spacingAndGlyphs" textLength="136" x="265" y="270.5449">visitForSquare(s *square)</text><rect fill="#F24D5C" height="6" style="stroke: #C82930; stroke-width: 1.0;" width="6" x="253" y="276.8652"/><text fill="#000000" font-family="sans-serif" font-size="11" lengthAdjust="spacingAndGlyphs" textLength="122" x="265" y="283.5">visitForCircle(c *circle)</text><rect fill="#F24D5C" height="6" style="stroke: #C82930; stroke-width: 1.0;" width="6" x="253" y="289.8203"/><text fill="#000000" font-family="sans-serif" font-size="11" lengthAdjust="spacingAndGlyphs" textLength="160" x="265" y="296.4551">visitForrectangle(t *rectangle)</text><!--MD5=[ffa230d87cff2ad99cb940bf338ecb18]
class vistor.rectangle--><rect fill="#FEFECE" filter="url(#fmirih217m6jp)" height="99.8203" id="vistor.rectangle" style="stroke: #A80036; stroke-width: 1.5;" width="112" x="613" y="196.5"/><ellipse cx="640.15" cy="212.5" fill="#7FFFD4" rx="11" ry="11" style="stroke: #A80036; stroke-width: 1.0;"/><path d="M639.3834,213.563 Q637.5323,212.8574 636.8766,212.0813 Q636.2208,211.3052 636.2208,209.9937 Q636.2208,208.3086 637.2999,207.3457 Q638.379,206.3828 640.2633,206.3828 Q641.1183,206.3828 641.9732,206.5779 Q642.8282,206.7729 643.6666,207.1548 L643.6666,209.5454 Q642.878,208.9893 642.0646,208.6987 Q641.2511,208.4082 640.4542,208.4082 Q639.566,208.4082 639.0929,208.7651 Q638.6197,209.1221 638.6197,209.7861 Q638.6197,210.3008 638.9642,210.637 Q639.3087,210.9731 640.4044,211.3799 L641.4586,211.7783 Q642.9527,212.3262 643.6583,213.231 Q644.3639,214.1357 644.3639,215.5137 Q644.3639,217.3896 643.2557,218.3152 Q642.1476,219.2407 639.9063,219.2407 Q638.985,219.2407 638.0594,219.0208 Q637.1339,218.8008 636.2706,218.3691 L636.2706,215.8374 Q637.2501,216.5347 638.1673,216.875 Q639.0846,217.2153 639.9811,217.2153 Q640.8858,217.2153 641.3839,216.8044 Q641.8819,216.3936 641.8819,215.6548 Q641.8819,215.0986 641.5499,214.6794 Q641.2179,214.2603 640.587,214.0195 Z "/><text fill="#000000" font-family="sans-serif" font-size="12" lengthAdjust="spacingAndGlyphs" textLength="53" x="656.85" y="217.0352">rectangle</text><line style="stroke: #A80036; stroke-width: 1.5;" x1="614" x2="724" y1="228.5" y2="228.5"/><rect fill="none" height="6" style="stroke: #C82930; stroke-width: 1.0;" width="6" x="621" y="236.5"/><text fill="#000000" font-family="sans-serif" font-size="11" lengthAdjust="spacingAndGlyphs" textLength="20" x="633" y="243.1348">l int</text><rect fill="none" height="6" style="stroke: #C82930; stroke-width: 1.0;" width="6" x="621" y="249.4551"/><text fill="#000000" font-family="sans-serif" font-size="11" lengthAdjust="spacingAndGlyphs" textLength="24" x="633" y="256.0898">b int</text><line style="stroke: #A80036; stroke-width: 1.5;" x1="614" x2="724" y1="262.4102" y2="262.4102"/><rect fill="#F24D5C" height="6" style="stroke: #C82930; stroke-width: 1.0;" width="6" x="621" y="270.4102"/><text fill="#000000" font-family="sans-serif" font-size="11" lengthAdjust="spacingAndGlyphs" textLength="86" x="633" y="277.0449">accept(v visitor)</text><rect fill="#F24D5C" height="6" style="stroke: #C82930; stroke-width: 1.0;" width="6" x="621" y="283.3652"/><text fill="#000000" font-family="sans-serif" font-size="11" lengthAdjust="spacingAndGlyphs" textLength="86" x="633" y="290">getType() string</text><!--MD5=[4496727b5be5dffbdac71d055861b0c6]
class vistor.shape--><rect fill="#FEFECE" filter="url(#fmirih217m6jp)" height="73.9102" id="vistor.shape" style="stroke: #A80036; stroke-width: 1.5;" width="112" x="613" y="49.5"/><ellipse cx="648.25" cy="65.5" fill="#B4A7E5" rx="11" ry="11" style="stroke: #A80036; stroke-width: 1.0;"/><path d="M644.6777,61.7651 L644.6777,59.6069 L652.0571,59.6069 L652.0571,61.7651 L649.5918,61.7651 L649.5918,69.8418 L652.0571,69.8418 L652.0571,72 L644.6777,72 L644.6777,69.8418 L647.1431,69.8418 L647.1431,61.7651 Z "/><text fill="#000000" font-family="sans-serif" font-size="12" font-style="italic" lengthAdjust="spacingAndGlyphs" textLength="35" x="666.75" y="70.0352">shape</text><line style="stroke: #A80036; stroke-width: 1.5;" x1="614" x2="724" y1="81.5" y2="81.5"/><line style="stroke: #A80036; stroke-width: 1.5;" x1="614" x2="724" y1="89.5" y2="89.5"/><rect fill="#F24D5C" height="6" style="stroke: #C82930; stroke-width: 1.0;" width="6" x="621" y="97.5"/><text fill="#000000" font-family="sans-serif" font-size="11" lengthAdjust="spacingAndGlyphs" textLength="86" x="633" y="104.1348">getType() string</text><rect fill="#F24D5C" height="6" style="stroke: #C82930; stroke-width: 1.0;" width="6" x="621" y="110.4551"/><text fill="#000000" font-family="sans-serif" font-size="11" lengthAdjust="spacingAndGlyphs" textLength="80" x="633" y="117.0898">accept( visitor)</text><!--MD5=[97e571a370bcb3d7ed67355e652561de]
class vistor.square--><rect fill="#FEFECE" filter="url(#fmirih217m6jp)" height="86.8652" id="vistor.square" style="stroke: #A80036; stroke-width: 1.5;" width="112" x="760" y="203"/><ellipse cx="793" cy="219" fill="#7FFFD4" rx="11" ry="11" style="stroke: #A80036; stroke-width: 1.0;"/><path d="M792.2334,220.063 Q790.3823,219.3574 789.7266,218.5813 Q789.0708,217.8052 789.0708,216.4937 Q789.0708,214.8086 790.1499,213.8457 Q791.229,212.8828 793.1133,212.8828 Q793.9683,212.8828 794.8232,213.0779 Q795.6782,213.2729 796.5166,213.6548 L796.5166,216.0454 Q795.728,215.4893 794.9146,215.1987 Q794.1011,214.9082 793.3042,214.9082 Q792.416,214.9082 791.9429,215.2651 Q791.4697,215.6221 791.4697,216.2861 Q791.4697,216.8008 791.8142,217.137 Q792.1587,217.4731 793.2544,217.8799 L794.3086,218.2783 Q795.8027,218.8262 796.5083,219.731 Q797.2139,220.6357 797.2139,222.0137 Q797.2139,223.8896 796.1057,224.8152 Q794.9976,225.7407 792.7563,225.7407 Q791.835,225.7407 790.9094,225.5208 Q789.9839,225.3008 789.1206,224.8691 L789.1206,222.3374 Q790.1001,223.0347 791.0173,223.375 Q791.9346,223.7153 792.8311,223.7153 Q793.7358,223.7153 794.2339,223.3044 Q794.7319,222.8936 794.7319,222.1548 Q794.7319,221.5986 794.3999,221.1794 Q794.0679,220.7603 793.437,220.5195 Z "/><text fill="#000000" font-family="sans-serif" font-size="12" lengthAdjust="spacingAndGlyphs" textLength="40" x="811" y="223.5352">square</text><line style="stroke: #A80036; stroke-width: 1.5;" x1="761" x2="871" y1="235" y2="235"/><rect fill="none" height="6" style="stroke: #C82930; stroke-width: 1.0;" width="6" x="768" y="243"/><text fill="#000000" font-family="sans-serif" font-size="11" lengthAdjust="spacingAndGlyphs" textLength="39" x="780" y="249.6348">side int</text><line style="stroke: #A80036; stroke-width: 1.5;" x1="761" x2="871" y1="255.9551" y2="255.9551"/><rect fill="#F24D5C" height="6" style="stroke: #C82930; stroke-width: 1.0;" width="6" x="768" y="263.9551"/><text fill="#000000" font-family="sans-serif" font-size="11" lengthAdjust="spacingAndGlyphs" textLength="86" x="780" y="270.5898">accept(v visitor)</text><rect fill="#F24D5C" height="6" style="stroke: #C82930; stroke-width: 1.0;" width="6" x="768" y="276.9102"/><text fill="#000000" font-family="sans-serif" font-size="11" lengthAdjust="spacingAndGlyphs" textLength="86" x="780" y="283.5449">getType() string</text><!--MD5=[2ee1962ef9a72bfb4fd6bff65fa758fd]
class vistor.visitor--><rect fill="#FEFECE" filter="url(#fmirih217m6jp)" height="86.8652" id="vistor.visitor" style="stroke: #A80036; stroke-width: 1.5;" width="182" x="136" y="43"/><ellipse cx="205.75" cy="59" fill="#B4A7E5" rx="11" ry="11" style="stroke: #A80036; stroke-width: 1.0;"/><path d="M202.1777,55.2651 L202.1777,53.1069 L209.5571,53.1069 L209.5571,55.2651 L207.0918,55.2651 L207.0918,63.3418 L209.5571,63.3418 L209.5571,65.5 L202.1777,65.5 L202.1777,63.3418 L204.6431,63.3418 L204.6431,55.2651 Z "/><text fill="#000000" font-family="sans-serif" font-size="12" font-style="italic" lengthAdjust="spacingAndGlyphs" textLength="34" x="226.25" y="63.5352">visitor</text><line style="stroke: #A80036; stroke-width: 1.5;" x1="137" x2="317" y1="75" y2="75"/><line style="stroke: #A80036; stroke-width: 1.5;" x1="137" x2="317" y1="83" y2="83"/><rect fill="#F24D5C" height="6" style="stroke: #C82930; stroke-width: 1.0;" width="6" x="144" y="91"/><text fill="#000000" font-family="sans-serif" font-size="11" lengthAdjust="spacingAndGlyphs" textLength="130" x="156" y="97.6348">visitForSquare( *square)</text><rect fill="#F24D5C" height="6" style="stroke: #C82930; stroke-width: 1.0;" width="6" x="144" y="103.9551"/><text fill="#000000" font-family="sans-serif" font-size="11" lengthAdjust="spacingAndGlyphs" textLength="116" x="156" y="110.5898">visitForCircle( *circle)</text><rect fill="#F24D5C" height="6" style="stroke: #C82930; stroke-width: 1.0;" width="6" x="144" y="116.9102"/><text fill="#000000" font-family="sans-serif" font-size="11" lengthAdjust="spacingAndGlyphs" textLength="156" x="156" y="123.5449">visitForrectangle( *rectangle)</text><!--MD5=[db696fccdc16de2399ca04eb5fc1268b]
reverse link vistor.visitor to vistor.areaCalculator--><path d="M185.2283,146.7114 C173.8835,163.0643 161.7221,180.5942 150.807,196.3277 " fill="none" id="vistor.visitor&lt;-vistor.areaCalculator" style="stroke: #A80036; stroke-width: 1.0;"/><polygon fill="none" points="179.517,142.6634,196.6688,130.2207,191.02,150.6436,179.517,142.6634" style="stroke: #A80036; stroke-width: 1.0;"/><!--MD5=[cb893563f15ec152f9de991461550fa9]
reverse link vistor.shape to vistor.circle--><path d="M621.2479,138.4751 C602.1621,159.2488 580.4248,182.9083 562.1684,202.7793 " fill="none" id="vistor.shape&lt;-vistor.circle" style="stroke: #A80036; stroke-width: 1.0;"/><polygon fill="none" points="616.2198,133.6013,634.9058,123.6094,626.5293,143.0731,616.2198,133.6013" style="stroke: #A80036; stroke-width: 1.0;"/><!--MD5=[682b39f37c06e9dc02184ad3bbd3a053]
reverse link vistor.visitor to vistor.middleCoordinates--><path d="M268.8852,146.875 C278.6752,160.9867 289.0676,175.9668 298.7386,189.9071 " fill="none" id="vistor.visitor&lt;-vistor.middleCoordinates" style="stroke: #A80036; stroke-width: 1.0;"/><polygon fill="none" points="262.98,150.6436,257.3312,130.2207,274.483,142.6634,262.98,150.6436" style="stroke: #A80036; stroke-width: 1.0;"/><!--MD5=[cd09288d39bfb3d2f5c57246a2cb802b]
reverse link vistor.shape to vistor.rectangle--><path d="M669,143.8711 C669,160.9959 669,179.6281 669,196.2592 " fill="none" id="vistor.shape&lt;-vistor.rectangle" style="stroke: #A80036; stroke-width: 1.0;"/><polygon fill="none" points="662.0001,143.6094,669,123.6094,676.0001,143.6093,662.0001,143.6094" style="stroke: #A80036; stroke-width: 1.0;"/><!--MD5=[36dda49d2cac96d564ec10438a0deb82]
reverse link vistor.shape to vistor.square--><path d="M716.7521,138.4751 C735.8379,159.2488 757.5752,182.9083 775.8316,202.7793 " fill="none" id="vistor.shape&lt;-vistor.square" style="stroke: #A80036; stroke-width: 1.0;"/><polygon fill="none" points="711.4707,143.0731,703.0942,123.6094,721.7802,133.6013,711.4707,143.0731" style="stroke: #A80036; stroke-width: 1.0;"/><!--MD5=[3a68f90a3bb686f440e7afc43c5d13e0]
@startuml
namespace vistor {
    class areaCalculator << (S,Aquamarine) >> {
        - area int

        - visitForSquare(s *square) 
        - visitForCircle(s *circle) 
        - visitForrectangle(s *rectangle) 

    }
    class circle << (S,Aquamarine) >> {
        - radius int

        - accept(v visitor) 
        - getType() string

    }
    class middleCoordinates << (S,Aquamarine) >> {
        - x int
        - y int

        - visitForSquare(s *square) 
        - visitForCircle(c *circle) 
        - visitForrectangle(t *rectangle) 

    }
    class rectangle << (S,Aquamarine) >> {
        - l int
        - b int

        - accept(v visitor) 
        - getType() string

    }
    interface shape  {
        - getType() string
        - accept( visitor) 

    }
    class square << (S,Aquamarine) >> {
        - side int

        - accept(v visitor) 
        - getType() string

    }
    interface visitor  {
        - visitForSquare( *square) 
        - visitForCircle( *circle) 
        - visitForrectangle( *rectangle) 

    }
}

"vistor.visitor" <|- - "vistor.areaCalculator"
"vistor.shape" <|- - "vistor.circle"
"vistor.visitor" <|- - "vistor.middleCoordinates"
"vistor.shape" <|- - "vistor.rectangle"
"vistor.shape" <|- - "vistor.square"

@enduml

PlantUML version 1.2020.10(Sun May 17 17:35:57 CST 2020)
(GPL source distribution)
Java Runtime: OpenJDK Runtime Environment
JVM: OpenJDK 64-Bit Server VM
Java Version: 1.8.0_222-b10
Operating System: Mac OS X
Default Encoding: US-ASCII
Language: en
Country: CN
--></g></svg>