<?xml version="1.0" encoding="UTF-8" standalone="no"?><svg xmlns="http://www.w3.org/2000/svg" xmlns:xlink="http://www.w3.org/1999/xlink" contentScriptType="application/ecmascript" contentStyleType="text/css" height="284px" preserveAspectRatio="none" style="width:442px;height:284px;" version="1.1" viewBox="0 0 442 284" width="442px" zoomAndPan="magnify"><defs><filter height="300%" id="f1q885k1fn79j9" width="300%" x="-1" y="-1"><feGaussianBlur result="blurOut" stdDeviation="2.0"/><feColorMatrix in="blurOut" result="blurOut2" type="matrix" values="0 0 0 0 0 0 0 0 0 0 0 0 0 0 0 0 0 0 .4 0"/><feOffset dx="4.0" dy="4.0" in="blurOut2" result="blurOut3"/><feBlend in="SourceGraphic" in2="blurOut3" mode="normal"/></filter></defs><g><!--MD5=[cb643d2e99e3f88089b3a75eeb15303b]
cluster command--><polygon fill="#FFFFFF" filter="url(#f1q885k1fn79j9)" points="14,16,90,16,97,38.4883,420,38.4883,420,272,14,272,14,16" style="stroke: #000000; stroke-width: 1.5;"/><line style="stroke: #000000; stroke-width: 1.5;" x1="14" x2="97" y1="38.4883" y2="38.4883"/><text fill="#000000" font-family="sans-serif" font-size="14" font-weight="bold" lengthAdjust="spacingAndGlyphs" textLength="70" x="18" y="31.5352">command</text><!--MD5=[65ff06d448276ff4d27f13fde495380b]
class command.button--><rect fill="#FEFECE" filter="url(#f1q885k1fn79j9)" height="73.9102" id="command.button" style="stroke: #A80036; stroke-width: 1.5;" width="135" x="276.5" y="43"/><ellipse cx="321.25" cy="59" fill="#7FFFD4" rx="11" ry="11" style="stroke: #A80036; stroke-width: 1.0;"/><path d="M320.4834,60.063 Q318.6323,59.3574 317.9766,58.5813 Q317.3208,57.8052 317.3208,56.4937 Q317.3208,54.8086 318.3999,53.8457 Q319.479,52.8828 321.3633,52.8828 Q322.2183,52.8828 323.0732,53.0779 Q323.9282,53.2729 324.7666,53.6548 L324.7666,56.0454 Q323.978,55.4893 323.1646,55.1987 Q322.3511,54.9082 321.5542,54.9082 Q320.666,54.9082 320.1929,55.2651 Q319.7197,55.6221 319.7197,56.2861 Q319.7197,56.8008 320.0642,57.137 Q320.4087,57.4731 321.5044,57.8799 L322.5586,58.2783 Q324.0527,58.8262 324.7583,59.731 Q325.4639,60.6357 325.4639,62.0137 Q325.4639,63.8896 324.3557,64.8152 Q323.2476,65.7407 321.0063,65.7407 Q320.085,65.7407 319.1594,65.5208 Q318.2339,65.3008 317.3706,64.8691 L317.3706,62.3374 Q318.3501,63.0347 319.2673,63.375 Q320.1846,63.7153 321.0811,63.7153 Q321.9858,63.7153 322.4839,63.3044 Q322.9819,62.8936 322.9819,62.1548 Q322.9819,61.5986 322.6499,61.1794 Q322.3179,60.7603 321.687,60.5195 Z "/><text fill="#000000" font-family="sans-serif" font-size="12" lengthAdjust="spacingAndGlyphs" textLength="37" x="341.75" y="63.5352">button</text><line style="stroke: #A80036; stroke-width: 1.5;" x1="277.5" x2="410.5" y1="75" y2="75"/><rect fill="none" height="6" style="stroke: #C82930; stroke-width: 1.0;" width="6" x="284.5" y="83"/><text fill="#000000" font-family="sans-serif" font-size="11" lengthAdjust="spacingAndGlyphs" textLength="109" x="296.5" y="89.6348">command command</text><line style="stroke: #A80036; stroke-width: 1.5;" x1="277.5" x2="410.5" y1="95.9551" y2="95.9551"/><rect fill="#F24D5C" height="6" style="stroke: #C82930; stroke-width: 1.0;" width="6" x="284.5" y="103.9551"/><text fill="#000000" font-family="sans-serif" font-size="11" lengthAdjust="spacingAndGlyphs" textLength="38" x="296.5" y="110.5898">press()</text><!--MD5=[6845a21c47ffea38da9b32a8326d8266]
class command.command--><rect fill="#FEFECE" filter="url(#f1q885k1fn79j9)" height="60.9551" id="command.command" style="stroke: #A80036; stroke-width: 1.5;" width="89" x="152.5" y="49.5"/><ellipse cx="167.5" cy="65.5" fill="#B4A7E5" rx="11" ry="11" style="stroke: #A80036; stroke-width: 1.0;"/><path d="M163.9277,61.7651 L163.9277,59.6069 L171.3071,59.6069 L171.3071,61.7651 L168.8418,61.7651 L168.8418,69.8418 L171.3071,69.8418 L171.3071,72 L163.9277,72 L163.9277,69.8418 L166.3931,69.8418 L166.3931,61.7651 Z "/><text fill="#000000" font-family="sans-serif" font-size="12" font-style="italic" lengthAdjust="spacingAndGlyphs" textLength="57" x="181.5" y="70.0352">command</text><line style="stroke: #A80036; stroke-width: 1.5;" x1="153.5" x2="240.5" y1="81.5" y2="81.5"/><line style="stroke: #A80036; stroke-width: 1.5;" x1="153.5" x2="240.5" y1="89.5" y2="89.5"/><rect fill="#F24D5C" height="6" style="stroke: #C82930; stroke-width: 1.0;" width="6" x="160.5" y="97.5"/><text fill="#000000" font-family="sans-serif" font-size="11" lengthAdjust="spacingAndGlyphs" textLength="50" x="172.5" y="104.1348">execute()</text><!--MD5=[b577faeb1c6d5072603da4d737a9d6f0]
class command.device--><rect fill="#FEFECE" filter="url(#f1q885k1fn79j9)" height="73.9102" id="command.device" style="stroke: #A80036; stroke-width: 1.5;" width="69" x="41.5" y="43"/><ellipse cx="56.5" cy="59" fill="#B4A7E5" rx="11" ry="11" style="stroke: #A80036; stroke-width: 1.0;"/><path d="M52.9277,55.2651 L52.9277,53.1069 L60.3071,53.1069 L60.3071,55.2651 L57.8418,55.2651 L57.8418,63.3418 L60.3071,63.3418 L60.3071,65.5 L52.9277,65.5 L52.9277,63.3418 L55.3931,63.3418 L55.3931,55.2651 Z "/><text fill="#000000" font-family="sans-serif" font-size="12" font-style="italic" lengthAdjust="spacingAndGlyphs" textLength="37" x="70.5" y="63.5352">device</text><line style="stroke: #A80036; stroke-width: 1.5;" x1="42.5" x2="109.5" y1="75" y2="75"/><line style="stroke: #A80036; stroke-width: 1.5;" x1="42.5" x2="109.5" y1="83" y2="83"/><rect fill="#F24D5C" height="6" style="stroke: #C82930; stroke-width: 1.0;" width="6" x="49.5" y="91"/><text fill="#000000" font-family="sans-serif" font-size="11" lengthAdjust="spacingAndGlyphs" textLength="22" x="61.5" y="97.6348">on()</text><rect fill="#F24D5C" height="6" style="stroke: #C82930; stroke-width: 1.0;" width="6" x="49.5" y="103.9551"/><text fill="#000000" font-family="sans-serif" font-size="11" lengthAdjust="spacingAndGlyphs" textLength="23" x="61.5" y="110.5898">off()</text><!--MD5=[471cf1f9773eeeeb3978e88d2a04b866]
class command.offCommand--><rect fill="#FEFECE" filter="url(#f1q885k1fn79j9)" height="73.9102" id="command.offCommand" style="stroke: #A80036; stroke-width: 1.5;" width="106" x="165" y="183.5"/><ellipse cx="180" cy="199.5" fill="#7FFFD4" rx="11" ry="11" style="stroke: #A80036; stroke-width: 1.0;"/><path d="M179.2334,200.563 Q177.3823,199.8574 176.7266,199.0813 Q176.0708,198.3052 176.0708,196.9937 Q176.0708,195.3086 177.1499,194.3457 Q178.229,193.3828 180.1133,193.3828 Q180.9683,193.3828 181.8232,193.5779 Q182.6782,193.7729 183.5166,194.1548 L183.5166,196.5454 Q182.728,195.9893 181.9146,195.6987 Q181.1011,195.4082 180.3042,195.4082 Q179.416,195.4082 178.9429,195.7651 Q178.4697,196.1221 178.4697,196.7861 Q178.4697,197.3008 178.8142,197.637 Q179.1587,197.9731 180.2544,198.3799 L181.3086,198.7783 Q182.8027,199.3262 183.5083,200.231 Q184.2139,201.1357 184.2139,202.5137 Q184.2139,204.3896 183.1057,205.3152 Q181.9976,206.2407 179.7563,206.2407 Q178.835,206.2407 177.9094,206.0208 Q176.9839,205.8008 176.1206,205.3691 L176.1206,202.8374 Q177.1001,203.5347 178.0173,203.875 Q178.9346,204.2153 179.8311,204.2153 Q180.7358,204.2153 181.2339,203.8044 Q181.7319,203.3936 181.7319,202.6548 Q181.7319,202.0986 181.3999,201.6794 Q181.0679,201.2603 180.437,201.0195 Z "/><text fill="#000000" font-family="sans-serif" font-size="12" lengthAdjust="spacingAndGlyphs" textLength="74" x="194" y="204.0352">offCommand</text><line style="stroke: #A80036; stroke-width: 1.5;" x1="166" x2="270" y1="215.5" y2="215.5"/><rect fill="none" height="6" style="stroke: #C82930; stroke-width: 1.0;" width="6" x="173" y="223.5"/><text fill="#000000" font-family="sans-serif" font-size="11" lengthAdjust="spacingAndGlyphs" textLength="71" x="185" y="230.1348">device device</text><line style="stroke: #A80036; stroke-width: 1.5;" x1="166" x2="270" y1="236.4551" y2="236.4551"/><rect fill="#F24D5C" height="6" style="stroke: #C82930; stroke-width: 1.0;" width="6" x="173" y="244.4551"/><text fill="#000000" font-family="sans-serif" font-size="11" lengthAdjust="spacingAndGlyphs" textLength="50" x="185" y="251.0898">execute()</text><!--MD5=[6e941352ce28a82a5957cf1a56b6e48a]
class command.onCommand--><rect fill="#FEFECE" filter="url(#f1q885k1fn79j9)" height="73.9102" id="command.onCommand" style="stroke: #A80036; stroke-width: 1.5;" width="105" x="306.5" y="183.5"/><ellipse cx="321.5" cy="199.5" fill="#7FFFD4" rx="11" ry="11" style="stroke: #A80036; stroke-width: 1.0;"/><path d="M320.7334,200.563 Q318.8823,199.8574 318.2266,199.0813 Q317.5708,198.3052 317.5708,196.9937 Q317.5708,195.3086 318.6499,194.3457 Q319.729,193.3828 321.6133,193.3828 Q322.4683,193.3828 323.3232,193.5779 Q324.1782,193.7729 325.0166,194.1548 L325.0166,196.5454 Q324.228,195.9893 323.4146,195.6987 Q322.6011,195.4082 321.8042,195.4082 Q320.916,195.4082 320.4429,195.7651 Q319.9697,196.1221 319.9697,196.7861 Q319.9697,197.3008 320.3142,197.637 Q320.6587,197.9731 321.7544,198.3799 L322.8086,198.7783 Q324.3027,199.3262 325.0083,200.231 Q325.7139,201.1357 325.7139,202.5137 Q325.7139,204.3896 324.6057,205.3152 Q323.4976,206.2407 321.2563,206.2407 Q320.335,206.2407 319.4094,206.0208 Q318.4839,205.8008 317.6206,205.3691 L317.6206,202.8374 Q318.6001,203.5347 319.5173,203.875 Q320.4346,204.2153 321.3311,204.2153 Q322.2358,204.2153 322.7339,203.8044 Q323.2319,203.3936 323.2319,202.6548 Q323.2319,202.0986 322.8999,201.6794 Q322.5679,201.2603 321.937,201.0195 Z "/><text fill="#000000" font-family="sans-serif" font-size="12" lengthAdjust="spacingAndGlyphs" textLength="73" x="335.5" y="204.0352">onCommand</text><line style="stroke: #A80036; stroke-width: 1.5;" x1="307.5" x2="410.5" y1="215.5" y2="215.5"/><rect fill="none" height="6" style="stroke: #C82930; stroke-width: 1.0;" width="6" x="314.5" y="223.5"/><text fill="#000000" font-family="sans-serif" font-size="11" lengthAdjust="spacingAndGlyphs" textLength="71" x="326.5" y="230.1348">device device</text><line style="stroke: #A80036; stroke-width: 1.5;" x1="307.5" x2="410.5" y1="236.4551" y2="236.4551"/><rect fill="#F24D5C" height="6" style="stroke: #C82930; stroke-width: 1.0;" width="6" x="314.5" y="244.4551"/><text fill="#000000" font-family="sans-serif" font-size="11" lengthAdjust="spacingAndGlyphs" textLength="50" x="326.5" y="251.0898">execute()</text><!--MD5=[f28ceb062ae73168ffbff8f5a6fb974f]
class command.tv--><rect fill="#FEFECE" filter="url(#f1q885k1fn79j9)" height="86.8652" id="command.tv" style="stroke: #A80036; stroke-width: 1.5;" width="107" x="22.5" y="177"/><ellipse cx="66.75" cy="193" fill="#7FFFD4" rx="11" ry="11" style="stroke: #A80036; stroke-width: 1.0;"/><path d="M65.9834,194.063 Q64.1323,193.3574 63.4766,192.5813 Q62.8208,191.8052 62.8208,190.4937 Q62.8208,188.8086 63.8999,187.8457 Q64.979,186.8828 66.8633,186.8828 Q67.7183,186.8828 68.5732,187.0779 Q69.4282,187.2729 70.2666,187.6548 L70.2666,190.0454 Q69.478,189.4893 68.6646,189.1987 Q67.8511,188.9082 67.0542,188.9082 Q66.166,188.9082 65.6929,189.2651 Q65.2197,189.6221 65.2197,190.2861 Q65.2197,190.8008 65.5642,191.137 Q65.9087,191.4731 67.0044,191.8799 L68.0586,192.2783 Q69.5527,192.8262 70.2583,193.731 Q70.9639,194.6357 70.9639,196.0137 Q70.9639,197.8896 69.8557,198.8152 Q68.7476,199.7407 66.5063,199.7407 Q65.585,199.7407 64.6594,199.5208 Q63.7339,199.3008 62.8706,198.8691 L62.8706,196.3374 Q63.8501,197.0347 64.7673,197.375 Q65.6846,197.7153 66.5811,197.7153 Q67.4858,197.7153 67.9839,197.3044 Q68.4819,196.8936 68.4819,196.1548 Q68.4819,195.5986 68.1499,195.1794 Q67.8179,194.7603 67.187,194.5195 Z "/><text fill="#000000" font-family="sans-serif" font-size="12" lengthAdjust="spacingAndGlyphs" textLength="10" x="87.25" y="197.5352">tv</text><line style="stroke: #A80036; stroke-width: 1.5;" x1="23.5" x2="128.5" y1="209" y2="209"/><rect fill="none" height="6" style="stroke: #C82930; stroke-width: 1.0;" width="6" x="30.5" y="217"/><text fill="#000000" font-family="sans-serif" font-size="11" lengthAdjust="spacingAndGlyphs" textLength="81" x="42.5" y="223.6348">isRunning bool</text><line style="stroke: #A80036; stroke-width: 1.5;" x1="23.5" x2="128.5" y1="229.9551" y2="229.9551"/><rect fill="#F24D5C" height="6" style="stroke: #C82930; stroke-width: 1.0;" width="6" x="30.5" y="237.9551"/><text fill="#000000" font-family="sans-serif" font-size="11" lengthAdjust="spacingAndGlyphs" textLength="22" x="42.5" y="244.5898">on()</text><rect fill="#F24D5C" height="6" style="stroke: #C82930; stroke-width: 1.0;" width="6" x="30.5" y="250.9102"/><text fill="#000000" font-family="sans-serif" font-size="11" lengthAdjust="spacingAndGlyphs" textLength="23" x="42.5" y="257.5449">off()</text><!--MD5=[944ed4611b0463e7fe751a836658e553]
reverse link command.command to command.offCommand--><path d="M204.594,130.8072 C207.1842,148.1374 210.0307,167.1813 212.4318,183.2462 " fill="none" id="command.command&lt;-command.offCommand" style="stroke: #A80036; stroke-width: 1.0;"/><polygon fill="none" points="197.642,131.6484,201.6085,110.8333,211.4882,129.5788,197.642,131.6484" style="stroke: #A80036; stroke-width: 1.0;"/><!--MD5=[2a52e7c683beb63a4a4ea139d59edced]
reverse link command.command to command.onCommand--><path d="M247.7924,124.0514 C269.7133,143.0631 295.0795,165.0628 316.0455,183.2462 " fill="none" id="command.command&lt;-command.onCommand" style="stroke: #A80036; stroke-width: 1.0;"/><polygon fill="none" points="243.0744,129.2255,232.5516,110.8333,252.2472,118.6491,243.0744,129.2255" style="stroke: #A80036; stroke-width: 1.0;"/><!--MD5=[7a6d7d16b259cfe444235d1d357d7291]
reverse link command.device to command.tv--><path d="M76,137.7038 C76,150.7684 76,164.4313 76,176.8053 " fill="none" id="command.device&lt;-command.tv" style="stroke: #A80036; stroke-width: 1.0;"/><polygon fill="none" points="69.0001,137.2826,76,117.2825,83.0001,137.2825,69.0001,137.2826" style="stroke: #A80036; stroke-width: 1.0;"/><!--MD5=[878d3358eb107db49dabfccb7c3ee39c]
@startuml
namespace command {
    class button << (S,Aquamarine) >> {
        - command command

        - press() 

    }
    interface command  {
        - execute() 

    }
    interface device  {
        - on() 
        - off() 

    }
    class offCommand << (S,Aquamarine) >> {
        - device device

        - execute() 

    }
    class onCommand << (S,Aquamarine) >> {
        - device device

        - execute() 

    }
    class tv << (S,Aquamarine) >> {
        - isRunning bool

        - on() 
        - off() 

    }
}

"command.command" <|- - "command.offCommand"
"command.command" <|- - "command.onCommand"
"command.device" <|- - "command.tv"

@enduml

PlantUML version 1.2020.10(Sun May 17 17:35:57 CST 2020)
(GPL source distribution)
Java Runtime: OpenJDK Runtime Environment
JVM: OpenJDK 64-Bit Server VM
Java Version: 1.8.0_222-b10
Operating System: Mac OS X
Default Encoding: US-ASCII
Language: en
Country: CN
--></g></svg>