<?xml version="1.0" encoding="UTF-8" standalone="no"?><svg xmlns="http://www.w3.org/2000/svg" xmlns:xlink="http://www.w3.org/1999/xlink" contentScriptType="application/ecmascript" contentStyleType="text/css" height="310px" preserveAspectRatio="none" style="width:702px;height:310px;" version="1.1" viewBox="0 0 702 310" width="702px" zoomAndPan="magnify"><defs><filter height="300%" id="fcypfmmlfzs19" width="300%" x="-1" y="-1"><feGaussianBlur result="blurOut" stdDeviation="2.0"/><feColorMatrix in="blurOut" result="blurOut2" type="matrix" values="0 0 0 0 0 0 0 0 0 0 0 0 0 0 0 0 0 0 .4 0"/><feOffset dx="4.0" dy="4.0" in="blurOut2" result="blurOut3"/><feBlend in="SourceGraphic" in2="blurOut3" mode="normal"/></filter></defs><g><!--MD5=[615190a2dfb787d141c47e7632b651de]
cluster flyweight--><polygon fill="#FFFFFF" filter="url(#fcypfmmlfzs19)" points="14,16,88,16,95,38.4883,680,38.4883,680,298,14,298,14,16" style="stroke: #000000; stroke-width: 1.5;"/><line style="stroke: #000000; stroke-width: 1.5;" x1="14" x2="95" y1="38.4883" y2="38.4883"/><text fill="#000000" font-family="sans-serif" font-size="14" font-weight="bold" lengthAdjust="spacingAndGlyphs" textLength="68" x="18" y="31.5352">flyweight</text><!--MD5=[bc0058b708dd56c0f79a3d2f9756f716]
class flyweight.counterTerroristDress--><rect fill="#FEFECE" filter="url(#fcypfmmlfzs19)" height="73.9102" id="flyweight.counterTerroristDress" style="stroke: #A80036; stroke-width: 1.5;" width="158" x="514" y="216"/><ellipse cx="529" cy="232" fill="#7FFFD4" rx="11" ry="11" style="stroke: #A80036; stroke-width: 1.0;"/><path d="M528.2334,233.063 Q526.3823,232.3574 525.7266,231.5813 Q525.0708,230.8052 525.0708,229.4937 Q525.0708,227.8086 526.1499,226.8457 Q527.229,225.8828 529.1133,225.8828 Q529.9683,225.8828 530.8232,226.0779 Q531.6782,226.2729 532.5166,226.6548 L532.5166,229.0454 Q531.728,228.4893 530.9146,228.1987 Q530.1011,227.9082 529.3042,227.9082 Q528.416,227.9082 527.9429,228.2651 Q527.4697,228.6221 527.4697,229.2861 Q527.4697,229.8008 527.8142,230.137 Q528.1587,230.4731 529.2544,230.8799 L530.3086,231.2783 Q531.8027,231.8262 532.5083,232.731 Q533.2139,233.6357 533.2139,235.0137 Q533.2139,236.8896 532.1057,237.8152 Q530.9976,238.7407 528.7563,238.7407 Q527.835,238.7407 526.9094,238.5208 Q525.9839,238.3008 525.1206,237.8691 L525.1206,235.3374 Q526.1001,236.0347 527.0173,236.375 Q527.9346,236.7153 528.8311,236.7153 Q529.7358,236.7153 530.2339,236.3044 Q530.7319,235.8936 530.7319,235.1548 Q530.7319,234.5986 530.3999,234.1794 Q530.0679,233.7603 529.437,233.5195 Z "/><text fill="#000000" font-family="sans-serif" font-size="12" lengthAdjust="spacingAndGlyphs" textLength="126" x="543" y="236.5352">counterTerroristDress</text><line style="stroke: #A80036; stroke-width: 1.5;" x1="515" x2="671" y1="248" y2="248"/><rect fill="none" height="6" style="stroke: #C82930; stroke-width: 1.0;" width="6" x="522" y="256"/><text fill="#000000" font-family="sans-serif" font-size="11" lengthAdjust="spacingAndGlyphs" textLength="63" x="534" y="262.6348">color string</text><line style="stroke: #A80036; stroke-width: 1.5;" x1="515" x2="671" y1="268.9551" y2="268.9551"/><rect fill="#F24D5C" height="6" style="stroke: #C82930; stroke-width: 1.0;" width="6" x="522" y="276.9551"/><text fill="#000000" font-family="sans-serif" font-size="11" lengthAdjust="spacingAndGlyphs" textLength="90" x="534" y="283.5898">getColor() string</text><!--MD5=[dc4b8184b1dfcba70e4d23cd224583d6]
class flyweight.dress--><rect fill="#FEFECE" filter="url(#fcypfmmlfzs19)" height="60.9551" id="flyweight.dress" style="stroke: #A80036; stroke-width: 1.5;" width="116" x="556" y="69"/><ellipse cx="594.4" cy="85" fill="#B4A7E5" rx="11" ry="11" style="stroke: #A80036; stroke-width: 1.0;"/><path d="M590.8277,81.2651 L590.8277,79.1069 L598.2071,79.1069 L598.2071,81.2651 L595.7418,81.2651 L595.7418,89.3418 L598.2071,89.3418 L598.2071,91.5 L590.8277,91.5 L590.8277,89.3418 L593.2931,89.3418 L593.2931,81.2651 Z "/><text fill="#000000" font-family="sans-serif" font-size="12" font-style="italic" lengthAdjust="spacingAndGlyphs" textLength="32" x="613.6" y="89.5352">dress</text><line style="stroke: #A80036; stroke-width: 1.5;" x1="557" x2="671" y1="101" y2="101"/><line style="stroke: #A80036; stroke-width: 1.5;" x1="557" x2="671" y1="109" y2="109"/><rect fill="#F24D5C" height="6" style="stroke: #C82930; stroke-width: 1.0;" width="6" x="564" y="117"/><text fill="#000000" font-family="sans-serif" font-size="11" lengthAdjust="spacingAndGlyphs" textLength="90" x="576" y="123.6348">getColor() string</text><!--MD5=[b784087cfa561873ff36d5627c0074a6]
class flyweight.dressFactory--><rect fill="#FEFECE" filter="url(#fcypfmmlfzs19)" height="99.8203" id="flyweight.dressFactory" style="stroke: #A80036; stroke-width: 1.5;" width="286" x="235" y="49.5"/><ellipse cx="337.25" cy="65.5" fill="#7FFFD4" rx="11" ry="11" style="stroke: #A80036; stroke-width: 1.0;"/><path d="M336.4834,66.563 Q334.6323,65.8574 333.9766,65.0813 Q333.3208,64.3052 333.3208,62.9937 Q333.3208,61.3086 334.3999,60.3457 Q335.479,59.3828 337.3633,59.3828 Q338.2183,59.3828 339.0732,59.5779 Q339.9282,59.7729 340.7666,60.1548 L340.7666,62.5454 Q339.978,61.9893 339.1646,61.6987 Q338.3511,61.4082 337.5542,61.4082 Q336.666,61.4082 336.1929,61.7651 Q335.7197,62.1221 335.7197,62.7861 Q335.7197,63.3008 336.0642,63.637 Q336.4087,63.9731 337.5044,64.3799 L338.5586,64.7783 Q340.0527,65.3262 340.7583,66.231 Q341.4639,67.1357 341.4639,68.5137 Q341.4639,70.3896 340.3557,71.3152 Q339.2476,72.2407 337.0063,72.2407 Q336.085,72.2407 335.1594,72.0208 Q334.2339,71.8008 333.3706,71.3691 L333.3706,68.8374 Q334.3501,69.5347 335.2673,69.875 Q336.1846,70.2153 337.0811,70.2153 Q337.9858,70.2153 338.4839,69.8044 Q338.9819,69.3936 338.9819,68.6548 Q338.9819,68.0986 338.6499,67.6794 Q338.3179,67.2603 337.687,67.0195 Z "/><text fill="#000000" font-family="sans-serif" font-size="12" lengthAdjust="spacingAndGlyphs" textLength="73" x="357.75" y="70.0352">dressFactory</text><line style="stroke: #A80036; stroke-width: 1.5;" x1="236" x2="520" y1="81.5" y2="81.5"/><rect fill="none" height="6" style="stroke: #C82930; stroke-width: 1.0;" width="6" x="243" y="89.5"/><text fill="#000000" font-family="sans-serif" font-size="11" lengthAdjust="spacingAndGlyphs" textLength="52" x="255" y="96.1348">dressMap</text><text fill="#0000FF" font-family="sans-serif" font-size="11" lengthAdjust="spacingAndGlyphs" textLength="23" x="310" y="96.1348">map</text><text fill="#000000" font-family="sans-serif" font-size="11" lengthAdjust="spacingAndGlyphs" textLength="70" x="333" y="96.1348">[string]dress</text><rect fill="none" height="6" style="stroke: #C82930; stroke-width: 1.0;" width="6" x="243" y="102.4551"/><text fill="#000000" font-family="sans-serif" font-size="11" lengthAdjust="spacingAndGlyphs" textLength="52" x="255" y="109.0898">dressMap</text><text fill="#0000FF" font-family="sans-serif" font-size="11" lengthAdjust="spacingAndGlyphs" textLength="23" x="310" y="109.0898">map</text><text fill="#000000" font-family="sans-serif" font-size="11" lengthAdjust="spacingAndGlyphs" textLength="70" x="333" y="109.0898">[string]dress</text><line style="stroke: #A80036; stroke-width: 1.5;" x1="236" x2="520" y1="115.4102" y2="115.4102"/><rect fill="#F24D5C" height="6" style="stroke: #C82930; stroke-width: 1.0;" width="6" x="243" y="123.4102"/><text fill="#000000" font-family="sans-serif" font-size="11" lengthAdjust="spacingAndGlyphs" textLength="260" x="255" y="130.0449">getDressByType(dressType string) (dress, error)</text><rect fill="#F24D5C" height="6" style="stroke: #C82930; stroke-width: 1.0;" width="6" x="243" y="136.3652"/><text fill="#000000" font-family="sans-serif" font-size="11" lengthAdjust="spacingAndGlyphs" textLength="260" x="255" y="143">getDressByType(dressType string) (dress, error)</text><!--MD5=[f2891ee6d28ddd06ae7ae3b019764e5a]
class flyweight.player--><rect fill="#FEFECE" filter="url(#fcypfmmlfzs19)" height="112.7754" id="flyweight.player" style="stroke: #A80036; stroke-width: 1.5;" width="178" x="22" y="43"/><ellipse cx="88.75" cy="59" fill="#7FFFD4" rx="11" ry="11" style="stroke: #A80036; stroke-width: 1.0;"/><path d="M87.9834,60.063 Q86.1323,59.3574 85.4766,58.5813 Q84.8208,57.8052 84.8208,56.4937 Q84.8208,54.8086 85.8999,53.8457 Q86.979,52.8828 88.8633,52.8828 Q89.7183,52.8828 90.5732,53.0779 Q91.4282,53.2729 92.2666,53.6548 L92.2666,56.0454 Q91.478,55.4893 90.6646,55.1987 Q89.8511,54.9082 89.0542,54.9082 Q88.166,54.9082 87.6929,55.2651 Q87.2197,55.6221 87.2197,56.2861 Q87.2197,56.8008 87.5642,57.137 Q87.9087,57.4731 89.0044,57.8799 L90.0586,58.2783 Q91.5527,58.8262 92.2583,59.731 Q92.9639,60.6357 92.9639,62.0137 Q92.9639,63.8896 91.8557,64.8152 Q90.7476,65.7407 88.5063,65.7407 Q87.585,65.7407 86.6594,65.5208 Q85.7339,65.3008 84.8706,64.8691 L84.8706,62.3374 Q85.8501,63.0347 86.7673,63.375 Q87.6846,63.7153 88.5811,63.7153 Q89.4858,63.7153 89.9839,63.3044 Q90.4819,62.8936 90.4819,62.1548 Q90.4819,61.5986 90.1499,61.1794 Q89.8179,60.7603 89.187,60.5195 Z "/><text fill="#000000" font-family="sans-serif" font-size="12" lengthAdjust="spacingAndGlyphs" textLength="36" x="109.25" y="63.5352">player</text><line style="stroke: #A80036; stroke-width: 1.5;" x1="23" x2="199" y1="75" y2="75"/><rect fill="none" height="6" style="stroke: #C82930; stroke-width: 1.0;" width="6" x="30" y="83"/><text fill="#000000" font-family="sans-serif" font-size="11" lengthAdjust="spacingAndGlyphs" textLength="63" x="42" y="89.6348">dress dress</text><rect fill="none" height="6" style="stroke: #C82930; stroke-width: 1.0;" width="6" x="30" y="95.9551"/><text fill="#000000" font-family="sans-serif" font-size="11" lengthAdjust="spacingAndGlyphs" textLength="94" x="42" y="102.5898">playerType string</text><rect fill="none" height="6" style="stroke: #C82930; stroke-width: 1.0;" width="6" x="30" y="108.9102"/><text fill="#000000" font-family="sans-serif" font-size="11" lengthAdjust="spacingAndGlyphs" textLength="30" x="42" y="115.5449">lat int</text><rect fill="none" height="6" style="stroke: #C82930; stroke-width: 1.0;" width="6" x="30" y="121.8652"/><text fill="#000000" font-family="sans-serif" font-size="11" lengthAdjust="spacingAndGlyphs" textLength="41" x="42" y="128.5">long int</text><line style="stroke: #A80036; stroke-width: 1.5;" x1="23" x2="199" y1="134.8203" y2="134.8203"/><rect fill="#F24D5C" height="6" style="stroke: #C82930; stroke-width: 1.0;" width="6" x="30" y="142.8203"/><text fill="#000000" font-family="sans-serif" font-size="11" lengthAdjust="spacingAndGlyphs" textLength="152" x="42" y="149.4551">newLocation(lat int, long int)</text><!--MD5=[8835d4b9c51c50ca3827676fb6c75f15]
reverse link flyweight.dress to flyweight.counterTerroristDress--><path d="M607.0505,150.2973 C604.1212,171.709 600.7741,196.1752 598.0816,215.8557 " fill="none" id="flyweight.dress&lt;-flyweight.counterTerroristDress" style="stroke: #A80036; stroke-width: 1.0;"/><polygon fill="none" points="600.1544,149.0607,609.8008,130.1941,614.0252,150.9584,600.1544,149.0607" style="stroke: #A80036; stroke-width: 1.0;"/><!--MD5=[8d6467da4a10e8cf640192b5998263c9]
@startuml
namespace flyweight {
    class counterTerroristDress << (S,Aquamarine) >> {
        - color string

        - getColor() string

    }
    interface dress  {
        - getColor() string

    }
    class dressFactory << (S,Aquamarine) >> {
        - dressMap <font color=blue>map</font>[string]dress
        - dressMap <font color=blue>map</font>[string]dress

        - getDressByType(dressType string) (dress, error)
        - getDressByType(dressType string) (dress, error)

    }
    class player << (S,Aquamarine) >> {
        - dress dress
        - playerType string
        - lat int
        - long int

        - newLocation(lat int, long int) 

    }
}

"flyweight.dress" <|- - "flyweight.counterTerroristDress"

@enduml

PlantUML version 1.2020.10(Sun May 17 17:35:57 CST 2020)
(GPL source distribution)
Java Runtime: OpenJDK Runtime Environment
JVM: OpenJDK 64-Bit Server VM
Java Version: 1.8.0_222-b10
Operating System: Mac OS X
Default Encoding: US-ASCII
Language: en
Country: CN
--></g></svg>