<?xml version="1.0" encoding="UTF-8" standalone="no"?><svg xmlns="http://www.w3.org/2000/svg" xmlns:xlink="http://www.w3.org/1999/xlink" contentScriptType="application/ecmascript" contentStyleType="text/css" height="336px" preserveAspectRatio="none" style="width:976px;height:336px;" version="1.1" viewBox="0 0 976 336" width="976px" zoomAndPan="magnify"><defs><filter height="300%" id="f1ijx34wn9vxoq" width="300%" x="-1" y="-1"><feGaussianBlur result="blurOut" stdDeviation="2.0"/><feColorMatrix in="blurOut" result="blurOut2" type="matrix" values="0 0 0 0 0 0 0 0 0 0 0 0 0 0 0 0 0 0 .4 0"/><feOffset dx="4.0" dy="4.0" in="blurOut2" result="blurOut3"/><feBlend in="SourceGraphic" in2="blurOut3" mode="normal"/></filter></defs><g><!--MD5=[73a39ff06bfd21a4a8df8317230e2ab5]
cluster facade--><polygon fill="#FFFFFF" filter="url(#f1ijx34wn9vxoq)" points="14,16,66,16,73,38.4883,954,38.4883,954,324,14,324,14,16" style="stroke: #000000; stroke-width: 1.5;"/><line style="stroke: #000000; stroke-width: 1.5;" x1="14" x2="73" y1="38.4883" y2="38.4883"/><text fill="#000000" font-family="sans-serif" font-size="14" font-weight="bold" lengthAdjust="spacingAndGlyphs" textLength="46" x="18" y="31.5352">facade</text><!--MD5=[d60f10472b1e5f501522c8bacee10407]
class facade.account--><rect fill="#FEFECE" filter="url(#f1ijx34wn9vxoq)" height="73.9102" id="facade.account" style="stroke: #A80036; stroke-width: 1.5;" width="249" x="22.5" y="43"/><ellipse cx="120.75" cy="59" fill="#7FFFD4" rx="11" ry="11" style="stroke: #A80036; stroke-width: 1.0;"/><path d="M119.9834,60.063 Q118.1323,59.3574 117.4766,58.5813 Q116.8208,57.8052 116.8208,56.4937 Q116.8208,54.8086 117.8999,53.8457 Q118.979,52.8828 120.8633,52.8828 Q121.7183,52.8828 122.5732,53.0779 Q123.4282,53.2729 124.2666,53.6548 L124.2666,56.0454 Q123.478,55.4893 122.6646,55.1987 Q121.8511,54.9082 121.0542,54.9082 Q120.166,54.9082 119.6929,55.2651 Q119.2197,55.6221 119.2197,56.2861 Q119.2197,56.8008 119.5642,57.137 Q119.9087,57.4731 121.0044,57.8799 L122.0586,58.2783 Q123.5527,58.8262 124.2583,59.731 Q124.9639,60.6357 124.9639,62.0137 Q124.9639,63.8896 123.8557,64.8152 Q122.7476,65.7407 120.5063,65.7407 Q119.585,65.7407 118.6594,65.5208 Q117.7339,65.3008 116.8706,64.8691 L116.8706,62.3374 Q117.8501,63.0347 118.7673,63.375 Q119.6846,63.7153 120.5811,63.7153 Q121.4858,63.7153 121.9839,63.3044 Q122.4819,62.8936 122.4819,62.1548 Q122.4819,61.5986 122.1499,61.1794 Q121.8179,60.7603 121.187,60.5195 Z "/><text fill="#000000" font-family="sans-serif" font-size="12" lengthAdjust="spacingAndGlyphs" textLength="44" x="141.25" y="63.5352">account</text><line style="stroke: #A80036; stroke-width: 1.5;" x1="23.5" x2="270.5" y1="75" y2="75"/><rect fill="none" height="6" style="stroke: #C82930; stroke-width: 1.0;" width="6" x="30.5" y="83"/><text fill="#000000" font-family="sans-serif" font-size="11" lengthAdjust="spacingAndGlyphs" textLength="64" x="42.5" y="89.6348">name string</text><line style="stroke: #A80036; stroke-width: 1.5;" x1="23.5" x2="270.5" y1="95.9551" y2="95.9551"/><rect fill="#F24D5C" height="6" style="stroke: #C82930; stroke-width: 1.0;" width="6" x="30.5" y="103.9551"/><text fill="#000000" font-family="sans-serif" font-size="11" lengthAdjust="spacingAndGlyphs" textLength="223" x="42.5" y="110.5898">checkAccount(accountName string) error</text><!--MD5=[80cc0f27afe5f4c346fc5e3f419ba550]
class facade.ledger--><rect fill="#FEFECE" filter="url(#f1ijx34wn9vxoq)" height="60.9551" id="facade.ledger" style="stroke: #A80036; stroke-width: 1.5;" width="328" x="307" y="49.5"/><ellipse cx="448.25" cy="65.5" fill="#7FFFD4" rx="11" ry="11" style="stroke: #A80036; stroke-width: 1.0;"/><path d="M447.4834,66.563 Q445.6323,65.8574 444.9766,65.0813 Q444.3208,64.3052 444.3208,62.9937 Q444.3208,61.3086 445.3999,60.3457 Q446.479,59.3828 448.3633,59.3828 Q449.2183,59.3828 450.0732,59.5779 Q450.9282,59.7729 451.7666,60.1548 L451.7666,62.5454 Q450.978,61.9893 450.1646,61.6987 Q449.3511,61.4082 448.5542,61.4082 Q447.666,61.4082 447.1929,61.7651 Q446.7197,62.1221 446.7197,62.7861 Q446.7197,63.3008 447.0642,63.637 Q447.4087,63.9731 448.5044,64.3799 L449.5586,64.7783 Q451.0527,65.3262 451.7583,66.231 Q452.4639,67.1357 452.4639,68.5137 Q452.4639,70.3896 451.3557,71.3152 Q450.2476,72.2407 448.0063,72.2407 Q447.085,72.2407 446.1594,72.0208 Q445.2339,71.8008 444.3706,71.3691 L444.3706,68.8374 Q445.3501,69.5347 446.2673,69.875 Q447.1846,70.2153 448.0811,70.2153 Q448.9858,70.2153 449.4839,69.8044 Q449.9819,69.3936 449.9819,68.6548 Q449.9819,68.0986 449.6499,67.6794 Q449.3179,67.2603 448.687,67.0195 Z "/><text fill="#000000" font-family="sans-serif" font-size="12" lengthAdjust="spacingAndGlyphs" textLength="37" x="468.75" y="70.0352">ledger</text><line style="stroke: #A80036; stroke-width: 1.5;" x1="308" x2="634" y1="81.5" y2="81.5"/><line style="stroke: #A80036; stroke-width: 1.5;" x1="308" x2="634" y1="89.5" y2="89.5"/><rect fill="#F24D5C" height="6" style="stroke: #C82930; stroke-width: 1.0;" width="6" x="315" y="97.5"/><text fill="#000000" font-family="sans-serif" font-size="11" lengthAdjust="spacingAndGlyphs" textLength="302" x="327" y="104.1348">makeEntry(accountID string, txnType string, amount int)</text><!--MD5=[7ae1c0931fca2eab50e844e640e128bd]
class facade.notification--><rect fill="#FEFECE" filter="url(#f1ijx34wn9vxoq)" height="73.9102" id="facade.notification" style="stroke: #A80036; stroke-width: 1.5;" width="186" x="670" y="43"/><ellipse cx="727.75" cy="59" fill="#7FFFD4" rx="11" ry="11" style="stroke: #A80036; stroke-width: 1.0;"/><path d="M726.9834,60.063 Q725.1323,59.3574 724.4766,58.5813 Q723.8208,57.8052 723.8208,56.4937 Q723.8208,54.8086 724.8999,53.8457 Q725.979,52.8828 727.8633,52.8828 Q728.7183,52.8828 729.5732,53.0779 Q730.4282,53.2729 731.2666,53.6548 L731.2666,56.0454 Q730.478,55.4893 729.6646,55.1987 Q728.8511,54.9082 728.0542,54.9082 Q727.166,54.9082 726.6929,55.2651 Q726.2197,55.6221 726.2197,56.2861 Q726.2197,56.8008 726.5642,57.137 Q726.9087,57.4731 728.0044,57.8799 L729.0586,58.2783 Q730.5527,58.8262 731.2583,59.731 Q731.9639,60.6357 731.9639,62.0137 Q731.9639,63.8896 730.8557,64.8152 Q729.7476,65.7407 727.5063,65.7407 Q726.585,65.7407 725.6594,65.5208 Q724.7339,65.3008 723.8706,64.8691 L723.8706,62.3374 Q724.8501,63.0347 725.7673,63.375 Q726.6846,63.7153 727.5811,63.7153 Q728.4858,63.7153 728.9839,63.3044 Q729.4819,62.8936 729.4819,62.1548 Q729.4819,61.5986 729.1499,61.1794 Q728.8179,60.7603 728.187,60.5195 Z "/><text fill="#000000" font-family="sans-serif" font-size="12" lengthAdjust="spacingAndGlyphs" textLength="62" x="748.25" y="63.5352">notification</text><line style="stroke: #A80036; stroke-width: 1.5;" x1="671" x2="855" y1="75" y2="75"/><line style="stroke: #A80036; stroke-width: 1.5;" x1="671" x2="855" y1="83" y2="83"/><rect fill="#F24D5C" height="6" style="stroke: #C82930; stroke-width: 1.0;" width="6" x="678" y="91"/><text fill="#000000" font-family="sans-serif" font-size="11" lengthAdjust="spacingAndGlyphs" textLength="160" x="690" y="97.6348">sendWalletCreditNotification()</text><rect fill="#F24D5C" height="6" style="stroke: #C82930; stroke-width: 1.0;" width="6" x="678" y="103.9551"/><text fill="#000000" font-family="sans-serif" font-size="11" lengthAdjust="spacingAndGlyphs" textLength="155" x="690" y="110.5898">sendWalletDebitNotification()</text><!--MD5=[e68a780eeab3284fa9969a590cae71a1]
class facade.securityCode--><rect fill="#FEFECE" filter="url(#f1ijx34wn9vxoq)" height="73.9102" id="facade.securityCode" style="stroke: #A80036; stroke-width: 1.5;" width="219" x="22.5" y="209.5"/><ellipse cx="90.75" cy="225.5" fill="#7FFFD4" rx="11" ry="11" style="stroke: #A80036; stroke-width: 1.0;"/><path d="M89.9834,226.563 Q88.1323,225.8574 87.4766,225.0813 Q86.8208,224.3052 86.8208,222.9937 Q86.8208,221.3086 87.8999,220.3457 Q88.979,219.3828 90.8633,219.3828 Q91.7183,219.3828 92.5732,219.5779 Q93.4282,219.7729 94.2666,220.1548 L94.2666,222.5454 Q93.478,221.9893 92.6646,221.6987 Q91.8511,221.4082 91.0542,221.4082 Q90.166,221.4082 89.6929,221.7651 Q89.2197,222.1221 89.2197,222.7861 Q89.2197,223.3008 89.5642,223.637 Q89.9087,223.9731 91.0044,224.3799 L92.0586,224.7783 Q93.5527,225.3262 94.2583,226.231 Q94.9639,227.1357 94.9639,228.5137 Q94.9639,230.3896 93.8557,231.3152 Q92.7476,232.2407 90.5063,232.2407 Q89.585,232.2407 88.6594,232.0208 Q87.7339,231.8008 86.8706,231.3691 L86.8706,228.8374 Q87.8501,229.5347 88.7673,229.875 Q89.6846,230.2153 90.5811,230.2153 Q91.4858,230.2153 91.9839,229.8044 Q92.4819,229.3936 92.4819,228.6548 Q92.4819,228.0986 92.1499,227.6794 Q91.8179,227.2603 91.187,227.0195 Z "/><text fill="#000000" font-family="sans-serif" font-size="12" lengthAdjust="spacingAndGlyphs" textLength="74" x="111.25" y="230.0352">securityCode</text><line style="stroke: #A80036; stroke-width: 1.5;" x1="23.5" x2="240.5" y1="241.5" y2="241.5"/><rect fill="none" height="6" style="stroke: #C82930; stroke-width: 1.0;" width="6" x="30.5" y="249.5"/><text fill="#000000" font-family="sans-serif" font-size="11" lengthAdjust="spacingAndGlyphs" textLength="43" x="42.5" y="256.1348">code int</text><line style="stroke: #A80036; stroke-width: 1.5;" x1="23.5" x2="240.5" y1="262.4551" y2="262.4551"/><rect fill="#F24D5C" height="6" style="stroke: #C82930; stroke-width: 1.0;" width="6" x="30.5" y="270.4551"/><text fill="#000000" font-family="sans-serif" font-size="11" lengthAdjust="spacingAndGlyphs" textLength="193" x="42.5" y="277.0898">checkCode(incomingCode int) error</text><!--MD5=[a0cbd5f1b28174dd6474a65517ef7554]
class facade.wallet--><rect fill="#FEFECE" filter="url(#f1ijx34wn9vxoq)" height="86.8652" id="facade.wallet" style="stroke: #A80036; stroke-width: 1.5;" width="190" x="277" y="203"/><ellipse cx="351.25" cy="219" fill="#7FFFD4" rx="11" ry="11" style="stroke: #A80036; stroke-width: 1.0;"/><path d="M350.4834,220.063 Q348.6323,219.3574 347.9766,218.5813 Q347.3208,217.8052 347.3208,216.4937 Q347.3208,214.8086 348.3999,213.8457 Q349.479,212.8828 351.3633,212.8828 Q352.2183,212.8828 353.0732,213.0779 Q353.9282,213.2729 354.7666,213.6548 L354.7666,216.0454 Q353.978,215.4893 353.1646,215.1987 Q352.3511,214.9082 351.5542,214.9082 Q350.666,214.9082 350.1929,215.2651 Q349.7197,215.6221 349.7197,216.2861 Q349.7197,216.8008 350.0642,217.137 Q350.4087,217.4731 351.5044,217.8799 L352.5586,218.2783 Q354.0527,218.8262 354.7583,219.731 Q355.4639,220.6357 355.4639,222.0137 Q355.4639,223.8896 354.3557,224.8152 Q353.2476,225.7407 351.0063,225.7407 Q350.085,225.7407 349.1594,225.5208 Q348.2339,225.3008 347.3706,224.8691 L347.3706,222.3374 Q348.3501,223.0347 349.2673,223.375 Q350.1846,223.7153 351.0811,223.7153 Q351.9858,223.7153 352.4839,223.3044 Q352.9819,222.8936 352.9819,222.1548 Q352.9819,221.5986 352.6499,221.1794 Q352.3179,220.7603 351.687,220.5195 Z "/><text fill="#000000" font-family="sans-serif" font-size="12" lengthAdjust="spacingAndGlyphs" textLength="33" x="371.75" y="223.5352">wallet</text><line style="stroke: #A80036; stroke-width: 1.5;" x1="278" x2="466" y1="235" y2="235"/><rect fill="none" height="6" style="stroke: #C82930; stroke-width: 1.0;" width="6" x="285" y="243"/><text fill="#000000" font-family="sans-serif" font-size="11" lengthAdjust="spacingAndGlyphs" textLength="58" x="297" y="249.6348">balance int</text><line style="stroke: #A80036; stroke-width: 1.5;" x1="278" x2="466" y1="255.9551" y2="255.9551"/><rect fill="#F24D5C" height="6" style="stroke: #C82930; stroke-width: 1.0;" width="6" x="285" y="263.9551"/><text fill="#000000" font-family="sans-serif" font-size="11" lengthAdjust="spacingAndGlyphs" textLength="137" x="297" y="270.5898">creditBalance(amount int)</text><rect fill="#F24D5C" height="6" style="stroke: #C82930; stroke-width: 1.0;" width="6" x="285" y="276.9102"/><text fill="#000000" font-family="sans-serif" font-size="11" lengthAdjust="spacingAndGlyphs" textLength="164" x="297" y="283.5449">debitBalance(amount int) error</text><!--MD5=[33a0e4a8c1f9b34d6b335e3cffe15c2f]
class facade.walletFacade--><rect fill="#FEFECE" filter="url(#f1ijx34wn9vxoq)" height="138.6855" id="facade.walletFacade" style="stroke: #A80036; stroke-width: 1.5;" width="443" x="502.5" y="177"/><ellipse cx="682.75" cy="193" fill="#7FFFD4" rx="11" ry="11" style="stroke: #A80036; stroke-width: 1.0;"/><path d="M681.9834,194.063 Q680.1323,193.3574 679.4766,192.5813 Q678.8208,191.8052 678.8208,190.4937 Q678.8208,188.8086 679.8999,187.8457 Q680.979,186.8828 682.8633,186.8828 Q683.7183,186.8828 684.5732,187.0779 Q685.4282,187.2729 686.2666,187.6548 L686.2666,190.0454 Q685.478,189.4893 684.6646,189.1987 Q683.8511,188.9082 683.0542,188.9082 Q682.166,188.9082 681.6929,189.2651 Q681.2197,189.6221 681.2197,190.2861 Q681.2197,190.8008 681.5642,191.137 Q681.9087,191.4731 683.0044,191.8799 L684.0586,192.2783 Q685.5527,192.8262 686.2583,193.731 Q686.9639,194.6357 686.9639,196.0137 Q686.9639,197.8896 685.8557,198.8152 Q684.7476,199.7407 682.5063,199.7407 Q681.585,199.7407 680.6594,199.5208 Q679.7339,199.3008 678.8706,198.8691 L678.8706,196.3374 Q679.8501,197.0347 680.7673,197.375 Q681.6846,197.7153 682.5811,197.7153 Q683.4858,197.7153 683.9839,197.3044 Q684.4819,196.8936 684.4819,196.1548 Q684.4819,195.5986 684.1499,195.1794 Q683.8179,194.7603 683.187,194.5195 Z "/><text fill="#000000" font-family="sans-serif" font-size="12" lengthAdjust="spacingAndGlyphs" textLength="74" x="703.25" y="197.5352">walletFacade</text><line style="stroke: #A80036; stroke-width: 1.5;" x1="503.5" x2="944.5" y1="209" y2="209"/><rect fill="none" height="6" style="stroke: #C82930; stroke-width: 1.0;" width="6" x="510.5" y="217"/><text fill="#000000" font-family="sans-serif" font-size="11" lengthAdjust="spacingAndGlyphs" textLength="94" x="522.5" y="223.6348">account *account</text><rect fill="none" height="6" style="stroke: #C82930; stroke-width: 1.0;" width="6" x="510.5" y="229.9551"/><text fill="#000000" font-family="sans-serif" font-size="11" lengthAdjust="spacingAndGlyphs" textLength="68" x="522.5" y="236.5898">wallet *wallet</text><rect fill="none" height="6" style="stroke: #C82930; stroke-width: 1.0;" width="6" x="510.5" y="242.9102"/><text fill="#000000" font-family="sans-serif" font-size="11" lengthAdjust="spacingAndGlyphs" textLength="150" x="522.5" y="249.5449">securityCode *securityCode</text><rect fill="none" height="6" style="stroke: #C82930; stroke-width: 1.0;" width="6" x="510.5" y="255.8652"/><text fill="#000000" font-family="sans-serif" font-size="11" lengthAdjust="spacingAndGlyphs" textLength="130" x="522.5" y="262.5">notification *notification</text><rect fill="none" height="6" style="stroke: #C82930; stroke-width: 1.0;" width="6" x="510.5" y="268.8203"/><text fill="#000000" font-family="sans-serif" font-size="11" lengthAdjust="spacingAndGlyphs" textLength="76" x="522.5" y="275.4551">ledger *ledger</text><line style="stroke: #A80036; stroke-width: 1.5;" x1="503.5" x2="944.5" y1="281.7754" y2="281.7754"/><rect fill="#F24D5C" height="6" style="stroke: #C82930; stroke-width: 1.0;" width="6" x="510.5" y="289.7754"/><text fill="#000000" font-family="sans-serif" font-size="11" lengthAdjust="spacingAndGlyphs" textLength="386" x="522.5" y="296.4102">addMoneyToWallet(accountID string, securityCode int, amount int) error</text><rect fill="#F24D5C" height="6" style="stroke: #C82930; stroke-width: 1.0;" width="6" x="510.5" y="302.7305"/><text fill="#000000" font-family="sans-serif" font-size="11" lengthAdjust="spacingAndGlyphs" textLength="417" x="522.5" y="309.3652">deductMoneyFromWallet(accountID string, securityCode int, amount int) error</text><!--MD5=[ca534b9df0431347140edb1c354e933d]
link facade.account to facade.ledger--><!--MD5=[55edab892aa4ed260fba0efadd8f86fd]
link facade.ledger to facade.notification--><!--MD5=[82028e5d3c416b1582c86bb818e7ae70]
link facade.account to facade.securityCode--><!--MD5=[73ec02f916420d84883fb82204445f66]
link facade.securityCode to facade.wallet--><!--MD5=[a2c70a0455daa47c082d6fa5b2339a8b]
link facade.wallet to facade.walletFacade--><!--MD5=[eb3b20ae4b8600c2941db0506b81a19c]
@startuml
namespace facade {
    class account << (S,Aquamarine) >> {
        - name string

        - checkAccount(accountName string) error

    }
    class ledger << (S,Aquamarine) >> {
        - makeEntry(accountID string, txnType string, amount int) 

    }
    class notification << (S,Aquamarine) >> {
        - sendWalletCreditNotification() 
        - sendWalletDebitNotification() 

    }
    class securityCode << (S,Aquamarine) >> {
        - code int

        - checkCode(incomingCode int) error

    }
    class wallet << (S,Aquamarine) >> {
        - balance int

        - creditBalance(amount int) 
        - debitBalance(amount int) error

    }
    class walletFacade << (S,Aquamarine) >> {
        - account *account
        - wallet *wallet
        - securityCode *securityCode
        - notification *notification
        - ledger *ledger

        - addMoneyToWallet(accountID string, securityCode int, amount int) error
        - deductMoneyFromWallet(accountID string, securityCode int, amount int) error

    }
}


@enduml

PlantUML version 1.2020.10(Sun May 17 17:35:57 CST 2020)
(GPL source distribution)
Java Runtime: OpenJDK Runtime Environment
JVM: OpenJDK 64-Bit Server VM
Java Version: 1.8.0_222-b10
Operating System: Mac OS X
Default Encoding: US-ASCII
Language: en
Country: CN
--></g></svg>