<?xml version="1.0" encoding="UTF-8" standalone="no"?><svg xmlns="http://www.w3.org/2000/svg" xmlns:xlink="http://www.w3.org/1999/xlink" contentScriptType="application/ecmascript" contentStyleType="text/css" height="439px" preserveAspectRatio="none" style="width:1216px;height:439px;" version="1.1" viewBox="0 0 1216 439" width="1216px" zoomAndPan="magnify"><defs><filter height="300%" id="f1q6bo38eo77iv" width="300%" x="-1" y="-1"><feGaussianBlur result="blurOut" stdDeviation="2.0"/><feColorMatrix in="blurOut" result="blurOut2" type="matrix" values="0 0 0 0 0 0 0 0 0 0 0 0 0 0 0 0 0 0 .4 0"/><feOffset dx="4.0" dy="4.0" in="blurOut2" result="blurOut3"/><feBlend in="SourceGraphic" in2="blurOut3" mode="normal"/></filter></defs><g><!--MD5=[75ea3bd801f35bf9c6563570d027214a]
cluster state--><polygon fill="#FFFFFF" filter="url(#f1q6bo38eo77iv)" points="14,16,56,16,63,38.4883,1194,38.4883,1194,427,14,427,14,16" style="stroke: #000000; stroke-width: 1.5;"/><line style="stroke: #000000; stroke-width: 1.5;" x1="14" x2="63" y1="38.4883" y2="38.4883"/><text fill="#000000" font-family="sans-serif" font-size="14" font-weight="bold" lengthAdjust="spacingAndGlyphs" textLength="36" x="18" y="31.5352">state</text><!--MD5=[bb2bc5f7b028aa652603761f10bf9be9]
class state.hasItemState--><rect fill="#FEFECE" filter="url(#f1q6bo38eo77iv)" height="112.7754" id="state.hasItemState" style="stroke: #A80036; stroke-width: 1.5;" width="208" x="22" y="254.5"/><ellipse cx="85.25" cy="270.5" fill="#7FFFD4" rx="11" ry="11" style="stroke: #A80036; stroke-width: 1.0;"/><path d="M84.4834,271.563 Q82.6323,270.8574 81.9766,270.0813 Q81.3208,269.3052 81.3208,267.9937 Q81.3208,266.3086 82.3999,265.3457 Q83.479,264.3828 85.3633,264.3828 Q86.2183,264.3828 87.0732,264.5779 Q87.9282,264.7729 88.7666,265.1548 L88.7666,267.5454 Q87.978,266.9893 87.1646,266.6987 Q86.3511,266.4082 85.5542,266.4082 Q84.666,266.4082 84.1929,266.7651 Q83.7197,267.1221 83.7197,267.7861 Q83.7197,268.3008 84.0642,268.637 Q84.4087,268.9731 85.5044,269.3799 L86.5586,269.7783 Q88.0527,270.3262 88.7583,271.231 Q89.4639,272.1357 89.4639,273.5137 Q89.4639,275.3896 88.3557,276.3152 Q87.2476,277.2407 85.0063,277.2407 Q84.085,277.2407 83.1594,277.0208 Q82.2339,276.8008 81.3706,276.3691 L81.3706,273.8374 Q82.3501,274.5347 83.2673,274.875 Q84.1846,275.2153 85.0811,275.2153 Q85.9858,275.2153 86.4839,274.8044 Q86.9819,274.3936 86.9819,273.6548 Q86.9819,273.0986 86.6499,272.6794 Q86.3179,272.2603 85.687,272.0195 Z "/><text fill="#000000" font-family="sans-serif" font-size="12" lengthAdjust="spacingAndGlyphs" textLength="73" x="105.75" y="275.0352">hasItemState</text><line style="stroke: #A80036; stroke-width: 1.5;" x1="23" x2="229" y1="286.5" y2="286.5"/><rect fill="none" height="6" style="stroke: #C82930; stroke-width: 1.0;" width="6" x="30" y="294.5"/><text fill="#000000" font-family="sans-serif" font-size="11" lengthAdjust="spacingAndGlyphs" textLength="182" x="42" y="301.1348">vendingMachine *vendingMachine</text><line style="stroke: #A80036; stroke-width: 1.5;" x1="23" x2="229" y1="307.4551" y2="307.4551"/><rect fill="#F24D5C" height="6" style="stroke: #C82930; stroke-width: 1.0;" width="6" x="30" y="315.4551"/><text fill="#000000" font-family="sans-serif" font-size="11" lengthAdjust="spacingAndGlyphs" textLength="103" x="42" y="322.0898">requestItem() error</text><rect fill="#F24D5C" height="6" style="stroke: #C82930; stroke-width: 1.0;" width="6" x="30" y="328.4102"/><text fill="#000000" font-family="sans-serif" font-size="11" lengthAdjust="spacingAndGlyphs" textLength="130" x="42" y="335.0449">addItem(count int) error</text><rect fill="#F24D5C" height="6" style="stroke: #C82930; stroke-width: 1.0;" width="6" x="30" y="341.3652"/><text fill="#000000" font-family="sans-serif" font-size="11" lengthAdjust="spacingAndGlyphs" textLength="158" x="42" y="348">insertMoney(money int) error</text><rect fill="#F24D5C" height="6" style="stroke: #C82930; stroke-width: 1.0;" width="6" x="30" y="354.3203"/><text fill="#000000" font-family="sans-serif" font-size="11" lengthAdjust="spacingAndGlyphs" textLength="110" x="42" y="360.9551">dispenseItem() error</text><!--MD5=[ca2cc9471017a7ea38d93d417691d374]
class state.hasMoneyState--><rect fill="#FEFECE" filter="url(#f1q6bo38eo77iv)" height="112.7754" id="state.hasMoneyState" style="stroke: #A80036; stroke-width: 1.5;" width="208" x="265" y="254.5"/><ellipse cx="322.25" cy="270.5" fill="#7FFFD4" rx="11" ry="11" style="stroke: #A80036; stroke-width: 1.0;"/><path d="M321.4834,271.563 Q319.6323,270.8574 318.9766,270.0813 Q318.3208,269.3052 318.3208,267.9937 Q318.3208,266.3086 319.3999,265.3457 Q320.479,264.3828 322.3633,264.3828 Q323.2183,264.3828 324.0732,264.5779 Q324.9282,264.7729 325.7666,265.1548 L325.7666,267.5454 Q324.978,266.9893 324.1646,266.6987 Q323.3511,266.4082 322.5542,266.4082 Q321.666,266.4082 321.1929,266.7651 Q320.7197,267.1221 320.7197,267.7861 Q320.7197,268.3008 321.0642,268.637 Q321.4087,268.9731 322.5044,269.3799 L323.5586,269.7783 Q325.0527,270.3262 325.7583,271.231 Q326.4639,272.1357 326.4639,273.5137 Q326.4639,275.3896 325.3557,276.3152 Q324.2476,277.2407 322.0063,277.2407 Q321.085,277.2407 320.1594,277.0208 Q319.2339,276.8008 318.3706,276.3691 L318.3706,273.8374 Q319.3501,274.5347 320.2673,274.875 Q321.1846,275.2153 322.0811,275.2153 Q322.9858,275.2153 323.4839,274.8044 Q323.9819,274.3936 323.9819,273.6548 Q323.9819,273.0986 323.6499,272.6794 Q323.3179,272.2603 322.687,272.0195 Z "/><text fill="#000000" font-family="sans-serif" font-size="12" lengthAdjust="spacingAndGlyphs" textLength="85" x="342.75" y="275.0352">hasMoneyState</text><line style="stroke: #A80036; stroke-width: 1.5;" x1="266" x2="472" y1="286.5" y2="286.5"/><rect fill="none" height="6" style="stroke: #C82930; stroke-width: 1.0;" width="6" x="273" y="294.5"/><text fill="#000000" font-family="sans-serif" font-size="11" lengthAdjust="spacingAndGlyphs" textLength="182" x="285" y="301.1348">vendingMachine *vendingMachine</text><line style="stroke: #A80036; stroke-width: 1.5;" x1="266" x2="472" y1="307.4551" y2="307.4551"/><rect fill="#F24D5C" height="6" style="stroke: #C82930; stroke-width: 1.0;" width="6" x="273" y="315.4551"/><text fill="#000000" font-family="sans-serif" font-size="11" lengthAdjust="spacingAndGlyphs" textLength="103" x="285" y="322.0898">requestItem() error</text><rect fill="#F24D5C" height="6" style="stroke: #C82930; stroke-width: 1.0;" width="6" x="273" y="328.4102"/><text fill="#000000" font-family="sans-serif" font-size="11" lengthAdjust="spacingAndGlyphs" textLength="130" x="285" y="335.0449">addItem(count int) error</text><rect fill="#F24D5C" height="6" style="stroke: #C82930; stroke-width: 1.0;" width="6" x="273" y="341.3652"/><text fill="#000000" font-family="sans-serif" font-size="11" lengthAdjust="spacingAndGlyphs" textLength="158" x="285" y="348">insertMoney(money int) error</text><rect fill="#F24D5C" height="6" style="stroke: #C82930; stroke-width: 1.0;" width="6" x="273" y="354.3203"/><text fill="#000000" font-family="sans-serif" font-size="11" lengthAdjust="spacingAndGlyphs" textLength="110" x="285" y="360.9551">dispenseItem() error</text><!--MD5=[206016b65cc36166a91cb81ce91cff13]
class state.itemRequestedState--><rect fill="#FEFECE" filter="url(#f1q6bo38eo77iv)" height="112.7754" id="state.itemRequestedState" style="stroke: #A80036; stroke-width: 1.5;" width="208" x="508" y="254.5"/><ellipse cx="550.45" cy="270.5" fill="#7FFFD4" rx="11" ry="11" style="stroke: #A80036; stroke-width: 1.0;"/><path d="M549.6834,271.563 Q547.8323,270.8574 547.1766,270.0813 Q546.5208,269.3052 546.5208,267.9937 Q546.5208,266.3086 547.5999,265.3457 Q548.679,264.3828 550.5633,264.3828 Q551.4183,264.3828 552.2732,264.5779 Q553.1282,264.7729 553.9666,265.1548 L553.9666,267.5454 Q553.178,266.9893 552.3646,266.6987 Q551.5511,266.4082 550.7542,266.4082 Q549.866,266.4082 549.3929,266.7651 Q548.9197,267.1221 548.9197,267.7861 Q548.9197,268.3008 549.2642,268.637 Q549.6087,268.9731 550.7044,269.3799 L551.7586,269.7783 Q553.2527,270.3262 553.9583,271.231 Q554.6639,272.1357 554.6639,273.5137 Q554.6639,275.3896 553.5557,276.3152 Q552.4476,277.2407 550.2063,277.2407 Q549.285,277.2407 548.3594,277.0208 Q547.4339,276.8008 546.5706,276.3691 L546.5706,273.8374 Q547.5501,274.5347 548.4673,274.875 Q549.3846,275.2153 550.2811,275.2153 Q551.1858,275.2153 551.6839,274.8044 Q552.1819,274.3936 552.1819,273.6548 Q552.1819,273.0986 551.8499,272.6794 Q551.5179,272.2603 550.887,272.0195 Z "/><text fill="#000000" font-family="sans-serif" font-size="12" lengthAdjust="spacingAndGlyphs" textLength="115" x="570.55" y="275.0352">itemRequestedState</text><line style="stroke: #A80036; stroke-width: 1.5;" x1="509" x2="715" y1="286.5" y2="286.5"/><rect fill="none" height="6" style="stroke: #C82930; stroke-width: 1.0;" width="6" x="516" y="294.5"/><text fill="#000000" font-family="sans-serif" font-size="11" lengthAdjust="spacingAndGlyphs" textLength="182" x="528" y="301.1348">vendingMachine *vendingMachine</text><line style="stroke: #A80036; stroke-width: 1.5;" x1="509" x2="715" y1="307.4551" y2="307.4551"/><rect fill="#F24D5C" height="6" style="stroke: #C82930; stroke-width: 1.0;" width="6" x="516" y="315.4551"/><text fill="#000000" font-family="sans-serif" font-size="11" lengthAdjust="spacingAndGlyphs" textLength="103" x="528" y="322.0898">requestItem() error</text><rect fill="#F24D5C" height="6" style="stroke: #C82930; stroke-width: 1.0;" width="6" x="516" y="328.4102"/><text fill="#000000" font-family="sans-serif" font-size="11" lengthAdjust="spacingAndGlyphs" textLength="130" x="528" y="335.0449">addItem(count int) error</text><rect fill="#F24D5C" height="6" style="stroke: #C82930; stroke-width: 1.0;" width="6" x="516" y="341.3652"/><text fill="#000000" font-family="sans-serif" font-size="11" lengthAdjust="spacingAndGlyphs" textLength="158" x="528" y="348">insertMoney(money int) error</text><rect fill="#F24D5C" height="6" style="stroke: #C82930; stroke-width: 1.0;" width="6" x="516" y="354.3203"/><text fill="#000000" font-family="sans-serif" font-size="11" lengthAdjust="spacingAndGlyphs" textLength="110" x="528" y="360.9551">dispenseItem() error</text><!--MD5=[0cb0ba1d6a363b0504ff8b735db9847d]
class state.noItemState--><rect fill="#FEFECE" filter="url(#f1q6bo38eo77iv)" height="112.7754" id="state.noItemState" style="stroke: #A80036; stroke-width: 1.5;" width="208" x="751" y="254.5"/><ellipse cx="817.25" cy="270.5" fill="#7FFFD4" rx="11" ry="11" style="stroke: #A80036; stroke-width: 1.0;"/><path d="M816.4834,271.563 Q814.6323,270.8574 813.9766,270.0813 Q813.3208,269.3052 813.3208,267.9937 Q813.3208,266.3086 814.3999,265.3457 Q815.479,264.3828 817.3633,264.3828 Q818.2183,264.3828 819.0732,264.5779 Q819.9282,264.7729 820.7666,265.1548 L820.7666,267.5454 Q819.978,266.9893 819.1646,266.6987 Q818.3511,266.4082 817.5542,266.4082 Q816.666,266.4082 816.1929,266.7651 Q815.7197,267.1221 815.7197,267.7861 Q815.7197,268.3008 816.0642,268.637 Q816.4087,268.9731 817.5044,269.3799 L818.5586,269.7783 Q820.0527,270.3262 820.7583,271.231 Q821.4639,272.1357 821.4639,273.5137 Q821.4639,275.3896 820.3557,276.3152 Q819.2476,277.2407 817.0063,277.2407 Q816.085,277.2407 815.1594,277.0208 Q814.2339,276.8008 813.3706,276.3691 L813.3706,273.8374 Q814.3501,274.5347 815.2673,274.875 Q816.1846,275.2153 817.0811,275.2153 Q817.9858,275.2153 818.4839,274.8044 Q818.9819,274.3936 818.9819,273.6548 Q818.9819,273.0986 818.6499,272.6794 Q818.3179,272.2603 817.687,272.0195 Z "/><text fill="#000000" font-family="sans-serif" font-size="12" lengthAdjust="spacingAndGlyphs" textLength="67" x="837.75" y="275.0352">noItemState</text><line style="stroke: #A80036; stroke-width: 1.5;" x1="752" x2="958" y1="286.5" y2="286.5"/><rect fill="none" height="6" style="stroke: #C82930; stroke-width: 1.0;" width="6" x="759" y="294.5"/><text fill="#000000" font-family="sans-serif" font-size="11" lengthAdjust="spacingAndGlyphs" textLength="182" x="771" y="301.1348">vendingMachine *vendingMachine</text><line style="stroke: #A80036; stroke-width: 1.5;" x1="752" x2="958" y1="307.4551" y2="307.4551"/><rect fill="#F24D5C" height="6" style="stroke: #C82930; stroke-width: 1.0;" width="6" x="759" y="315.4551"/><text fill="#000000" font-family="sans-serif" font-size="11" lengthAdjust="spacingAndGlyphs" textLength="103" x="771" y="322.0898">requestItem() error</text><rect fill="#F24D5C" height="6" style="stroke: #C82930; stroke-width: 1.0;" width="6" x="759" y="328.4102"/><text fill="#000000" font-family="sans-serif" font-size="11" lengthAdjust="spacingAndGlyphs" textLength="130" x="771" y="335.0449">addItem(count int) error</text><rect fill="#F24D5C" height="6" style="stroke: #C82930; stroke-width: 1.0;" width="6" x="759" y="341.3652"/><text fill="#000000" font-family="sans-serif" font-size="11" lengthAdjust="spacingAndGlyphs" textLength="158" x="771" y="348">insertMoney(money int) error</text><rect fill="#F24D5C" height="6" style="stroke: #C82930; stroke-width: 1.0;" width="6" x="759" y="354.3203"/><text fill="#000000" font-family="sans-serif" font-size="11" lengthAdjust="spacingAndGlyphs" textLength="110" x="771" y="360.9551">dispenseItem() error</text><!--MD5=[d51b8da50a3f9b254da887a6b055d18b]
class state.state--><rect fill="#FEFECE" filter="url(#f1q6bo38eo77iv)" height="99.8203" id="state.state" style="stroke: #A80036; stroke-width: 1.5;" width="184" x="520" y="43"/><ellipse cx="593.75" cy="59" fill="#B4A7E5" rx="11" ry="11" style="stroke: #A80036; stroke-width: 1.0;"/><path d="M590.1777,55.2651 L590.1777,53.1069 L597.5571,53.1069 L597.5571,55.2651 L595.0918,55.2651 L595.0918,63.3418 L597.5571,63.3418 L597.5571,65.5 L590.1777,65.5 L590.1777,63.3418 L592.6431,63.3418 L592.6431,55.2651 Z "/><text fill="#000000" font-family="sans-serif" font-size="12" font-style="italic" lengthAdjust="spacingAndGlyphs" textLength="28" x="614.25" y="63.5352">state</text><line style="stroke: #A80036; stroke-width: 1.5;" x1="521" x2="703" y1="75" y2="75"/><line style="stroke: #A80036; stroke-width: 1.5;" x1="521" x2="703" y1="83" y2="83"/><rect fill="#F24D5C" height="6" style="stroke: #C82930; stroke-width: 1.0;" width="6" x="528" y="91"/><text fill="#000000" font-family="sans-serif" font-size="11" lengthAdjust="spacingAndGlyphs" textLength="99" x="540" y="97.6348">addItem( int) error</text><rect fill="#F24D5C" height="6" style="stroke: #C82930; stroke-width: 1.0;" width="6" x="528" y="103.9551"/><text fill="#000000" font-family="sans-serif" font-size="11" lengthAdjust="spacingAndGlyphs" textLength="103" x="540" y="110.5898">requestItem() error</text><rect fill="#F24D5C" height="6" style="stroke: #C82930; stroke-width: 1.0;" width="6" x="528" y="116.9102"/><text fill="#000000" font-family="sans-serif" font-size="11" lengthAdjust="spacingAndGlyphs" textLength="158" x="540" y="123.5449">insertMoney(money int) error</text><rect fill="#F24D5C" height="6" style="stroke: #C82930; stroke-width: 1.0;" width="6" x="528" y="129.8652"/><text fill="#000000" font-family="sans-serif" font-size="11" lengthAdjust="spacingAndGlyphs" textLength="110" x="540" y="136.5">dispenseItem() error</text><!--MD5=[53ebf5363e7e63a5666792c9e9c0afa9]
class state.vendingMachine--><rect fill="#FEFECE" filter="url(#f1q6bo38eo77iv)" height="216.416" id="state.vendingMachine" style="stroke: #A80036; stroke-width: 1.5;" width="192" x="994" y="203"/><ellipse cx="1039.75" cy="219" fill="#7FFFD4" rx="11" ry="11" style="stroke: #A80036; stroke-width: 1.0;"/><path d="M1038.9834,220.063 Q1037.1323,219.3574 1036.4766,218.5813 Q1035.8208,217.8052 1035.8208,216.4937 Q1035.8208,214.8086 1036.8999,213.8457 Q1037.979,212.8828 1039.8633,212.8828 Q1040.7183,212.8828 1041.5732,213.0779 Q1042.4282,213.2729 1043.2666,213.6548 L1043.2666,216.0454 Q1042.478,215.4893 1041.6646,215.1987 Q1040.8511,214.9082 1040.0542,214.9082 Q1039.166,214.9082 1038.6929,215.2651 Q1038.2197,215.6221 1038.2197,216.2861 Q1038.2197,216.8008 1038.5642,217.137 Q1038.9087,217.4731 1040.0044,217.8799 L1041.0586,218.2783 Q1042.5527,218.8262 1043.2583,219.731 Q1043.9639,220.6357 1043.9639,222.0137 Q1043.9639,223.8896 1042.8557,224.8152 Q1041.7476,225.7407 1039.5063,225.7407 Q1038.585,225.7407 1037.6594,225.5208 Q1036.7339,225.3008 1035.8706,224.8691 L1035.8706,222.3374 Q1036.8501,223.0347 1037.7673,223.375 Q1038.6846,223.7153 1039.5811,223.7153 Q1040.4858,223.7153 1040.9839,223.3044 Q1041.4819,222.8936 1041.4819,222.1548 Q1041.4819,221.5986 1041.1499,221.1794 Q1040.8179,220.7603 1040.187,220.5195 Z "/><text fill="#000000" font-family="sans-serif" font-size="12" lengthAdjust="spacingAndGlyphs" textLength="92" x="1060.25" y="223.5352">vendingMachine</text><line style="stroke: #A80036; stroke-width: 1.5;" x1="995" x2="1185" y1="235" y2="235"/><rect fill="none" height="6" style="stroke: #C82930; stroke-width: 1.0;" width="6" x="1002" y="243"/><text fill="#000000" font-family="sans-serif" font-size="11" lengthAdjust="spacingAndGlyphs" textLength="71" x="1014" y="249.6348">hasItem state</text><rect fill="none" height="6" style="stroke: #C82930; stroke-width: 1.0;" width="6" x="1002" y="255.9551"/><text fill="#000000" font-family="sans-serif" font-size="11" lengthAdjust="spacingAndGlyphs" textLength="108" x="1014" y="262.5898">itemRequested state</text><rect fill="none" height="6" style="stroke: #C82930; stroke-width: 1.0;" width="6" x="1002" y="268.9102"/><text fill="#000000" font-family="sans-serif" font-size="11" lengthAdjust="spacingAndGlyphs" textLength="83" x="1014" y="275.5449">hasMoney state</text><rect fill="none" height="6" style="stroke: #C82930; stroke-width: 1.0;" width="6" x="1002" y="281.8652"/><text fill="#000000" font-family="sans-serif" font-size="11" lengthAdjust="spacingAndGlyphs" textLength="66" x="1014" y="288.5">noItem state</text><rect fill="none" height="6" style="stroke: #C82930; stroke-width: 1.0;" width="6" x="1002" y="294.8203"/><text fill="#000000" font-family="sans-serif" font-size="11" lengthAdjust="spacingAndGlyphs" textLength="95" x="1014" y="301.4551">currentState state</text><rect fill="none" height="6" style="stroke: #C82930; stroke-width: 1.0;" width="6" x="1002" y="307.7754"/><text fill="#000000" font-family="sans-serif" font-size="11" lengthAdjust="spacingAndGlyphs" textLength="73" x="1014" y="314.4102">itemCount int</text><rect fill="none" height="6" style="stroke: #C82930; stroke-width: 1.0;" width="6" x="1002" y="320.7305"/><text fill="#000000" font-family="sans-serif" font-size="11" lengthAdjust="spacingAndGlyphs" textLength="66" x="1014" y="327.3652">itemPrice int</text><line style="stroke: #A80036; stroke-width: 1.5;" x1="995" x2="1185" y1="333.6855" y2="333.6855"/><rect fill="#F24D5C" height="6" style="stroke: #C82930; stroke-width: 1.0;" width="6" x="1002" y="341.6855"/><text fill="#000000" font-family="sans-serif" font-size="11" lengthAdjust="spacingAndGlyphs" textLength="103" x="1014" y="348.3203">requestItem() error</text><rect fill="#F24D5C" height="6" style="stroke: #C82930; stroke-width: 1.0;" width="6" x="1002" y="354.6406"/><text fill="#000000" font-family="sans-serif" font-size="11" lengthAdjust="spacingAndGlyphs" textLength="130" x="1014" y="361.2754">addItem(count int) error</text><rect fill="#F24D5C" height="6" style="stroke: #C82930; stroke-width: 1.0;" width="6" x="1002" y="367.5957"/><text fill="#000000" font-family="sans-serif" font-size="11" lengthAdjust="spacingAndGlyphs" textLength="158" x="1014" y="374.2305">insertMoney(money int) error</text><rect fill="#F24D5C" height="6" style="stroke: #C82930; stroke-width: 1.0;" width="6" x="1002" y="380.5508"/><text fill="#000000" font-family="sans-serif" font-size="11" lengthAdjust="spacingAndGlyphs" textLength="110" x="1014" y="387.1855">dispenseItem() error</text><rect fill="#F24D5C" height="6" style="stroke: #C82930; stroke-width: 1.0;" width="6" x="1002" y="393.5059"/><text fill="#000000" font-family="sans-serif" font-size="11" lengthAdjust="spacingAndGlyphs" textLength="85" x="1014" y="400.1406">setState(s state)</text><rect fill="#F24D5C" height="6" style="stroke: #C82930; stroke-width: 1.0;" width="6" x="1002" y="406.4609"/><text fill="#000000" font-family="sans-serif" font-size="11" lengthAdjust="spacingAndGlyphs" textLength="166" x="1014" y="413.0957">incrementItemCount(count int)</text><!--MD5=[4fae3a678a3cf6de8c4bd4d25de68114]
reverse link state.state to state.hasItemState--><path d="M499.8933,113.7421 C425.26,130.6377 326.8122,159.0152 248,203 C223.546,216.6477 199.7604,235.8913 179.7833,254.3617 " fill="none" id="state.state&lt;-state.hasItemState" style="stroke: #A80036; stroke-width: 1.0;"/><polygon fill="none" points="498.7524,106.8261,519.7874,109.3813,501.7501,120.5014,498.7524,106.8261" style="stroke: #A80036; stroke-width: 1.0;"/><!--MD5=[70e71ceeb7c32a8a0eaef209cf2e7f70]
reverse link state.state to state.hasMoneyState--><path d="M540.9473,156.7427 C506.522,187.6264 465.5268,224.4039 432.2011,254.301 " fill="none" id="state.state&lt;-state.hasMoneyState" style="stroke: #A80036; stroke-width: 1.0;"/><polygon fill="none" points="536.6892,151.1587,556.2509,143.0136,546.0381,161.5797,536.6892,151.1587" style="stroke: #A80036; stroke-width: 1.0;"/><!--MD5=[5a3b8e61da313e4d5e00f0df2896e139]
reverse link state.state to state.itemRequestedState--><path d="M612,163.0797 C612,192.5649 612,226.424 612,254.301 " fill="none" id="state.state&lt;-state.itemRequestedState" style="stroke: #A80036; stroke-width: 1.0;"/><polygon fill="none" points="605.0001,163.0136,612,143.0136,619.0001,163.0136,605.0001,163.0136" style="stroke: #A80036; stroke-width: 1.0;"/><!--MD5=[ea3062b374ad59f99fad6d1288861136]
reverse link state.state to state.noItemState--><path d="M683.0527,156.7427 C717.478,187.6264 758.4732,224.4039 791.7989,254.301 " fill="none" id="state.state&lt;-state.noItemState" style="stroke: #A80036; stroke-width: 1.0;"/><polygon fill="none" points="677.9619,161.5797,667.7491,143.0136,687.3108,151.1587,677.9619,161.5797" style="stroke: #A80036; stroke-width: 1.0;"/><!--MD5=[65d9b08ac525671d779d9cbffc169589]
reverse link state.state to state.vendingMachine--><path d="M724.219,112.5474 C799.3894,128.9751 898.5662,157.2815 977,203 C982.744,206.3482 988.4236,210.0446 993.9985,213.9921 " fill="none" id="state.state&lt;-state.vendingMachine" style="stroke: #A80036; stroke-width: 1.0;"/><polygon fill="none" points="722.3092,119.2987,704.183,108.3242,725.1967,105.5997,722.3092,119.2987" style="stroke: #A80036; stroke-width: 1.0;"/><!--MD5=[9f247e5870c44d0c236cab2e6506de3a]
@startuml
namespace state {
    class hasItemState << (S,Aquamarine) >> {
        - vendingMachine *vendingMachine

        - requestItem() error
        - addItem(count int) error
        - insertMoney(money int) error
        - dispenseItem() error

    }
    class hasMoneyState << (S,Aquamarine) >> {
        - vendingMachine *vendingMachine

        - requestItem() error
        - addItem(count int) error
        - insertMoney(money int) error
        - dispenseItem() error

    }
    class itemRequestedState << (S,Aquamarine) >> {
        - vendingMachine *vendingMachine

        - requestItem() error
        - addItem(count int) error
        - insertMoney(money int) error
        - dispenseItem() error

    }
    class noItemState << (S,Aquamarine) >> {
        - vendingMachine *vendingMachine

        - requestItem() error
        - addItem(count int) error
        - insertMoney(money int) error
        - dispenseItem() error

    }
    interface state  {
        - addItem( int) error
        - requestItem() error
        - insertMoney(money int) error
        - dispenseItem() error

    }
    class vendingMachine << (S,Aquamarine) >> {
        - hasItem state
        - itemRequested state
        - hasMoney state
        - noItem state
        - currentState state
        - itemCount int
        - itemPrice int

        - requestItem() error
        - addItem(count int) error
        - insertMoney(money int) error
        - dispenseItem() error
        - setState(s state) 
        - incrementItemCount(count int) 

    }
}

"state.state" <|- - "state.hasItemState"
"state.state" <|- - "state.hasMoneyState"
"state.state" <|- - "state.itemRequestedState"
"state.state" <|- - "state.noItemState"
"state.state" <|- - "state.vendingMachine"

@enduml

PlantUML version 1.2020.10(Sun May 17 17:35:57 CST 2020)
(GPL source distribution)
Java Runtime: OpenJDK Runtime Environment
JVM: OpenJDK 64-Bit Server VM
Java Version: 1.8.0_222-b10
Operating System: Mac OS X
Default Encoding: US-ASCII
Language: en
Country: CN
--></g></svg>