<?xml version="1.0" encoding="UTF-8" standalone="no"?><svg xmlns="http://www.w3.org/2000/svg" xmlns:xlink="http://www.w3.org/1999/xlink" contentScriptType="application/ecmascript" contentStyleType="text/css" height="323px" preserveAspectRatio="none" style="width:926px;height:323px;" version="1.1" viewBox="0 0 926 323" width="926px" zoomAndPan="magnify"><defs><filter height="300%" id="f1lkuekqpncdh5" width="300%" x="-1" y="-1"><feGaussianBlur result="blurOut" stdDeviation="2.0"/><feColorMatrix in="blurOut" result="blurOut2" type="matrix" values="0 0 0 0 0 0 0 0 0 0 0 0 0 0 0 0 0 0 .4 0"/><feOffset dx="4.0" dy="4.0" in="blurOut2" result="blurOut3"/><feBlend in="SourceGraphic" in2="blurOut3" mode="normal"/></filter></defs><g><!--MD5=[5ea3ab06dfdd95f8e6aa6bd8e06d03e8]
cluster abstractfactory--><polygon fill="#FFFFFF" filter="url(#f1lkuekqpncdh5)" points="14,16,128,16,135,38.4883,904,38.4883,904,311,14,311,14,16" style="stroke: #000000; stroke-width: 1.5;"/><line style="stroke: #000000; stroke-width: 1.5;" x1="14" x2="135" y1="38.4883" y2="38.4883"/><text fill="#000000" font-family="sans-serif" font-size="14" font-weight="bold" lengthAdjust="spacingAndGlyphs" textLength="108" x="18" y="31.5352">abstractfactory</text><!--MD5=[60c4ae89eab4b22c55c80f1a45d7a41f]
class abstractfactory.adidas--><rect fill="#FEFECE" filter="url(#f1lkuekqpncdh5)" height="73.9102" id="abstractfactory.adidas" style="stroke: #A80036; stroke-width: 1.5;" width="123" x="22.5" y="229"/><ellipse cx="60.9" cy="245" fill="#7FFFD4" rx="11" ry="11" style="stroke: #A80036; stroke-width: 1.0;"/><path d="M60.1334,246.063 Q58.2823,245.3574 57.6266,244.5813 Q56.9708,243.8052 56.9708,242.4937 Q56.9708,240.8086 58.0499,239.8457 Q59.129,238.8828 61.0133,238.8828 Q61.8683,238.8828 62.7232,239.0779 Q63.5782,239.2729 64.4166,239.6548 L64.4166,242.0454 Q63.628,241.4893 62.8146,241.1987 Q62.0011,240.9082 61.2042,240.9082 Q60.316,240.9082 59.8429,241.2651 Q59.3697,241.6221 59.3697,242.2861 Q59.3697,242.8008 59.7142,243.137 Q60.0587,243.4731 61.1544,243.8799 L62.2086,244.2783 Q63.7027,244.8262 64.4083,245.731 Q65.1139,246.6357 65.1139,248.0137 Q65.1139,249.8896 64.0057,250.8152 Q62.8976,251.7407 60.6563,251.7407 Q59.735,251.7407 58.8094,251.5208 Q57.8839,251.3008 57.0206,250.8691 L57.0206,248.3374 Q58.0001,249.0347 58.9173,249.375 Q59.8346,249.7153 60.7311,249.7153 Q61.6358,249.7153 62.1339,249.3044 Q62.6319,248.8936 62.6319,248.1548 Q62.6319,247.5986 62.2999,247.1794 Q61.9679,246.7603 61.337,246.5195 Z "/><text fill="#000000" font-family="sans-serif" font-size="12" lengthAdjust="spacingAndGlyphs" textLength="39" x="80.1" y="249.5352">adidas</text><line style="stroke: #A80036; stroke-width: 1.5;" x1="23.5" x2="144.5" y1="261" y2="261"/><line style="stroke: #A80036; stroke-width: 1.5;" x1="23.5" x2="144.5" y1="269" y2="269"/><rect fill="#F24D5C" height="6" style="stroke: #C82930; stroke-width: 1.0;" width="6" x="30.5" y="277"/><text fill="#000000" font-family="sans-serif" font-size="11" lengthAdjust="spacingAndGlyphs" textLength="91" x="42.5" y="283.6348">makeShoe() shoe</text><rect fill="#F24D5C" height="6" style="stroke: #C82930; stroke-width: 1.0;" width="6" x="30.5" y="289.9551"/><text fill="#000000" font-family="sans-serif" font-size="11" lengthAdjust="spacingAndGlyphs" textLength="97" x="42.5" y="296.5898">makeShort() short</text><!--MD5=[283429c257ed81bb564561a6fd8b98c2]
class abstractfactory.adidasShoe--><rect fill="#FEFECE" filter="url(#f1lkuekqpncdh5)" height="60.9551" id="abstractfactory.adidasShoe" style="stroke: #A80036; stroke-width: 1.5;" width="113" x="634.5" y="235.5"/><ellipse cx="656.25" cy="251.5" fill="#7FFFD4" rx="11" ry="11" style="stroke: #A80036; stroke-width: 1.0;"/><path d="M655.4834,252.563 Q653.6323,251.8574 652.9766,251.0813 Q652.3208,250.3052 652.3208,248.9937 Q652.3208,247.3086 653.3999,246.3457 Q654.479,245.3828 656.3633,245.3828 Q657.2183,245.3828 658.0732,245.5779 Q658.9282,245.7729 659.7666,246.1548 L659.7666,248.5454 Q658.978,247.9893 658.1646,247.6987 Q657.3511,247.4082 656.5542,247.4082 Q655.666,247.4082 655.1929,247.7651 Q654.7197,248.1221 654.7197,248.7861 Q654.7197,249.3008 655.0642,249.637 Q655.4087,249.9731 656.5044,250.3799 L657.5586,250.7783 Q659.0527,251.3262 659.7583,252.231 Q660.4639,253.1357 660.4639,254.5137 Q660.4639,256.3896 659.3557,257.3152 Q658.2476,258.2407 656.0063,258.2407 Q655.085,258.2407 654.1594,258.0208 Q653.2339,257.8008 652.3706,257.3691 L652.3706,254.8374 Q653.3501,255.5347 654.2673,255.875 Q655.1846,256.2153 656.0811,256.2153 Q656.9858,256.2153 657.4839,255.8044 Q657.9819,255.3936 657.9819,254.6548 Q657.9819,254.0986 657.6499,253.6794 Q657.3179,253.2603 656.687,253.0195 Z "/><text fill="#000000" font-family="sans-serif" font-size="12" lengthAdjust="spacingAndGlyphs" textLength="66" x="671.75" y="256.0352">adidasShoe</text><line style="stroke: #A80036; stroke-width: 1.5;" x1="635.5" x2="746.5" y1="267.5" y2="267.5"/><line style="stroke: #A80036; stroke-width: 1.5;" x1="635.5" x2="746.5" y1="275.5" y2="275.5"/><rect fill="#F24D5C" height="6" style="stroke: #C82930; stroke-width: 1.0;" width="6" x="642.5" y="283.5"/><text fill="#000000" font-family="sans-serif" font-size="11" lengthAdjust="spacingAndGlyphs" textLength="87" x="654.5" y="290.1348">getLogo() string</text><!--MD5=[5adf8fe6514676ae51958eb3b7d06576]
class abstractfactory.adidasShort--><rect fill="#FEFECE" filter="url(#f1lkuekqpncdh5)" height="60.9551" id="abstractfactory.adidasShort" style="stroke: #A80036; stroke-width: 1.5;" width="113" x="338.5" y="235.5"/><ellipse cx="359.35" cy="251.5" fill="#7FFFD4" rx="11" ry="11" style="stroke: #A80036; stroke-width: 1.0;"/><path d="M358.5834,252.563 Q356.7323,251.8574 356.0766,251.0813 Q355.4208,250.3052 355.4208,248.9937 Q355.4208,247.3086 356.4999,246.3457 Q357.579,245.3828 359.4633,245.3828 Q360.3183,245.3828 361.1732,245.5779 Q362.0282,245.7729 362.8666,246.1548 L362.8666,248.5454 Q362.078,247.9893 361.2646,247.6987 Q360.4511,247.4082 359.6542,247.4082 Q358.766,247.4082 358.2929,247.7651 Q357.8197,248.1221 357.8197,248.7861 Q357.8197,249.3008 358.1642,249.637 Q358.5087,249.9731 359.6044,250.3799 L360.6586,250.7783 Q362.1527,251.3262 362.8583,252.231 Q363.5639,253.1357 363.5639,254.5137 Q363.5639,256.3896 362.4557,257.3152 Q361.3476,258.2407 359.1063,258.2407 Q358.185,258.2407 357.2594,258.0208 Q356.3339,257.8008 355.4706,257.3691 L355.4706,254.8374 Q356.4501,255.5347 357.3673,255.875 Q358.2846,256.2153 359.1811,256.2153 Q360.0858,256.2153 360.5839,255.8044 Q361.0819,255.3936 361.0819,254.6548 Q361.0819,254.0986 360.7499,253.6794 Q360.4179,253.2603 359.787,253.0195 Z "/><text fill="#000000" font-family="sans-serif" font-size="12" lengthAdjust="spacingAndGlyphs" textLength="68" x="374.65" y="256.0352">adidasShort</text><line style="stroke: #A80036; stroke-width: 1.5;" x1="339.5" x2="450.5" y1="267.5" y2="267.5"/><line style="stroke: #A80036; stroke-width: 1.5;" x1="339.5" x2="450.5" y1="275.5" y2="275.5"/><rect fill="#F24D5C" height="6" style="stroke: #C82930; stroke-width: 1.0;" width="6" x="346.5" y="283.5"/><text fill="#000000" font-family="sans-serif" font-size="11" lengthAdjust="spacingAndGlyphs" textLength="87" x="358.5" y="290.1348">getLogo() string</text><!--MD5=[9063dda5bd55c1289374df4113807228]
class abstractfactory.nike--><rect fill="#FEFECE" filter="url(#f1lkuekqpncdh5)" height="73.9102" id="abstractfactory.nike" style="stroke: #A80036; stroke-width: 1.5;" width="123" x="180.5" y="229"/><ellipse cx="225.75" cy="245" fill="#7FFFD4" rx="11" ry="11" style="stroke: #A80036; stroke-width: 1.0;"/><path d="M224.9834,246.063 Q223.1323,245.3574 222.4766,244.5813 Q221.8208,243.8052 221.8208,242.4937 Q221.8208,240.8086 222.8999,239.8457 Q223.979,238.8828 225.8633,238.8828 Q226.7183,238.8828 227.5732,239.0779 Q228.4282,239.2729 229.2666,239.6548 L229.2666,242.0454 Q228.478,241.4893 227.6646,241.1987 Q226.8511,240.9082 226.0542,240.9082 Q225.166,240.9082 224.6929,241.2651 Q224.2197,241.6221 224.2197,242.2861 Q224.2197,242.8008 224.5642,243.137 Q224.9087,243.4731 226.0044,243.8799 L227.0586,244.2783 Q228.5527,244.8262 229.2583,245.731 Q229.9639,246.6357 229.9639,248.0137 Q229.9639,249.8896 228.8557,250.8152 Q227.7476,251.7407 225.5063,251.7407 Q224.585,251.7407 223.6594,251.5208 Q222.7339,251.3008 221.8706,250.8691 L221.8706,248.3374 Q222.8501,249.0347 223.7673,249.375 Q224.6846,249.7153 225.5811,249.7153 Q226.4858,249.7153 226.9839,249.3044 Q227.4819,248.8936 227.4819,248.1548 Q227.4819,247.5986 227.1499,247.1794 Q226.8179,246.7603 226.187,246.5195 Z "/><text fill="#000000" font-family="sans-serif" font-size="12" lengthAdjust="spacingAndGlyphs" textLength="24" x="246.25" y="249.5352">nike</text><line style="stroke: #A80036; stroke-width: 1.5;" x1="181.5" x2="302.5" y1="261" y2="261"/><line style="stroke: #A80036; stroke-width: 1.5;" x1="181.5" x2="302.5" y1="269" y2="269"/><rect fill="#F24D5C" height="6" style="stroke: #C82930; stroke-width: 1.0;" width="6" x="188.5" y="277"/><text fill="#000000" font-family="sans-serif" font-size="11" lengthAdjust="spacingAndGlyphs" textLength="91" x="200.5" y="283.6348">makeShoe() shoe</text><rect fill="#F24D5C" height="6" style="stroke: #C82930; stroke-width: 1.0;" width="6" x="188.5" y="289.9551"/><text fill="#000000" font-family="sans-serif" font-size="11" lengthAdjust="spacingAndGlyphs" textLength="97" x="200.5" y="296.5898">makeShort() short</text><!--MD5=[71abbfbbdc36defde1e89984b8c4716c]
class abstractfactory.nikeShoe--><rect fill="#FEFECE" filter="url(#f1lkuekqpncdh5)" height="60.9551" id="abstractfactory.nikeShoe" style="stroke: #A80036; stroke-width: 1.5;" width="113" x="782.5" y="235.5"/><ellipse cx="811" cy="251.5" fill="#7FFFD4" rx="11" ry="11" style="stroke: #A80036; stroke-width: 1.0;"/><path d="M810.2334,252.563 Q808.3823,251.8574 807.7266,251.0813 Q807.0708,250.3052 807.0708,248.9937 Q807.0708,247.3086 808.1499,246.3457 Q809.229,245.3828 811.1133,245.3828 Q811.9683,245.3828 812.8232,245.5779 Q813.6782,245.7729 814.5166,246.1548 L814.5166,248.5454 Q813.728,247.9893 812.9146,247.6987 Q812.1011,247.4082 811.3042,247.4082 Q810.416,247.4082 809.9429,247.7651 Q809.4697,248.1221 809.4697,248.7861 Q809.4697,249.3008 809.8142,249.637 Q810.1587,249.9731 811.2544,250.3799 L812.3086,250.7783 Q813.8027,251.3262 814.5083,252.231 Q815.2139,253.1357 815.2139,254.5137 Q815.2139,256.3896 814.1057,257.3152 Q812.9976,258.2407 810.7563,258.2407 Q809.835,258.2407 808.9094,258.0208 Q807.9839,257.8008 807.1206,257.3691 L807.1206,254.8374 Q808.1001,255.5347 809.0173,255.875 Q809.9346,256.2153 810.8311,256.2153 Q811.7358,256.2153 812.2339,255.8044 Q812.7319,255.3936 812.7319,254.6548 Q812.7319,254.0986 812.3999,253.6794 Q812.0679,253.2603 811.437,253.0195 Z "/><text fill="#000000" font-family="sans-serif" font-size="12" lengthAdjust="spacingAndGlyphs" textLength="51" x="828" y="256.0352">nikeShoe</text><line style="stroke: #A80036; stroke-width: 1.5;" x1="783.5" x2="894.5" y1="267.5" y2="267.5"/><line style="stroke: #A80036; stroke-width: 1.5;" x1="783.5" x2="894.5" y1="275.5" y2="275.5"/><rect fill="#F24D5C" height="6" style="stroke: #C82930; stroke-width: 1.0;" width="6" x="790.5" y="283.5"/><text fill="#000000" font-family="sans-serif" font-size="11" lengthAdjust="spacingAndGlyphs" textLength="87" x="802.5" y="290.1348">getLogo() string</text><!--MD5=[bf10ff0b95fb8e2fa87b28f056399a03]
class abstractfactory.nikeShort--><rect fill="#FEFECE" filter="url(#f1lkuekqpncdh5)" height="60.9551" id="abstractfactory.nikeShort" style="stroke: #A80036; stroke-width: 1.5;" width="113" x="486.5" y="235.5"/><ellipse cx="514.1" cy="251.5" fill="#7FFFD4" rx="11" ry="11" style="stroke: #A80036; stroke-width: 1.0;"/><path d="M513.3334,252.563 Q511.4823,251.8574 510.8266,251.0813 Q510.1708,250.3052 510.1708,248.9937 Q510.1708,247.3086 511.2499,246.3457 Q512.329,245.3828 514.2133,245.3828 Q515.0683,245.3828 515.9232,245.5779 Q516.7782,245.7729 517.6166,246.1548 L517.6166,248.5454 Q516.828,247.9893 516.0146,247.6987 Q515.2011,247.4082 514.4042,247.4082 Q513.516,247.4082 513.0429,247.7651 Q512.5697,248.1221 512.5697,248.7861 Q512.5697,249.3008 512.9142,249.637 Q513.2587,249.9731 514.3544,250.3799 L515.4086,250.7783 Q516.9027,251.3262 517.6083,252.231 Q518.3139,253.1357 518.3139,254.5137 Q518.3139,256.3896 517.2057,257.3152 Q516.0976,258.2407 513.8563,258.2407 Q512.935,258.2407 512.0094,258.0208 Q511.0839,257.8008 510.2206,257.3691 L510.2206,254.8374 Q511.2001,255.5347 512.1173,255.875 Q513.0346,256.2153 513.9311,256.2153 Q514.8358,256.2153 515.3339,255.8044 Q515.8319,255.3936 515.8319,254.6548 Q515.8319,254.0986 515.4999,253.6794 Q515.1679,253.2603 514.537,253.0195 Z "/><text fill="#000000" font-family="sans-serif" font-size="12" lengthAdjust="spacingAndGlyphs" textLength="53" x="530.9" y="256.0352">nikeShort</text><line style="stroke: #A80036; stroke-width: 1.5;" x1="487.5" x2="598.5" y1="267.5" y2="267.5"/><line style="stroke: #A80036; stroke-width: 1.5;" x1="487.5" x2="598.5" y1="275.5" y2="275.5"/><rect fill="#F24D5C" height="6" style="stroke: #C82930; stroke-width: 1.0;" width="6" x="494.5" y="283.5"/><text fill="#000000" font-family="sans-serif" font-size="11" lengthAdjust="spacingAndGlyphs" textLength="87" x="506.5" y="290.1348">getLogo() string</text><!--MD5=[35a3360fcbfe15dccba9d1cc043de0f2]
class abstractfactory.shoe--><rect fill="#FEFECE" filter="url(#f1lkuekqpncdh5)" height="99.8203" id="abstractfactory.shoe" style="stroke: #A80036; stroke-width: 1.5;" width="136" x="760" y="56"/><ellipse cx="810.25" cy="72" fill="#B4A7E5" rx="11" ry="11" style="stroke: #A80036; stroke-width: 1.0;"/><path d="M806.6777,68.2651 L806.6777,66.1069 L814.0571,66.1069 L814.0571,68.2651 L811.5918,68.2651 L811.5918,76.3418 L814.0571,76.3418 L814.0571,78.5 L806.6777,78.5 L806.6777,76.3418 L809.1431,76.3418 L809.1431,68.2651 Z "/><text fill="#000000" font-family="sans-serif" font-size="12" font-style="italic" lengthAdjust="spacingAndGlyphs" textLength="27" x="830.75" y="76.5352">shoe</text><line style="stroke: #A80036; stroke-width: 1.5;" x1="761" x2="895" y1="88" y2="88"/><line style="stroke: #A80036; stroke-width: 1.5;" x1="761" x2="895" y1="96" y2="96"/><rect fill="#F24D5C" height="6" style="stroke: #C82930; stroke-width: 1.0;" width="6" x="768" y="104"/><text fill="#000000" font-family="sans-serif" font-size="11" lengthAdjust="spacingAndGlyphs" textLength="110" x="780" y="110.6348">setLogo(logo string)</text><rect fill="#F24D5C" height="6" style="stroke: #C82930; stroke-width: 1.0;" width="6" x="768" y="116.9551"/><text fill="#000000" font-family="sans-serif" font-size="11" lengthAdjust="spacingAndGlyphs" textLength="83" x="780" y="123.5898">setSize(size int)</text><rect fill="#F24D5C" height="6" style="stroke: #C82930; stroke-width: 1.0;" width="6" x="768" y="129.9102"/><text fill="#000000" font-family="sans-serif" font-size="11" lengthAdjust="spacingAndGlyphs" textLength="87" x="780" y="136.5449">getLogo() string</text><rect fill="#F24D5C" height="6" style="stroke: #C82930; stroke-width: 1.0;" width="6" x="768" y="142.8652"/><text fill="#000000" font-family="sans-serif" font-size="11" lengthAdjust="spacingAndGlyphs" textLength="63" x="780" y="149.5">getSize() int</text><!--MD5=[880d5791c29a2854fb531ddbff874a6e]
class abstractfactory.shoeItem--><rect fill="#FEFECE" filter="url(#f1lkuekqpncdh5)" height="125.7305" id="abstractfactory.shoeItem" style="stroke: #A80036; stroke-width: 1.5;" width="136" x="589" y="43"/><ellipse cx="627.4" cy="59" fill="#7FFFD4" rx="11" ry="11" style="stroke: #A80036; stroke-width: 1.0;"/><path d="M626.6334,60.063 Q624.7823,59.3574 624.1266,58.5813 Q623.4708,57.8052 623.4708,56.4937 Q623.4708,54.8086 624.5499,53.8457 Q625.629,52.8828 627.5133,52.8828 Q628.3683,52.8828 629.2232,53.0779 Q630.0782,53.2729 630.9166,53.6548 L630.9166,56.0454 Q630.128,55.4893 629.3146,55.1987 Q628.5011,54.9082 627.7042,54.9082 Q626.816,54.9082 626.3429,55.2651 Q625.8697,55.6221 625.8697,56.2861 Q625.8697,56.8008 626.2142,57.137 Q626.5587,57.4731 627.6544,57.8799 L628.7086,58.2783 Q630.2027,58.8262 630.9083,59.731 Q631.6139,60.6357 631.6139,62.0137 Q631.6139,63.8896 630.5057,64.8152 Q629.3976,65.7407 627.1563,65.7407 Q626.235,65.7407 625.3094,65.5208 Q624.3839,65.3008 623.5206,64.8691 L623.5206,62.3374 Q624.5001,63.0347 625.4173,63.375 Q626.3346,63.7153 627.2311,63.7153 Q628.1358,63.7153 628.6339,63.3044 Q629.1319,62.8936 629.1319,62.1548 Q629.1319,61.5986 628.7999,61.1794 Q628.4679,60.7603 627.837,60.5195 Z "/><text fill="#000000" font-family="sans-serif" font-size="12" lengthAdjust="spacingAndGlyphs" textLength="52" x="646.6" y="63.5352">shoeItem</text><line style="stroke: #A80036; stroke-width: 1.5;" x1="590" x2="724" y1="75" y2="75"/><rect fill="none" height="6" style="stroke: #C82930; stroke-width: 1.0;" width="6" x="597" y="83"/><text fill="#000000" font-family="sans-serif" font-size="11" lengthAdjust="spacingAndGlyphs" textLength="59" x="609" y="89.6348">logo string</text><rect fill="none" height="6" style="stroke: #C82930; stroke-width: 1.0;" width="6" x="597" y="95.9551"/><text fill="#000000" font-family="sans-serif" font-size="11" lengthAdjust="spacingAndGlyphs" textLength="38" x="609" y="102.5898">size int</text><line style="stroke: #A80036; stroke-width: 1.5;" x1="590" x2="724" y1="108.9102" y2="108.9102"/><rect fill="#F24D5C" height="6" style="stroke: #C82930; stroke-width: 1.0;" width="6" x="597" y="116.9102"/><text fill="#000000" font-family="sans-serif" font-size="11" lengthAdjust="spacingAndGlyphs" textLength="110" x="609" y="123.5449">setLogo(logo string)</text><rect fill="#F24D5C" height="6" style="stroke: #C82930; stroke-width: 1.0;" width="6" x="597" y="129.8652"/><text fill="#000000" font-family="sans-serif" font-size="11" lengthAdjust="spacingAndGlyphs" textLength="83" x="609" y="136.5">getLost() string</text><rect fill="#F24D5C" height="6" style="stroke: #C82930; stroke-width: 1.0;" width="6" x="597" y="142.8203"/><text fill="#000000" font-family="sans-serif" font-size="11" lengthAdjust="spacingAndGlyphs" textLength="83" x="609" y="149.4551">setSize(size int)</text><rect fill="#F24D5C" height="6" style="stroke: #C82930; stroke-width: 1.0;" width="6" x="597" y="155.7754"/><text fill="#000000" font-family="sans-serif" font-size="11" lengthAdjust="spacingAndGlyphs" textLength="63" x="609" y="162.4102">getSize() int</text><!--MD5=[96474cedce3c2032402900a83f91ce09]
class abstractfactory.short--><rect fill="#FEFECE" filter="url(#f1lkuekqpncdh5)" height="99.8203" id="abstractfactory.short" style="stroke: #A80036; stroke-width: 1.5;" width="136" x="418" y="56"/><ellipse cx="467.25" cy="72" fill="#B4A7E5" rx="11" ry="11" style="stroke: #A80036; stroke-width: 1.0;"/><path d="M463.6777,68.2651 L463.6777,66.1069 L471.0571,66.1069 L471.0571,68.2651 L468.5918,68.2651 L468.5918,76.3418 L471.0571,76.3418 L471.0571,78.5 L463.6777,78.5 L463.6777,76.3418 L466.1431,76.3418 L466.1431,68.2651 Z "/><text fill="#000000" font-family="sans-serif" font-size="12" font-style="italic" lengthAdjust="spacingAndGlyphs" textLength="29" x="487.75" y="76.5352">short</text><line style="stroke: #A80036; stroke-width: 1.5;" x1="419" x2="553" y1="88" y2="88"/><line style="stroke: #A80036; stroke-width: 1.5;" x1="419" x2="553" y1="96" y2="96"/><rect fill="#F24D5C" height="6" style="stroke: #C82930; stroke-width: 1.0;" width="6" x="426" y="104"/><text fill="#000000" font-family="sans-serif" font-size="11" lengthAdjust="spacingAndGlyphs" textLength="110" x="438" y="110.6348">setLogo(logo string)</text><rect fill="#F24D5C" height="6" style="stroke: #C82930; stroke-width: 1.0;" width="6" x="426" y="116.9551"/><text fill="#000000" font-family="sans-serif" font-size="11" lengthAdjust="spacingAndGlyphs" textLength="83" x="438" y="123.5898">setSize(size int)</text><rect fill="#F24D5C" height="6" style="stroke: #C82930; stroke-width: 1.0;" width="6" x="426" y="129.9102"/><text fill="#000000" font-family="sans-serif" font-size="11" lengthAdjust="spacingAndGlyphs" textLength="87" x="438" y="136.5449">getLogo() string</text><rect fill="#F24D5C" height="6" style="stroke: #C82930; stroke-width: 1.0;" width="6" x="426" y="142.8652"/><text fill="#000000" font-family="sans-serif" font-size="11" lengthAdjust="spacingAndGlyphs" textLength="63" x="438" y="149.5">getSize() int</text><!--MD5=[c9b2d725c127f8022f25b8ce3eced439]
class abstractfactory.shortItem--><rect fill="#FEFECE" filter="url(#f1lkuekqpncdh5)" height="125.7305" id="abstractfactory.shortItem" style="stroke: #A80036; stroke-width: 1.5;" width="136" x="247" y="43"/><ellipse cx="284.5" cy="59" fill="#7FFFD4" rx="11" ry="11" style="stroke: #A80036; stroke-width: 1.0;"/><path d="M283.7334,60.063 Q281.8823,59.3574 281.2266,58.5813 Q280.5708,57.8052 280.5708,56.4937 Q280.5708,54.8086 281.6499,53.8457 Q282.729,52.8828 284.6133,52.8828 Q285.4683,52.8828 286.3232,53.0779 Q287.1782,53.2729 288.0166,53.6548 L288.0166,56.0454 Q287.228,55.4893 286.4146,55.1987 Q285.6011,54.9082 284.8042,54.9082 Q283.916,54.9082 283.4429,55.2651 Q282.9697,55.6221 282.9697,56.2861 Q282.9697,56.8008 283.3142,57.137 Q283.6587,57.4731 284.7544,57.8799 L285.8086,58.2783 Q287.3027,58.8262 288.0083,59.731 Q288.7139,60.6357 288.7139,62.0137 Q288.7139,63.8896 287.6057,64.8152 Q286.4976,65.7407 284.2563,65.7407 Q283.335,65.7407 282.4094,65.5208 Q281.4839,65.3008 280.6206,64.8691 L280.6206,62.3374 Q281.6001,63.0347 282.5173,63.375 Q283.4346,63.7153 284.3311,63.7153 Q285.2358,63.7153 285.7339,63.3044 Q286.2319,62.8936 286.2319,62.1548 Q286.2319,61.5986 285.8999,61.1794 Q285.5679,60.7603 284.937,60.5195 Z "/><text fill="#000000" font-family="sans-serif" font-size="12" lengthAdjust="spacingAndGlyphs" textLength="54" x="303.5" y="63.5352">shortItem</text><line style="stroke: #A80036; stroke-width: 1.5;" x1="248" x2="382" y1="75" y2="75"/><rect fill="none" height="6" style="stroke: #C82930; stroke-width: 1.0;" width="6" x="255" y="83"/><text fill="#000000" font-family="sans-serif" font-size="11" lengthAdjust="spacingAndGlyphs" textLength="59" x="267" y="89.6348">logo string</text><rect fill="none" height="6" style="stroke: #C82930; stroke-width: 1.0;" width="6" x="255" y="95.9551"/><text fill="#000000" font-family="sans-serif" font-size="11" lengthAdjust="spacingAndGlyphs" textLength="38" x="267" y="102.5898">size int</text><line style="stroke: #A80036; stroke-width: 1.5;" x1="248" x2="382" y1="108.9102" y2="108.9102"/><rect fill="#F24D5C" height="6" style="stroke: #C82930; stroke-width: 1.0;" width="6" x="255" y="116.9102"/><text fill="#000000" font-family="sans-serif" font-size="11" lengthAdjust="spacingAndGlyphs" textLength="110" x="267" y="123.5449">setLogo(logo string)</text><rect fill="#F24D5C" height="6" style="stroke: #C82930; stroke-width: 1.0;" width="6" x="255" y="129.8652"/><text fill="#000000" font-family="sans-serif" font-size="11" lengthAdjust="spacingAndGlyphs" textLength="83" x="267" y="136.5">getLost() string</text><rect fill="#F24D5C" height="6" style="stroke: #C82930; stroke-width: 1.0;" width="6" x="255" y="142.8203"/><text fill="#000000" font-family="sans-serif" font-size="11" lengthAdjust="spacingAndGlyphs" textLength="83" x="267" y="149.4551">setSize(size int)</text><rect fill="#F24D5C" height="6" style="stroke: #C82930; stroke-width: 1.0;" width="6" x="255" y="155.7754"/><text fill="#000000" font-family="sans-serif" font-size="11" lengthAdjust="spacingAndGlyphs" textLength="63" x="267" y="162.4102">getSize() int</text><!--MD5=[3f76827b1f985bd683d448816b6c9c81]
class abstractfactory.sportFactory--><rect fill="#FEFECE" filter="url(#f1lkuekqpncdh5)" height="73.9102" id="abstractfactory.sportFactory" style="stroke: #A80036; stroke-width: 1.5;" width="123" x="55.5" y="69"/><ellipse cx="79.5" cy="85" fill="#B4A7E5" rx="11" ry="11" style="stroke: #A80036; stroke-width: 1.0;"/><path d="M75.9277,81.2651 L75.9277,79.1069 L83.3071,79.1069 L83.3071,81.2651 L80.8418,81.2651 L80.8418,89.3418 L83.3071,89.3418 L83.3071,91.5 L75.9277,91.5 L75.9277,89.3418 L78.3931,89.3418 L78.3931,81.2651 Z "/><text fill="#000000" font-family="sans-serif" font-size="12" font-style="italic" lengthAdjust="spacingAndGlyphs" textLength="71" x="95.5" y="89.5352">sportFactory</text><line style="stroke: #A80036; stroke-width: 1.5;" x1="56.5" x2="177.5" y1="101" y2="101"/><line style="stroke: #A80036; stroke-width: 1.5;" x1="56.5" x2="177.5" y1="109" y2="109"/><rect fill="#F24D5C" height="6" style="stroke: #C82930; stroke-width: 1.0;" width="6" x="63.5" y="117"/><text fill="#000000" font-family="sans-serif" font-size="11" lengthAdjust="spacingAndGlyphs" textLength="91" x="75.5" y="123.6348">makeShoe() shoe</text><rect fill="#F24D5C" height="6" style="stroke: #C82930; stroke-width: 1.0;" width="6" x="63.5" y="129.9551"/><text fill="#000000" font-family="sans-serif" font-size="11" lengthAdjust="spacingAndGlyphs" textLength="97" x="75.5" y="136.5898">makeShort() short</text><!--MD5=[30d6f1834c0a9ffc664e73c1b4baf393]
reverse link abstractfactory.shoeItem to abstractfactory.adidasShoe--><path d="M673.1838,182.1588 C677.1799,200.9643 681.2364,220.0535 684.4671,235.2569 " fill="none" id="abstractfactory.shoeItem&lt;-abstractfactory.adidasShoe" style="stroke: #A80036; stroke-width: 1.0;"/><polygon fill="#A80036" points="670.4377,169.2362,667.7723,175.9366,672.9321,180.9741,675.5975,174.2737,670.4377,169.2362" style="stroke: #A80036; stroke-width: 1.0;"/><!--MD5=[5364e0728c9a38271a0567960ea99e22]
reverse link abstractfactory.shortItem to abstractfactory.adidasShort--><path d="M352.5371,181.0743 C362.1143,200.2287 371.8805,219.7611 379.6285,235.2569 " fill="none" id="abstractfactory.shortItem&lt;-abstractfactory.adidasShort" style="stroke: #A80036; stroke-width: 1.0;"/><polygon fill="#A80036" points="346.6181,169.2362,345.7236,176.3916,351.9846,179.9694,352.8791,172.8139,346.6181,169.2362" style="stroke: #A80036; stroke-width: 1.0;"/><!--MD5=[4744ec890ea81a9f5648e9f36b1ce85b]
reverse link abstractfactory.shoeItem to abstractfactory.nikeShoe--><path d="M734.9304,174.5103 C759.1033,195.7611 784.5326,218.1166 804.2033,235.4095 " fill="none" id="abstractfactory.shoeItem&lt;-abstractfactory.nikeShoe" style="stroke: #A80036; stroke-width: 1.0;"/><polygon fill="#A80036" points="725.0289,165.8056,726.8942,172.7713,734.0414,173.7286,732.1762,166.7629,725.0289,165.8056" style="stroke: #A80036; stroke-width: 1.0;"/><!--MD5=[05795ae55b1f04b8d62174facfd35afa]
reverse link abstractfactory.shortItem to abstractfactory.nikeShort--><path d="M394.1956,164.1648 C396.4855,165.7986 398.7573,167.4132 401,169 C432.9273,191.5898 469.3626,216.4604 497.3318,235.3623 " fill="none" id="abstractfactory.shortItem&lt;-abstractfactory.nikeShort" style="stroke: #A80036; stroke-width: 1.0;"/><polygon fill="#A80036" points="383.3878,156.4105,385.9311,163.1582,393.138,163.4058,390.5947,156.6581,383.3878,156.4105" style="stroke: #A80036; stroke-width: 1.0;"/><!--MD5=[c8baf94b96ae810f896f7c7d460b5cac]
reverse link abstractfactory.sportFactory to abstractfactory.adidas--><path d="M105.2999,162.7277 C100.7731,184.6758 95.7184,209.1837 91.6694,228.8151 " fill="none" id="abstractfactory.sportFactory&lt;-abstractfactory.adidas" style="stroke: #A80036; stroke-width: 1.0;"/><polygon fill="none" points="98.4504,161.2831,109.3462,143.1094,112.1618,164.1111,98.4504,161.2831" style="stroke: #A80036; stroke-width: 1.0;"/><!--MD5=[75868cf7c2a0b5c9f731e197660f23f1]
reverse link abstractfactory.sportFactory to abstractfactory.nike--><path d="M158.4369,159.0392 C176.2932,181.8953 196.7471,208.0762 212.9493,228.8151 " fill="none" id="abstractfactory.sportFactory&lt;-abstractfactory.nike" style="stroke: #A80036; stroke-width: 1.0;"/><polygon fill="none" points="152.7884,163.1794,145.9917,143.1094,163.8208,154.5604,152.7884,163.1794" style="stroke: #A80036; stroke-width: 1.0;"/><!--MD5=[ff8e7266fa94d74014b29c0a8f9be568]
@startuml
namespace abstractfactory {
    class adidas << (S,Aquamarine) >> {
        - makeShoe() shoe
        - makeShort() short

    }
    class adidasShoe << (S,Aquamarine) >> {
        - getLogo() string

    }
    class adidasShort << (S,Aquamarine) >> {
        - getLogo() string

    }
    class nike << (S,Aquamarine) >> {
        - makeShoe() shoe
        - makeShort() short

    }
    class nikeShoe << (S,Aquamarine) >> {
        - getLogo() string

    }
    class nikeShort << (S,Aquamarine) >> {
        - getLogo() string

    }
    interface shoe  {
        - setLogo(logo string) 
        - setSize(size int) 
        - getLogo() string
        - getSize() int

    }
    class shoeItem << (S,Aquamarine) >> {
        - logo string
        - size int

        - setLogo(logo string) 
        - getLost() string
        - setSize(size int) 
        - getSize() int

    }
    interface short  {
        - setLogo(logo string) 
        - setSize(size int) 
        - getLogo() string
        - getSize() int

    }
    class shortItem << (S,Aquamarine) >> {
        - logo string
        - size int

        - setLogo(logo string) 
        - getLost() string
        - setSize(size int) 
        - getSize() int

    }
    interface sportFactory  {
        - makeShoe() shoe
        - makeShort() short

    }
}
"abstractfactory.shoeItem" *- - "abstractfactory.adidasShoe"
"abstractfactory.shortItem" *- - "abstractfactory.adidasShort"
"abstractfactory.shoeItem" *- - "abstractfactory.nikeShoe"
"abstractfactory.shortItem" *- - "abstractfactory.nikeShort"

"abstractfactory.sportFactory" <|- - "abstractfactory.adidas"
"abstractfactory.sportFactory" <|- - "abstractfactory.nike"

@enduml

PlantUML version 1.2020.10(Sun May 17 17:35:57 CST 2020)
(GPL source distribution)
Java Runtime: OpenJDK Runtime Environment
JVM: OpenJDK 64-Bit Server VM
Java Version: 1.8.0_222-b10
Operating System: Mac OS X
Default Encoding: US-ASCII
Language: en
Country: CN
--></g></svg>