<?xml version="1.0" encoding="UTF-8" standalone="no"?><svg xmlns="http://www.w3.org/2000/svg" xmlns:xlink="http://www.w3.org/1999/xlink" contentScriptType="application/ecmascript" contentStyleType="text/css" height="349px" preserveAspectRatio="none" style="width:399px;height:349px;" version="1.1" viewBox="0 0 399 349" width="399px" zoomAndPan="magnify"><defs><filter height="300%" id="f14m59rk8bi3y5" width="300%" x="-1" y="-1"><feGaussianBlur result="blurOut" stdDeviation="2.0"/><feColorMatrix in="blurOut" result="blurOut2" type="matrix" values="0 0 0 0 0 0 0 0 0 0 0 0 0 0 0 0 0 0 .4 0"/><feOffset dx="4.0" dy="4.0" in="blurOut2" result="blurOut3"/><feBlend in="SourceGraphic" in2="blurOut3" mode="normal"/></filter></defs><g><!--MD5=[11deb2d3d13514570db491c951d8ed2a]
cluster observer--><polygon fill="#FFFFFF" filter="url(#f14m59rk8bi3y5)" points="14,16,82,16,89,38.4883,377,38.4883,377,337,14,337,14,16" style="stroke: #000000; stroke-width: 1.5;"/><line style="stroke: #000000; stroke-width: 1.5;" x1="14" x2="89" y1="38.4883" y2="38.4883"/><text fill="#000000" font-family="sans-serif" font-size="14" font-weight="bold" lengthAdjust="spacingAndGlyphs" textLength="62" x="18" y="31.5352">observer</text><!--MD5=[6e14773ab978be6aa6600de8c85983fa]
class observer.customer--><rect fill="#FEFECE" filter="url(#f14m59rk8bi3y5)" height="86.8652" id="observer.customer" style="stroke: #A80036; stroke-width: 1.5;" width="159" x="209.5" y="216"/><ellipse cx="258.25" cy="232" fill="#7FFFD4" rx="11" ry="11" style="stroke: #A80036; stroke-width: 1.0;"/><path d="M257.4834,233.063 Q255.6323,232.3574 254.9766,231.5813 Q254.3208,230.8052 254.3208,229.4937 Q254.3208,227.8086 255.3999,226.8457 Q256.479,225.8828 258.3633,225.8828 Q259.2183,225.8828 260.0732,226.0779 Q260.9282,226.2729 261.7666,226.6548 L261.7666,229.0454 Q260.978,228.4893 260.1646,228.1987 Q259.3511,227.9082 258.5542,227.9082 Q257.666,227.9082 257.1929,228.2651 Q256.7197,228.6221 256.7197,229.2861 Q256.7197,229.8008 257.0642,230.137 Q257.4087,230.4731 258.5044,230.8799 L259.5586,231.2783 Q261.0527,231.8262 261.7583,232.731 Q262.4639,233.6357 262.4639,235.0137 Q262.4639,236.8896 261.3557,237.8152 Q260.2476,238.7407 258.0063,238.7407 Q257.085,238.7407 256.1594,238.5208 Q255.2339,238.3008 254.3706,237.8691 L254.3706,235.3374 Q255.3501,236.0347 256.2673,236.375 Q257.1846,236.7153 258.0811,236.7153 Q258.9858,236.7153 259.4839,236.3044 Q259.9819,235.8936 259.9819,235.1548 Q259.9819,234.5986 259.6499,234.1794 Q259.3179,233.7603 258.687,233.5195 Z "/><text fill="#000000" font-family="sans-serif" font-size="12" lengthAdjust="spacingAndGlyphs" textLength="53" x="278.75" y="236.5352">customer</text><line style="stroke: #A80036; stroke-width: 1.5;" x1="210.5" x2="367.5" y1="248" y2="248"/><rect fill="none" height="6" style="stroke: #C82930; stroke-width: 1.0;" width="6" x="217.5" y="256"/><text fill="#000000" font-family="sans-serif" font-size="11" lengthAdjust="spacingAndGlyphs" textLength="45" x="229.5" y="262.6348">id string</text><line style="stroke: #A80036; stroke-width: 1.5;" x1="210.5" x2="367.5" y1="268.9551" y2="268.9551"/><rect fill="#F24D5C" height="6" style="stroke: #C82930; stroke-width: 1.0;" width="6" x="217.5" y="276.9551"/><text fill="#000000" font-family="sans-serif" font-size="11" lengthAdjust="spacingAndGlyphs" textLength="133" x="229.5" y="283.5898">update(itemName string)</text><rect fill="#F24D5C" height="6" style="stroke: #C82930; stroke-width: 1.0;" width="6" x="217.5" y="289.9102"/><text fill="#000000" font-family="sans-serif" font-size="11" lengthAdjust="spacingAndGlyphs" textLength="71" x="229.5" y="296.5449">getID() string</text><!--MD5=[cdc094d9cf6225be0eb36bdac5db0030]
class observer.item--><rect fill="#FEFECE" filter="url(#f14m59rk8bi3y5)" height="138.6855" id="observer.item" style="stroke: #A80036; stroke-width: 1.5;" width="152" x="22" y="190"/><ellipse cx="81.25" cy="206" fill="#7FFFD4" rx="11" ry="11" style="stroke: #A80036; stroke-width: 1.0;"/><path d="M80.4834,207.063 Q78.6323,206.3574 77.9766,205.5813 Q77.3208,204.8052 77.3208,203.4937 Q77.3208,201.8086 78.3999,200.8457 Q79.479,199.8828 81.3633,199.8828 Q82.2183,199.8828 83.0732,200.0779 Q83.9282,200.2729 84.7666,200.6548 L84.7666,203.0454 Q83.978,202.4893 83.1646,202.1987 Q82.3511,201.9082 81.5542,201.9082 Q80.666,201.9082 80.1929,202.2651 Q79.7197,202.6221 79.7197,203.2861 Q79.7197,203.8008 80.0642,204.137 Q80.4087,204.4731 81.5044,204.8799 L82.5586,205.2783 Q84.0527,205.8262 84.7583,206.731 Q85.4639,207.6357 85.4639,209.0137 Q85.4639,210.8896 84.3557,211.8152 Q83.2476,212.7407 81.0063,212.7407 Q80.085,212.7407 79.1594,212.5208 Q78.2339,212.3008 77.3706,211.8691 L77.3706,209.3374 Q78.3501,210.0347 79.2673,210.375 Q80.1846,210.7153 81.0811,210.7153 Q81.9858,210.7153 82.4839,210.3044 Q82.9819,209.8936 82.9819,209.1548 Q82.9819,208.5986 82.6499,208.1794 Q82.3179,207.7603 81.687,207.5195 Z "/><text fill="#000000" font-family="sans-serif" font-size="12" lengthAdjust="spacingAndGlyphs" textLength="25" x="101.75" y="210.5352">item</text><line style="stroke: #A80036; stroke-width: 1.5;" x1="23" x2="173" y1="222" y2="222"/><rect fill="none" height="6" style="stroke: #C82930; stroke-width: 1.0;" width="6" x="30" y="230"/><text fill="#000000" font-family="sans-serif" font-size="11" lengthAdjust="spacingAndGlyphs" textLength="126" x="42" y="236.6348">observerList []observer</text><rect fill="none" height="6" style="stroke: #C82930; stroke-width: 1.0;" width="6" x="30" y="242.9551"/><text fill="#000000" font-family="sans-serif" font-size="11" lengthAdjust="spacingAndGlyphs" textLength="64" x="42" y="249.5898">name string</text><rect fill="none" height="6" style="stroke: #C82930; stroke-width: 1.0;" width="6" x="30" y="255.9102"/><text fill="#000000" font-family="sans-serif" font-size="11" lengthAdjust="spacingAndGlyphs" textLength="66" x="42" y="262.5449">inStock bool</text><line style="stroke: #A80036; stroke-width: 1.5;" x1="23" x2="173" y1="268.8652" y2="268.8652"/><rect fill="#F24D5C" height="6" style="stroke: #C82930; stroke-width: 1.0;" width="6" x="30" y="276.8652"/><text fill="#000000" font-family="sans-serif" font-size="11" lengthAdjust="spacingAndGlyphs" textLength="103" x="42" y="283.5">updateAvailability()</text><rect fill="#F24D5C" height="6" style="stroke: #C82930; stroke-width: 1.0;" width="6" x="30" y="289.8203"/><text fill="#000000" font-family="sans-serif" font-size="11" lengthAdjust="spacingAndGlyphs" textLength="108" x="42" y="296.4551">register(o observer)</text><rect fill="#F24D5C" height="6" style="stroke: #C82930; stroke-width: 1.0;" width="6" x="30" y="302.7754"/><text fill="#000000" font-family="sans-serif" font-size="11" lengthAdjust="spacingAndGlyphs" textLength="121" x="42" y="309.4102">deregister(o observer)</text><rect fill="#F24D5C" height="6" style="stroke: #C82930; stroke-width: 1.0;" width="6" x="30" y="315.7305"/><text fill="#000000" font-family="sans-serif" font-size="11" lengthAdjust="spacingAndGlyphs" textLength="53" x="42" y="322.3652">notifyAll()</text><!--MD5=[da42a2612a061167c437985554f9f11f]
class observer.observer--><rect fill="#FEFECE" filter="url(#f14m59rk8bi3y5)" height="73.9102" id="observer.observer" style="stroke: #A80036; stroke-width: 1.5;" width="106" x="247" y="49.5"/><ellipse cx="272.35" cy="65.5" fill="#B4A7E5" rx="11" ry="11" style="stroke: #A80036; stroke-width: 1.0;"/><path d="M268.7777,61.7651 L268.7777,59.6069 L276.1571,59.6069 L276.1571,61.7651 L273.6918,61.7651 L273.6918,69.8418 L276.1571,69.8418 L276.1571,72 L268.7777,72 L268.7777,69.8418 L271.2431,69.8418 L271.2431,61.7651 Z "/><text fill="#000000" font-family="sans-serif" font-size="12" font-style="italic" lengthAdjust="spacingAndGlyphs" textLength="51" x="288.65" y="70.0352">observer</text><line style="stroke: #A80036; stroke-width: 1.5;" x1="248" x2="352" y1="81.5" y2="81.5"/><line style="stroke: #A80036; stroke-width: 1.5;" x1="248" x2="352" y1="89.5" y2="89.5"/><rect fill="#F24D5C" height="6" style="stroke: #C82930; stroke-width: 1.0;" width="6" x="255" y="97.5"/><text fill="#000000" font-family="sans-serif" font-size="11" lengthAdjust="spacingAndGlyphs" textLength="80" x="267" y="104.1348">update( string)</text><rect fill="#F24D5C" height="6" style="stroke: #C82930; stroke-width: 1.0;" width="6" x="255" y="110.4551"/><text fill="#000000" font-family="sans-serif" font-size="11" lengthAdjust="spacingAndGlyphs" textLength="71" x="267" y="117.0898">getID() string</text><!--MD5=[1a919c88b5e9e4a5cf89beed96eae9ba]
class observer.subject--><rect fill="#FEFECE" filter="url(#f14m59rk8bi3y5)" height="86.8652" id="observer.subject" style="stroke: #A80036; stroke-width: 1.5;" width="190" x="22" y="43"/><ellipse cx="91.75" cy="59" fill="#B4A7E5" rx="11" ry="11" style="stroke: #A80036; stroke-width: 1.0;"/><path d="M88.1777,55.2651 L88.1777,53.1069 L95.5571,53.1069 L95.5571,55.2651 L93.0918,55.2651 L93.0918,63.3418 L95.5571,63.3418 L95.5571,65.5 L88.1777,65.5 L88.1777,63.3418 L90.6431,63.3418 L90.6431,55.2651 Z "/><text fill="#000000" font-family="sans-serif" font-size="12" font-style="italic" lengthAdjust="spacingAndGlyphs" textLength="42" x="112.25" y="63.5352">subject</text><line style="stroke: #A80036; stroke-width: 1.5;" x1="23" x2="211" y1="75" y2="75"/><line style="stroke: #A80036; stroke-width: 1.5;" x1="23" x2="211" y1="83" y2="83"/><rect fill="#F24D5C" height="6" style="stroke: #C82930; stroke-width: 1.0;" width="6" x="30" y="91"/><text fill="#000000" font-family="sans-serif" font-size="11" lengthAdjust="spacingAndGlyphs" textLength="151" x="42" y="97.6348">register(Observer observer)</text><rect fill="#F24D5C" height="6" style="stroke: #C82930; stroke-width: 1.0;" width="6" x="30" y="103.9551"/><text fill="#000000" font-family="sans-serif" font-size="11" lengthAdjust="spacingAndGlyphs" textLength="164" x="42" y="110.5898">deregister(Observer observer)</text><rect fill="#F24D5C" height="6" style="stroke: #C82930; stroke-width: 1.0;" width="6" x="30" y="116.9102"/><text fill="#000000" font-family="sans-serif" font-size="11" lengthAdjust="spacingAndGlyphs" textLength="53" x="42" y="123.5449">notifyAll()</text><!--MD5=[223d2a6f7a19f5e3c2674f7719e90424]
reverse link observer.observer to observer.customer--><path d="M296.3691,143.6044 C294.8764,167.0805 293.1752,193.8351 291.7838,215.719 " fill="none" id="observer.observer&lt;-observer.customer" style="stroke: #A80036; stroke-width: 1.0;"/><polygon fill="none" points="289.3851,143.1283,297.6402,123.6128,303.3569,144.0168,289.3851,143.1283" style="stroke: #A80036; stroke-width: 1.0;"/><!--MD5=[8572a93a6e981ff239bcdbe9ceb358f4]
reverse link observer.subject to observer.item--><path d="M109.9924,150.3061 C108.5749,163.2123 107.0778,176.8438 105.6399,189.9366 " fill="none" id="observer.subject&lt;-observer.item" style="stroke: #A80036; stroke-width: 1.0;"/><polygon fill="none" points="103.0638,149.2714,112.2055,130.1552,116.9802,150.7999,103.0638,149.2714" style="stroke: #A80036; stroke-width: 1.0;"/><!--MD5=[21ee0dad046b0d9c188f719ffac887ba]
@startuml
namespace observer {
    class customer << (S,Aquamarine) >> {
        - id string

        - update(itemName string) 
        - getID() string

    }
    class item << (S,Aquamarine) >> {
        - observerList []observer
        - name string
        - inStock bool

        - updateAvailability() 
        - register(o observer) 
        - deregister(o observer) 
        - notifyAll() 

    }
    interface observer  {
        - update( string) 
        - getID() string

    }
    interface subject  {
        - register(Observer observer) 
        - deregister(Observer observer) 
        - notifyAll() 

    }
}

"observer.observer" <|- - "observer.customer"
"observer.subject" <|- - "observer.item"

@enduml

PlantUML version 1.2020.10(Sun May 17 17:35:57 CST 2020)
(GPL source distribution)
Java Runtime: OpenJDK Runtime Environment
JVM: OpenJDK 64-Bit Server VM
Java Version: 1.8.0_222-b10
Operating System: Mac OS X
Default Encoding: US-ASCII
Language: en
Country: CN
--></g></svg>