<?xml version="1.0" encoding="UTF-8" standalone="no"?><svg xmlns="http://www.w3.org/2000/svg" xmlns:xlink="http://www.w3.org/1999/xlink" contentScriptType="application/ecmascript" contentStyleType="text/css" height="284px" preserveAspectRatio="none" style="width:580px;height:284px;" version="1.1" viewBox="0 0 580 284" width="580px" zoomAndPan="magnify"><defs><filter height="300%" id="f1ngctbtzcgixi" width="300%" x="-1" y="-1"><feGaussianBlur result="blurOut" stdDeviation="2.0"/><feColorMatrix in="blurOut" result="blurOut2" type="matrix" values="0 0 0 0 0 0 0 0 0 0 0 0 0 0 0 0 0 0 .4 0"/><feOffset dx="4.0" dy="4.0" in="blurOut2" result="blurOut3"/><feBlend in="SourceGraphic" in2="blurOut3" mode="normal"/></filter></defs><g><!--MD5=[83521f5f8aaf465d9ba09e4f5046889d]
cluster bridge--><polygon fill="#FFFFFF" filter="url(#f1ngctbtzcgixi)" points="14,16,66,16,73,38.4883,558,38.4883,558,272,14,272,14,16" style="stroke: #000000; stroke-width: 1.5;"/><line style="stroke: #000000; stroke-width: 1.5;" x1="14" x2="73" y1="38.4883" y2="38.4883"/><text fill="#000000" font-family="sans-serif" font-size="14" font-weight="bold" lengthAdjust="spacingAndGlyphs" textLength="46" x="18" y="31.5352">bridge</text><!--MD5=[afc6526e1662465ba9aad80905530da5]
class bridge.computer--><rect fill="#FEFECE" filter="url(#f1ngctbtzcgixi)" height="73.9102" id="bridge.computer" style="stroke: #A80036; stroke-width: 1.5;" width="126" x="336" y="43"/><ellipse cx="368.55" cy="59" fill="#B4A7E5" rx="11" ry="11" style="stroke: #A80036; stroke-width: 1.0;"/><path d="M364.9777,55.2651 L364.9777,53.1069 L372.3571,53.1069 L372.3571,55.2651 L369.8918,55.2651 L369.8918,63.3418 L372.3571,63.3418 L372.3571,65.5 L364.9777,65.5 L364.9777,63.3418 L367.4431,63.3418 L367.4431,55.2651 Z "/><text fill="#000000" font-family="sans-serif" font-size="12" font-style="italic" lengthAdjust="spacingAndGlyphs" textLength="55" x="386.45" y="63.5352">computer</text><line style="stroke: #A80036; stroke-width: 1.5;" x1="337" x2="461" y1="75" y2="75"/><line style="stroke: #A80036; stroke-width: 1.5;" x1="337" x2="461" y1="83" y2="83"/><rect fill="#F24D5C" height="6" style="stroke: #C82930; stroke-width: 1.0;" width="6" x="344" y="91"/><text fill="#000000" font-family="sans-serif" font-size="11" lengthAdjust="spacingAndGlyphs" textLength="34" x="356" y="97.6348">print()</text><rect fill="#F24D5C" height="6" style="stroke: #C82930; stroke-width: 1.0;" width="6" x="344" y="103.9551"/><text fill="#000000" font-family="sans-serif" font-size="11" lengthAdjust="spacingAndGlyphs" textLength="100" x="356" y="110.5898">setPrinter( printer)</text><!--MD5=[c72e860799d1b0a0586c3a5d8a4aa114]
class bridge.epson--><rect fill="#FEFECE" filter="url(#f1ngctbtzcgixi)" height="60.9551" id="bridge.epson" style="stroke: #A80036; stroke-width: 1.5;" width="78" x="22" y="190"/><ellipse cx="41.95" cy="206" fill="#7FFFD4" rx="11" ry="11" style="stroke: #A80036; stroke-width: 1.0;"/><path d="M41.1834,207.063 Q39.3323,206.3574 38.6766,205.5813 Q38.0208,204.8052 38.0208,203.4937 Q38.0208,201.8086 39.0999,200.8457 Q40.179,199.8828 42.0633,199.8828 Q42.9183,199.8828 43.7732,200.0779 Q44.6282,200.2729 45.4666,200.6548 L45.4666,203.0454 Q44.678,202.4893 43.8646,202.1987 Q43.0511,201.9082 42.2542,201.9082 Q41.366,201.9082 40.8929,202.2651 Q40.4197,202.6221 40.4197,203.2861 Q40.4197,203.8008 40.7642,204.137 Q41.1087,204.4731 42.2044,204.8799 L43.2586,205.2783 Q44.7527,205.8262 45.4583,206.731 Q46.1639,207.6357 46.1639,209.0137 Q46.1639,210.8896 45.0557,211.8152 Q43.9476,212.7407 41.7063,212.7407 Q40.785,212.7407 39.8594,212.5208 Q38.9339,212.3008 38.0706,211.8691 L38.0706,209.3374 Q39.0501,210.0347 39.9673,210.375 Q40.8846,210.7153 41.7811,210.7153 Q42.6858,210.7153 43.1839,210.3044 Q43.6819,209.8936 43.6819,209.1548 Q43.6819,208.5986 43.3499,208.1794 Q43.0179,207.7603 42.387,207.5195 Z "/><text fill="#000000" font-family="sans-serif" font-size="12" lengthAdjust="spacingAndGlyphs" textLength="35" x="57.05" y="210.5352">epson</text><line style="stroke: #A80036; stroke-width: 1.5;" x1="23" x2="99" y1="222" y2="222"/><line style="stroke: #A80036; stroke-width: 1.5;" x1="23" x2="99" y1="230" y2="230"/><rect fill="#F24D5C" height="6" style="stroke: #C82930; stroke-width: 1.0;" width="6" x="30" y="238"/><text fill="#000000" font-family="sans-serif" font-size="11" lengthAdjust="spacingAndGlyphs" textLength="52" x="42" y="244.6348">printFile()</text><!--MD5=[3c303b669f1271fd509623cc0510c322]
class bridge.hp--><rect fill="#FEFECE" filter="url(#f1ngctbtzcgixi)" height="60.9551" id="bridge.hp" style="stroke: #A80036; stroke-width: 1.5;" width="78" x="135" y="190"/><ellipse cx="163.95" cy="206" fill="#7FFFD4" rx="11" ry="11" style="stroke: #A80036; stroke-width: 1.0;"/><path d="M163.1834,207.063 Q161.3323,206.3574 160.6766,205.5813 Q160.0208,204.8052 160.0208,203.4937 Q160.0208,201.8086 161.0999,200.8457 Q162.179,199.8828 164.0633,199.8828 Q164.9183,199.8828 165.7732,200.0779 Q166.6282,200.2729 167.4666,200.6548 L167.4666,203.0454 Q166.678,202.4893 165.8646,202.1987 Q165.0511,201.9082 164.2542,201.9082 Q163.366,201.9082 162.8929,202.2651 Q162.4197,202.6221 162.4197,203.2861 Q162.4197,203.8008 162.7642,204.137 Q163.1087,204.4731 164.2044,204.8799 L165.2586,205.2783 Q166.7527,205.8262 167.4583,206.731 Q168.1639,207.6357 168.1639,209.0137 Q168.1639,210.8896 167.0557,211.8152 Q165.9476,212.7407 163.7063,212.7407 Q162.785,212.7407 161.8594,212.5208 Q160.9339,212.3008 160.0706,211.8691 L160.0706,209.3374 Q161.0501,210.0347 161.9673,210.375 Q162.8846,210.7153 163.7811,210.7153 Q164.6858,210.7153 165.1839,210.3044 Q165.6819,209.8936 165.6819,209.1548 Q165.6819,208.5986 165.3499,208.1794 Q165.0179,207.7603 164.387,207.5195 Z "/><text fill="#000000" font-family="sans-serif" font-size="12" lengthAdjust="spacingAndGlyphs" textLength="15" x="181.05" y="210.5352">hp</text><line style="stroke: #A80036; stroke-width: 1.5;" x1="136" x2="212" y1="222" y2="222"/><line style="stroke: #A80036; stroke-width: 1.5;" x1="136" x2="212" y1="230" y2="230"/><rect fill="#F24D5C" height="6" style="stroke: #C82930; stroke-width: 1.0;" width="6" x="143" y="238"/><text fill="#000000" font-family="sans-serif" font-size="11" lengthAdjust="spacingAndGlyphs" textLength="52" x="155" y="244.6348">printFile()</text><!--MD5=[13ec7e38806d5f07ec9e0170591315ac]
class bridge.mac--><rect fill="#FEFECE" filter="url(#f1ngctbtzcgixi)" height="86.8652" id="bridge.mac" style="stroke: #A80036; stroke-width: 1.5;" width="133" x="248.5" y="177"/><ellipse cx="298.75" cy="193" fill="#7FFFD4" rx="11" ry="11" style="stroke: #A80036; stroke-width: 1.0;"/><path d="M297.9834,194.063 Q296.1323,193.3574 295.4766,192.5813 Q294.8208,191.8052 294.8208,190.4937 Q294.8208,188.8086 295.8999,187.8457 Q296.979,186.8828 298.8633,186.8828 Q299.7183,186.8828 300.5732,187.0779 Q301.4282,187.2729 302.2666,187.6548 L302.2666,190.0454 Q301.478,189.4893 300.6646,189.1987 Q299.8511,188.9082 299.0542,188.9082 Q298.166,188.9082 297.6929,189.2651 Q297.2197,189.6221 297.2197,190.2861 Q297.2197,190.8008 297.5642,191.137 Q297.9087,191.4731 299.0044,191.8799 L300.0586,192.2783 Q301.5527,192.8262 302.2583,193.731 Q302.9639,194.6357 302.9639,196.0137 Q302.9639,197.8896 301.8557,198.8152 Q300.7476,199.7407 298.5063,199.7407 Q297.585,199.7407 296.6594,199.5208 Q295.7339,199.3008 294.8706,198.8691 L294.8706,196.3374 Q295.8501,197.0347 296.7673,197.375 Q297.6846,197.7153 298.5811,197.7153 Q299.4858,197.7153 299.9839,197.3044 Q300.4819,196.8936 300.4819,196.1548 Q300.4819,195.5986 300.1499,195.1794 Q299.8179,194.7603 299.187,194.5195 Z "/><text fill="#000000" font-family="sans-serif" font-size="12" lengthAdjust="spacingAndGlyphs" textLength="24" x="319.25" y="197.5352">mac</text><line style="stroke: #A80036; stroke-width: 1.5;" x1="249.5" x2="380.5" y1="209" y2="209"/><rect fill="none" height="6" style="stroke: #C82930; stroke-width: 1.0;" width="6" x="256.5" y="217"/><text fill="#000000" font-family="sans-serif" font-size="11" lengthAdjust="spacingAndGlyphs" textLength="77" x="268.5" y="223.6348">printer printer</text><line style="stroke: #A80036; stroke-width: 1.5;" x1="249.5" x2="380.5" y1="229.9551" y2="229.9551"/><rect fill="#F24D5C" height="6" style="stroke: #C82930; stroke-width: 1.0;" width="6" x="256.5" y="237.9551"/><text fill="#000000" font-family="sans-serif" font-size="11" lengthAdjust="spacingAndGlyphs" textLength="34" x="268.5" y="244.5898">print()</text><rect fill="#F24D5C" height="6" style="stroke: #C82930; stroke-width: 1.0;" width="6" x="256.5" y="250.9102"/><text fill="#000000" font-family="sans-serif" font-size="11" lengthAdjust="spacingAndGlyphs" textLength="107" x="268.5" y="257.5449">setPrinter(p printer)</text><!--MD5=[2049ecbc04eb70b992b74f861f02c18f]
class bridge.printer--><rect fill="#FEFECE" filter="url(#f1ngctbtzcgixi)" height="60.9551" id="bridge.printer" style="stroke: #A80036; stroke-width: 1.5;" width="78" x="79" y="49.5"/><ellipse cx="97.15" cy="65.5" fill="#B4A7E5" rx="11" ry="11" style="stroke: #A80036; stroke-width: 1.0;"/><path d="M93.5777,61.7651 L93.5777,59.6069 L100.9571,59.6069 L100.9571,61.7651 L98.4918,61.7651 L98.4918,69.8418 L100.9571,69.8418 L100.9571,72 L93.5777,72 L93.5777,69.8418 L96.0431,69.8418 L96.0431,61.7651 Z "/><text fill="#000000" font-family="sans-serif" font-size="12" font-style="italic" lengthAdjust="spacingAndGlyphs" textLength="39" x="111.85" y="70.0352">printer</text><line style="stroke: #A80036; stroke-width: 1.5;" x1="80" x2="156" y1="81.5" y2="81.5"/><line style="stroke: #A80036; stroke-width: 1.5;" x1="80" x2="156" y1="89.5" y2="89.5"/><rect fill="#F24D5C" height="6" style="stroke: #C82930; stroke-width: 1.0;" width="6" x="87" y="97.5"/><text fill="#000000" font-family="sans-serif" font-size="11" lengthAdjust="spacingAndGlyphs" textLength="52" x="99" y="104.1348">printFile()</text><!--MD5=[7b6df45a32b54082746806aa3d8cd274]
class bridge.windows--><rect fill="#FEFECE" filter="url(#f1ngctbtzcgixi)" height="86.8652" id="bridge.windows" style="stroke: #A80036; stroke-width: 1.5;" width="133" x="416.5" y="177"/><ellipse cx="454.9" cy="193" fill="#7FFFD4" rx="11" ry="11" style="stroke: #A80036; stroke-width: 1.0;"/><path d="M454.1334,194.063 Q452.2823,193.3574 451.6266,192.5813 Q450.9708,191.8052 450.9708,190.4937 Q450.9708,188.8086 452.0499,187.8457 Q453.129,186.8828 455.0133,186.8828 Q455.8683,186.8828 456.7232,187.0779 Q457.5782,187.2729 458.4166,187.6548 L458.4166,190.0454 Q457.628,189.4893 456.8146,189.1987 Q456.0011,188.9082 455.2042,188.9082 Q454.316,188.9082 453.8429,189.2651 Q453.3697,189.6221 453.3697,190.2861 Q453.3697,190.8008 453.7142,191.137 Q454.0587,191.4731 455.1544,191.8799 L456.2086,192.2783 Q457.7027,192.8262 458.4083,193.731 Q459.1139,194.6357 459.1139,196.0137 Q459.1139,197.8896 458.0057,198.8152 Q456.8976,199.7407 454.6563,199.7407 Q453.735,199.7407 452.8094,199.5208 Q451.8839,199.3008 451.0206,198.8691 L451.0206,196.3374 Q452.0001,197.0347 452.9173,197.375 Q453.8346,197.7153 454.7311,197.7153 Q455.6358,197.7153 456.1339,197.3044 Q456.6319,196.8936 456.6319,196.1548 Q456.6319,195.5986 456.2999,195.1794 Q455.9679,194.7603 455.337,194.5195 Z "/><text fill="#000000" font-family="sans-serif" font-size="12" lengthAdjust="spacingAndGlyphs" textLength="49" x="474.1" y="197.5352">windows</text><line style="stroke: #A80036; stroke-width: 1.5;" x1="417.5" x2="548.5" y1="209" y2="209"/><rect fill="none" height="6" style="stroke: #C82930; stroke-width: 1.0;" width="6" x="424.5" y="217"/><text fill="#000000" font-family="sans-serif" font-size="11" lengthAdjust="spacingAndGlyphs" textLength="77" x="436.5" y="223.6348">printer printer</text><line style="stroke: #A80036; stroke-width: 1.5;" x1="417.5" x2="548.5" y1="229.9551" y2="229.9551"/><rect fill="#F24D5C" height="6" style="stroke: #C82930; stroke-width: 1.0;" width="6" x="424.5" y="237.9551"/><text fill="#000000" font-family="sans-serif" font-size="11" lengthAdjust="spacingAndGlyphs" textLength="34" x="436.5" y="244.5898">print()</text><rect fill="#F24D5C" height="6" style="stroke: #C82930; stroke-width: 1.0;" width="6" x="424.5" y="250.9102"/><text fill="#000000" font-family="sans-serif" font-size="11" lengthAdjust="spacingAndGlyphs" textLength="107" x="436.5" y="257.5449">setPrinter(p printer)</text><!--MD5=[145d34aff7f64b90c65ebd12a6bcaa9c]
reverse link bridge.printer to bridge.epson--><path d="M97.9421,129.4409 C89.7963,149.5196 80.6392,172.0912 73.4797,189.7386 " fill="none" id="bridge.printer&lt;-bridge.epson" style="stroke: #A80036; stroke-width: 1.0;"/><polygon fill="none" points="91.4858,126.7347,105.4911,110.8333,104.4589,131.9978,91.4858,126.7347" style="stroke: #A80036; stroke-width: 1.0;"/><!--MD5=[75ea4f0681b26ed57bdda866f236549e]
reverse link bridge.printer to bridge.hp--><path d="M137.706,129.4409 C145.7089,149.5196 154.7054,172.0912 161.7392,189.7386 " fill="none" id="bridge.printer&lt;-bridge.hp" style="stroke: #A80036; stroke-width: 1.0;"/><polygon fill="none" points="131.192,132.0037,130.2894,110.8333,144.197,126.8202,131.192,132.0037" style="stroke: #A80036; stroke-width: 1.0;"/><!--MD5=[d864282c0b73c27057830108603068e6]
reverse link bridge.computer to bridge.mac--><path d="M366.1888,134.8806 C357.8751,148.7863 349.0563,163.5368 341.1235,176.8053 " fill="none" id="bridge.computer&lt;-bridge.mac" style="stroke: #A80036; stroke-width: 1.0;"/><polygon fill="none" points="360.439,130.8565,376.7101,117.2825,372.4552,138.0406,360.439,130.8565" style="stroke: #A80036; stroke-width: 1.0;"/><!--MD5=[c16fd0b88a479b007c68e6d0a1e558de]
reverse link bridge.computer to bridge.windows--><path d="M431.8112,134.8806 C440.1249,148.7863 448.9437,163.5368 456.8765,176.8053 " fill="none" id="bridge.computer&lt;-bridge.windows" style="stroke: #A80036; stroke-width: 1.0;"/><polygon fill="none" points="425.5448,138.0406,421.2899,117.2825,437.561,130.8565,425.5448,138.0406" style="stroke: #A80036; stroke-width: 1.0;"/><!--MD5=[35904429235776f905e17a639a50d11f]
@startuml
namespace bridge {
    interface computer  {
        - print() 
        - setPrinter( printer) 

    }
    class epson << (S,Aquamarine) >> {
        - printFile() 

    }
    class hp << (S,Aquamarine) >> {
        - printFile() 

    }
    class mac << (S,Aquamarine) >> {
        - printer printer

        - print() 
        - setPrinter(p printer) 

    }
    interface printer  {
        - printFile() 

    }
    class windows << (S,Aquamarine) >> {
        - printer printer

        - print() 
        - setPrinter(p printer) 

    }
}

"bridge.printer" <|- - "bridge.epson"
"bridge.printer" <|- - "bridge.hp"
"bridge.computer" <|- - "bridge.mac"
"bridge.computer" <|- - "bridge.windows"

@enduml

PlantUML version 1.2020.10(Sun May 17 17:35:57 CST 2020)
(GPL source distribution)
Java Runtime: OpenJDK Runtime Environment
JVM: OpenJDK 64-Bit Server VM
Java Version: 1.8.0_222-b10
Operating System: Mac OS X
Default Encoding: US-ASCII
Language: en
Country: CN
--></g></svg>