<?xml version="1.0" encoding="UTF-8" standalone="no"?><svg xmlns="http://www.w3.org/2000/svg" xmlns:xlink="http://www.w3.org/1999/xlink" contentScriptType="application/ecmascript" contentStyleType="text/css" height="258px" preserveAspectRatio="none" style="width:650px;height:258px;" version="1.1" viewBox="0 0 650 258" width="650px" zoomAndPan="magnify"><defs><filter height="300%" id="f3rt3kxa99zc" width="300%" x="-1" y="-1"><feGaussianBlur result="blurOut" stdDeviation="2.0"/><feColorMatrix in="blurOut" result="blurOut2" type="matrix" values="0 0 0 0 0 0 0 0 0 0 0 0 0 0 0 0 0 0 .4 0"/><feOffset dx="4.0" dy="4.0" in="blurOut2" result="blurOut3"/><feBlend in="SourceGraphic" in2="blurOut3" mode="normal"/></filter></defs><g><!--MD5=[a0bb257923b4feabbc8c8a837db65c88]
cluster adapter--><polygon fill="#FFFFFF" filter="url(#f3rt3kxa99zc)" points="14,16,74,16,81,38.4883,628,38.4883,628,246,14,246,14,16" style="stroke: #000000; stroke-width: 1.5;"/><line style="stroke: #000000; stroke-width: 1.5;" x1="14" x2="81" y1="38.4883" y2="38.4883"/><text fill="#000000" font-family="sans-serif" font-size="14" font-weight="bold" lengthAdjust="spacingAndGlyphs" textLength="54" x="18" y="31.5352">adapter</text><!--MD5=[5d781c52a3c363d983e13926104ce31d]
class adapter.client--><rect fill="#FEFECE" filter="url(#f3rt3kxa99zc)" height="60.9551" id="adapter.client" style="stroke: #A80036; stroke-width: 1.5;" width="265" x="354.5" y="43"/><ellipse cx="467.75" cy="59" fill="#7FFFD4" rx="11" ry="11" style="stroke: #A80036; stroke-width: 1.0;"/><path d="M466.9834,60.063 Q465.1323,59.3574 464.4766,58.5813 Q463.8208,57.8052 463.8208,56.4937 Q463.8208,54.8086 464.8999,53.8457 Q465.979,52.8828 467.8633,52.8828 Q468.7183,52.8828 469.5732,53.0779 Q470.4282,53.2729 471.2666,53.6548 L471.2666,56.0454 Q470.478,55.4893 469.6646,55.1987 Q468.8511,54.9082 468.0542,54.9082 Q467.166,54.9082 466.6929,55.2651 Q466.2197,55.6221 466.2197,56.2861 Q466.2197,56.8008 466.5642,57.137 Q466.9087,57.4731 468.0044,57.8799 L469.0586,58.2783 Q470.5527,58.8262 471.2583,59.731 Q471.9639,60.6357 471.9639,62.0137 Q471.9639,63.8896 470.8557,64.8152 Q469.7476,65.7407 467.5063,65.7407 Q466.585,65.7407 465.6594,65.5208 Q464.7339,65.3008 463.8706,64.8691 L463.8706,62.3374 Q464.8501,63.0347 465.7673,63.375 Q466.6846,63.7153 467.5811,63.7153 Q468.4858,63.7153 468.9839,63.3044 Q469.4819,62.8936 469.4819,62.1548 Q469.4819,61.5986 469.1499,61.1794 Q468.8179,60.7603 468.187,60.5195 Z "/><text fill="#000000" font-family="sans-serif" font-size="12" lengthAdjust="spacingAndGlyphs" textLength="30" x="488.25" y="63.5352">client</text><line style="stroke: #A80036; stroke-width: 1.5;" x1="355.5" x2="618.5" y1="75" y2="75"/><line style="stroke: #A80036; stroke-width: 1.5;" x1="355.5" x2="618.5" y1="83" y2="83"/><rect fill="#F24D5C" height="6" style="stroke: #C82930; stroke-width: 1.0;" width="6" x="362.5" y="91"/><text fill="#000000" font-family="sans-serif" font-size="11" lengthAdjust="spacingAndGlyphs" textLength="239" x="374.5" y="97.6348">insertSquareUsbInComputer(com computer)</text><!--MD5=[cd7e236df2d88c46944521c2653fc754]
class adapter.computer--><rect fill="#FEFECE" filter="url(#f3rt3kxa99zc)" height="60.9551" id="adapter.computer" style="stroke: #A80036; stroke-width: 1.5;" width="134" x="185" y="43"/><ellipse cx="221.15" cy="59" fill="#B4A7E5" rx="11" ry="11" style="stroke: #A80036; stroke-width: 1.0;"/><path d="M217.5777,55.2651 L217.5777,53.1069 L224.9571,53.1069 L224.9571,55.2651 L222.4918,55.2651 L222.4918,63.3418 L224.9571,63.3418 L224.9571,65.5 L217.5777,65.5 L217.5777,63.3418 L220.0431,63.3418 L220.0431,55.2651 Z "/><text fill="#000000" font-family="sans-serif" font-size="12" font-style="italic" lengthAdjust="spacingAndGlyphs" textLength="55" x="239.85" y="63.5352">computer</text><line style="stroke: #A80036; stroke-width: 1.5;" x1="186" x2="318" y1="75" y2="75"/><line style="stroke: #A80036; stroke-width: 1.5;" x1="186" x2="318" y1="83" y2="83"/><rect fill="#F24D5C" height="6" style="stroke: #C82930; stroke-width: 1.0;" width="6" x="193" y="91"/><text fill="#000000" font-family="sans-serif" font-size="11" lengthAdjust="spacingAndGlyphs" textLength="108" x="205" y="97.6348">insertInSquarePort()</text><!--MD5=[e0feb2cc1f03cb12ed179167159c1624]
class adapter.mac--><rect fill="#FEFECE" filter="url(#f3rt3kxa99zc)" height="60.9551" id="adapter.mac" style="stroke: #A80036; stroke-width: 1.5;" width="134" x="103" y="170.5"/><ellipse cx="153.75" cy="186.5" fill="#7FFFD4" rx="11" ry="11" style="stroke: #A80036; stroke-width: 1.0;"/><path d="M152.9834,187.563 Q151.1323,186.8574 150.4766,186.0813 Q149.8208,185.3052 149.8208,183.9937 Q149.8208,182.3086 150.8999,181.3457 Q151.979,180.3828 153.8633,180.3828 Q154.7183,180.3828 155.5732,180.5779 Q156.4282,180.7729 157.2666,181.1548 L157.2666,183.5454 Q156.478,182.9893 155.6646,182.6987 Q154.8511,182.4082 154.0542,182.4082 Q153.166,182.4082 152.6929,182.7651 Q152.2197,183.1221 152.2197,183.7861 Q152.2197,184.3008 152.5642,184.637 Q152.9087,184.9731 154.0044,185.3799 L155.0586,185.7783 Q156.5527,186.3262 157.2583,187.231 Q157.9639,188.1357 157.9639,189.5137 Q157.9639,191.3896 156.8557,192.3152 Q155.7476,193.2407 153.5063,193.2407 Q152.585,193.2407 151.6594,193.0208 Q150.7339,192.8008 149.8706,192.3691 L149.8706,189.8374 Q150.8501,190.5347 151.7673,190.875 Q152.6846,191.2153 153.5811,191.2153 Q154.4858,191.2153 154.9839,190.8044 Q155.4819,190.3936 155.4819,189.6548 Q155.4819,189.0986 155.1499,188.6794 Q154.8179,188.2603 154.187,188.0195 Z "/><text fill="#000000" font-family="sans-serif" font-size="12" lengthAdjust="spacingAndGlyphs" textLength="24" x="174.25" y="191.0352">mac</text><line style="stroke: #A80036; stroke-width: 1.5;" x1="104" x2="236" y1="202.5" y2="202.5"/><line style="stroke: #A80036; stroke-width: 1.5;" x1="104" x2="236" y1="210.5" y2="210.5"/><rect fill="#F24D5C" height="6" style="stroke: #C82930; stroke-width: 1.0;" width="6" x="111" y="218.5"/><text fill="#000000" font-family="sans-serif" font-size="11" lengthAdjust="spacingAndGlyphs" textLength="108" x="123" y="225.1348">insertInSquarePort()</text><!--MD5=[971038d0eb91ea704bf1ea526d22a2a3]
class adapter.windows--><rect fill="#FEFECE" filter="url(#f3rt3kxa99zc)" height="60.9551" id="adapter.windows" style="stroke: #A80036; stroke-width: 1.5;" width="128" x="22" y="43"/><ellipse cx="58.15" cy="59" fill="#7FFFD4" rx="11" ry="11" style="stroke: #A80036; stroke-width: 1.0;"/><path d="M57.3834,60.063 Q55.5323,59.3574 54.8766,58.5813 Q54.2208,57.8052 54.2208,56.4937 Q54.2208,54.8086 55.2999,53.8457 Q56.379,52.8828 58.2633,52.8828 Q59.1183,52.8828 59.9732,53.0779 Q60.8282,53.2729 61.6666,53.6548 L61.6666,56.0454 Q60.878,55.4893 60.0646,55.1987 Q59.2511,54.9082 58.4542,54.9082 Q57.566,54.9082 57.0929,55.2651 Q56.6197,55.6221 56.6197,56.2861 Q56.6197,56.8008 56.9642,57.137 Q57.3087,57.4731 58.4044,57.8799 L59.4586,58.2783 Q60.9527,58.8262 61.6583,59.731 Q62.3639,60.6357 62.3639,62.0137 Q62.3639,63.8896 61.2557,64.8152 Q60.1476,65.7407 57.9063,65.7407 Q56.985,65.7407 56.0594,65.5208 Q55.1339,65.3008 54.2706,64.8691 L54.2706,62.3374 Q55.2501,63.0347 56.1673,63.375 Q57.0846,63.7153 57.9811,63.7153 Q58.8858,63.7153 59.3839,63.3044 Q59.8819,62.8936 59.8819,62.1548 Q59.8819,61.5986 59.5499,61.1794 Q59.2179,60.7603 58.587,60.5195 Z "/><text fill="#000000" font-family="sans-serif" font-size="12" lengthAdjust="spacingAndGlyphs" textLength="49" x="76.85" y="63.5352">windows</text><line style="stroke: #A80036; stroke-width: 1.5;" x1="23" x2="149" y1="75" y2="75"/><line style="stroke: #A80036; stroke-width: 1.5;" x1="23" x2="149" y1="83" y2="83"/><rect fill="#F24D5C" height="6" style="stroke: #C82930; stroke-width: 1.0;" width="6" x="30" y="91"/><text fill="#000000" font-family="sans-serif" font-size="11" lengthAdjust="spacingAndGlyphs" textLength="102" x="42" y="97.6348">insertInCirclePort()</text><!--MD5=[cc57731806cbcc644735e3e0a6894cd0]
class adapter.windowsAdapter--><rect fill="#FEFECE" filter="url(#f3rt3kxa99zc)" height="73.9102" id="adapter.windowsAdapter" style="stroke: #A80036; stroke-width: 1.5;" width="164" x="272" y="164"/><ellipse cx="303.2" cy="180" fill="#7FFFD4" rx="11" ry="11" style="stroke: #A80036; stroke-width: 1.0;"/><path d="M302.4334,181.063 Q300.5823,180.3574 299.9266,179.5813 Q299.2708,178.8052 299.2708,177.4937 Q299.2708,175.8086 300.3499,174.8457 Q301.429,173.8828 303.3133,173.8828 Q304.1683,173.8828 305.0232,174.0779 Q305.8782,174.2729 306.7166,174.6548 L306.7166,177.0454 Q305.928,176.4893 305.1146,176.1987 Q304.3011,175.9082 303.5042,175.9082 Q302.616,175.9082 302.1429,176.2651 Q301.6697,176.6221 301.6697,177.2861 Q301.6697,177.8008 302.0142,178.137 Q302.3587,178.4731 303.4544,178.8799 L304.5086,179.2783 Q306.0027,179.8262 306.7083,180.731 Q307.4139,181.6357 307.4139,183.0137 Q307.4139,184.8896 306.3057,185.8152 Q305.1976,186.7407 302.9563,186.7407 Q302.035,186.7407 301.1094,186.5208 Q300.1839,186.3008 299.3206,185.8691 L299.3206,183.3374 Q300.3001,184.0347 301.2173,184.375 Q302.1346,184.7153 303.0311,184.7153 Q303.9358,184.7153 304.4339,184.3044 Q304.9319,183.8936 304.9319,183.1548 Q304.9319,182.5986 304.5999,182.1794 Q304.2679,181.7603 303.637,181.5195 Z "/><text fill="#000000" font-family="sans-serif" font-size="12" lengthAdjust="spacingAndGlyphs" textLength="96" x="320.8" y="184.5352">windowsAdapter</text><line style="stroke: #A80036; stroke-width: 1.5;" x1="273" x2="435" y1="196" y2="196"/><rect fill="none" height="6" style="stroke: #C82930; stroke-width: 1.0;" width="6" x="280" y="204"/><text fill="#000000" font-family="sans-serif" font-size="11" lengthAdjust="spacingAndGlyphs" textLength="138" x="292" y="210.6348">windowMachine *windows</text><line style="stroke: #A80036; stroke-width: 1.5;" x1="273" x2="435" y1="216.9551" y2="216.9551"/><rect fill="#F24D5C" height="6" style="stroke: #C82930; stroke-width: 1.0;" width="6" x="280" y="224.9551"/><text fill="#000000" font-family="sans-serif" font-size="11" lengthAdjust="spacingAndGlyphs" textLength="108" x="292" y="231.5898">insertInSquarePort()</text><!--MD5=[9d6fa3fe4c0890fbfc7177faca457e21]
reverse link adapter.computer to adapter.mac--><path d="M221.4083,121.0664 C210.8235,137.5245 199.2476,155.5235 189.765,170.2679 " fill="none" id="adapter.computer&lt;-adapter.mac" style="stroke: #A80036; stroke-width: 1.0;"/><polygon fill="none" points="215.6529,117.0744,232.359,104.0394,227.4279,124.6474,215.6529,117.0744" style="stroke: #A80036; stroke-width: 1.0;"/><!--MD5=[00ab0905f4da7436fb51fb86a57e158c]
reverse link adapter.computer to adapter.windowsAdapter--><path d="M288.9623,119.7028 C300.5845,134.2306 313.2615,150.0768 324.3111,163.8888 " fill="none" id="adapter.computer&lt;-adapter.windowsAdapter" style="stroke: #A80036; stroke-width: 1.0;"/><polygon fill="none" points="283.4594,124.0297,276.4315,104.0394,294.3916,115.2839,283.4594,124.0297" style="stroke: #A80036; stroke-width: 1.0;"/><!--MD5=[25a8780896e3241ea3273ed4411b7c7a]
@startuml
namespace adapter {
    class client << (S,Aquamarine) >> {
        - insertSquareUsbInComputer(com computer) 

    }
    interface computer  {
        - insertInSquarePort() 

    }
    class mac << (S,Aquamarine) >> {
        - insertInSquarePort() 

    }
    class windows << (S,Aquamarine) >> {
        - insertInCirclePort() 

    }
    class windowsAdapter << (S,Aquamarine) >> {
        - windowMachine *windows

        - insertInSquarePort() 

    }
}

"adapter.computer" <|- - "adapter.mac"
"adapter.computer" <|- - "adapter.windowsAdapter"

@enduml

PlantUML version 1.2020.10(Sun May 17 17:35:57 CST 2020)
(GPL source distribution)
Java Runtime: OpenJDK Runtime Environment
JVM: OpenJDK 64-Bit Server VM
Java Version: 1.8.0_222-b10
Operating System: Mac OS X
Default Encoding: US-ASCII
Language: en
Country: CN
--></g></svg>